G04 #@! TF.GenerationSoftware,KiCad,Pcbnew,6.0.4-6f826c9f35~116~ubuntu20.04.1*
G04 #@! TF.CreationDate,2022-05-16T21:54:43-06:00*
G04 #@! TF.ProjectId,phototransistor-circuit,70686f74-6f74-4726-916e-736973746f72,rev?*
G04 #@! TF.SameCoordinates,Original*
G04 #@! TF.FileFunction,Copper,L2,Bot*
G04 #@! TF.FilePolarity,Positive*
%FSLAX46Y46*%
G04 Gerber Fmt 4.6, Leading zero omitted, Abs format (unit mm)*
G04 Created by KiCad (PCBNEW 6.0.4-6f826c9f35~116~ubuntu20.04.1) date 2022-05-16 21:54:43*
%MOMM*%
%LPD*%
G01*
G04 APERTURE LIST*
G04 Aperture macros list*
%AMRoundRect*
0 Rectangle with rounded corners*
0 $1 Rounding radius*
0 $2 $3 $4 $5 $6 $7 $8 $9 X,Y pos of 4 corners*
0 Add a 4 corners polygon primitive as box body*
4,1,4,$2,$3,$4,$5,$6,$7,$8,$9,$2,$3,0*
0 Add four circle primitives for the rounded corners*
1,1,$1+$1,$2,$3*
1,1,$1+$1,$4,$5*
1,1,$1+$1,$6,$7*
1,1,$1+$1,$8,$9*
0 Add four rect primitives between the rounded corners*
20,1,$1+$1,$2,$3,$4,$5,0*
20,1,$1+$1,$4,$5,$6,$7,0*
20,1,$1+$1,$6,$7,$8,$9,0*
20,1,$1+$1,$8,$9,$2,$3,0*%
G04 Aperture macros list end*
G04 #@! TA.AperFunction,ComponentPad*
%ADD10C,2.000000*%
G04 #@! TD*
G04 #@! TA.AperFunction,ComponentPad*
%ADD11RoundRect,0.250000X0.600000X0.725000X-0.600000X0.725000X-0.600000X-0.725000X0.600000X-0.725000X0*%
G04 #@! TD*
G04 #@! TA.AperFunction,ComponentPad*
%ADD12O,1.700000X1.950000*%
G04 #@! TD*
G04 #@! TA.AperFunction,ComponentPad*
%ADD13C,1.600000*%
G04 #@! TD*
G04 #@! TA.AperFunction,ComponentPad*
%ADD14O,1.600000X1.600000*%
G04 #@! TD*
G04 APERTURE END LIST*
D10*
X87630000Y-78740000D03*
X90170000Y-78740000D03*
D11*
X88098000Y-84311000D03*
D12*
X85598000Y-84311000D03*
X83098000Y-84311000D03*
D13*
X95885000Y-70485000D03*
D14*
X95885000Y-80645000D03*
G04 #@! TA.AperFunction,Conductor*
G36*
X95283400Y-69108502D02*
G01*
X95329893Y-69162158D01*
X95339997Y-69232432D01*
X95310503Y-69297012D01*
X95268529Y-69328695D01*
X95233238Y-69345151D01*
X95233233Y-69345154D01*
X95228251Y-69347477D01*
X95208013Y-69361648D01*
X95045211Y-69475643D01*
X95045208Y-69475645D01*
X95040700Y-69478802D01*
X94878802Y-69640700D01*
X94747477Y-69828251D01*
X94745154Y-69833233D01*
X94745151Y-69833238D01*
X94711056Y-69906356D01*
X94650716Y-70035757D01*
X94649294Y-70041065D01*
X94649293Y-70041067D01*
X94605685Y-70203813D01*
X94591457Y-70256913D01*
X94571502Y-70485000D01*
X94591457Y-70713087D01*
X94650716Y-70934243D01*
X94653039Y-70939224D01*
X94653039Y-70939225D01*
X94745151Y-71136762D01*
X94745154Y-71136767D01*
X94747477Y-71141749D01*
X94878802Y-71329300D01*
X95040700Y-71491198D01*
X95045208Y-71494355D01*
X95045211Y-71494357D01*
X95123389Y-71549098D01*
X95228251Y-71622523D01*
X95233233Y-71624846D01*
X95233238Y-71624849D01*
X95424691Y-71714124D01*
X95435757Y-71719284D01*
X95441065Y-71720706D01*
X95441067Y-71720707D01*
X95651598Y-71777119D01*
X95651600Y-71777119D01*
X95656913Y-71778543D01*
X95885000Y-71798498D01*
X96113087Y-71778543D01*
X96118400Y-71777119D01*
X96118402Y-71777119D01*
X96328933Y-71720707D01*
X96328935Y-71720706D01*
X96334243Y-71719284D01*
X96345309Y-71714124D01*
X96536762Y-71624849D01*
X96536767Y-71624846D01*
X96541749Y-71622523D01*
X96646611Y-71549098D01*
X96724789Y-71494357D01*
X96724792Y-71494355D01*
X96729300Y-71491198D01*
X96891198Y-71329300D01*
X97022523Y-71141749D01*
X97024846Y-71136767D01*
X97024849Y-71136762D01*
X97116961Y-70939225D01*
X97116961Y-70939224D01*
X97119284Y-70934243D01*
X97178543Y-70713087D01*
X97198498Y-70485000D01*
X97178543Y-70256913D01*
X97164315Y-70203813D01*
X97120707Y-70041067D01*
X97120706Y-70041065D01*
X97119284Y-70035757D01*
X97058944Y-69906356D01*
X97024849Y-69833238D01*
X97024846Y-69833233D01*
X97022523Y-69828251D01*
X96891198Y-69640700D01*
X96729300Y-69478802D01*
X96724792Y-69475645D01*
X96724789Y-69475643D01*
X96561987Y-69361648D01*
X96541749Y-69347477D01*
X96536761Y-69345151D01*
X96536758Y-69345149D01*
X96509528Y-69332452D01*
X96456243Y-69285536D01*
X96436781Y-69217259D01*
X96457322Y-69149298D01*
X96511345Y-69103232D01*
X96572662Y-69092645D01*
X96728573Y-69104915D01*
X96748103Y-69108008D01*
X96941903Y-69154536D01*
X96960706Y-69160646D01*
X97144840Y-69236916D01*
X97162457Y-69245893D01*
X97332387Y-69350027D01*
X97348382Y-69361648D01*
X97499934Y-69491085D01*
X97513915Y-69505066D01*
X97643352Y-69656618D01*
X97654973Y-69672613D01*
X97759107Y-69842543D01*
X97768084Y-69860160D01*
X97844354Y-70044294D01*
X97850464Y-70063097D01*
X97896992Y-70256897D01*
X97900085Y-70276426D01*
X97913272Y-70443987D01*
X97912630Y-70460875D01*
X97912800Y-70460877D01*
X97912690Y-70469853D01*
X97911309Y-70478724D01*
X97912473Y-70487626D01*
X97912473Y-70487628D01*
X97915436Y-70510283D01*
X97916500Y-70526621D01*
X97916500Y-86945633D01*
X97915000Y-86965018D01*
X97912690Y-86979851D01*
X97912690Y-86979855D01*
X97911309Y-86988724D01*
X97913148Y-87002789D01*
X97913824Y-87029004D01*
X97905271Y-87137679D01*
X97900085Y-87203574D01*
X97896992Y-87223103D01*
X97850464Y-87416903D01*
X97844354Y-87435706D01*
X97768084Y-87619840D01*
X97759107Y-87637457D01*
X97654973Y-87807387D01*
X97643352Y-87823382D01*
X97513915Y-87974934D01*
X97499934Y-87988915D01*
X97348382Y-88118352D01*
X97332387Y-88129973D01*
X97162457Y-88234107D01*
X97144840Y-88243084D01*
X96960706Y-88319354D01*
X96941903Y-88325464D01*
X96748103Y-88371992D01*
X96728574Y-88375085D01*
X96561013Y-88388272D01*
X96544125Y-88387630D01*
X96544123Y-88387800D01*
X96535147Y-88387690D01*
X96526276Y-88386309D01*
X96517374Y-88387473D01*
X96517372Y-88387473D01*
X96502323Y-88389441D01*
X96494714Y-88390436D01*
X96478379Y-88391500D01*
X81329367Y-88391500D01*
X81309982Y-88390000D01*
X81295149Y-88387690D01*
X81295145Y-88387690D01*
X81286276Y-88386309D01*
X81272211Y-88388148D01*
X81245996Y-88388824D01*
X81112889Y-88378348D01*
X81071426Y-88375085D01*
X81051897Y-88371992D01*
X80858097Y-88325464D01*
X80839294Y-88319354D01*
X80655160Y-88243084D01*
X80637543Y-88234107D01*
X80467613Y-88129973D01*
X80451618Y-88118352D01*
X80300066Y-87988915D01*
X80286085Y-87974934D01*
X80156648Y-87823382D01*
X80145027Y-87807387D01*
X80040893Y-87637457D01*
X80031916Y-87619840D01*
X79955646Y-87435706D01*
X79949536Y-87416903D01*
X79903008Y-87223103D01*
X79899915Y-87203574D01*
X79887009Y-87039583D01*
X79887994Y-87017258D01*
X79887334Y-87017199D01*
X79887769Y-87012351D01*
X79888576Y-87007552D01*
X79888729Y-86995000D01*
X79884773Y-86967376D01*
X79883500Y-86949514D01*
X79883500Y-84581193D01*
X81747410Y-84581193D01*
X81754124Y-84660325D01*
X81755914Y-84670797D01*
X81811130Y-84883535D01*
X81814665Y-84893575D01*
X81904937Y-85093970D01*
X81910106Y-85103256D01*
X82032850Y-85285575D01*
X82039519Y-85293870D01*
X82191228Y-85452900D01*
X82199186Y-85459941D01*
X82375525Y-85591141D01*
X82384562Y-85596745D01*
X82580484Y-85696357D01*
X82590335Y-85700357D01*
X82800240Y-85765534D01*
X82810624Y-85767817D01*
X82826043Y-85769861D01*
X82840207Y-85767665D01*
X82844000Y-85754478D01*
X82844000Y-85752192D01*
X83352000Y-85752192D01*
X83355973Y-85765723D01*
X83366580Y-85767248D01*
X83484421Y-85742523D01*
X83494617Y-85739463D01*
X83699029Y-85658737D01*
X83708561Y-85654006D01*
X83896462Y-85539984D01*
X83905052Y-85533720D01*
X84071052Y-85389673D01*
X84078472Y-85382042D01*
X84217826Y-85212089D01*
X84223848Y-85203326D01*
X84239238Y-85176289D01*
X84290320Y-85126982D01*
X84359951Y-85113120D01*
X84426022Y-85139103D01*
X84453261Y-85168253D01*
X84482240Y-85211297D01*
X84535441Y-85290319D01*
X84539120Y-85294176D01*
X84539122Y-85294178D01*
X84600710Y-85358738D01*
X84694576Y-85457135D01*
X84879542Y-85594754D01*
X84884293Y-85597170D01*
X84884297Y-85597172D01*
X84947481Y-85629296D01*
X85085051Y-85699240D01*
X85090145Y-85700822D01*
X85090148Y-85700823D01*
X85286313Y-85761734D01*
X85305227Y-85767607D01*
X85310516Y-85768308D01*
X85528489Y-85797198D01*
X85528494Y-85797198D01*
X85533774Y-85797898D01*
X85539103Y-85797698D01*
X85539105Y-85797698D01*
X85648966Y-85793574D01*
X85764158Y-85789249D01*
X85786802Y-85784498D01*
X85984572Y-85743002D01*
X85989791Y-85741907D01*
X85994750Y-85739949D01*
X85994752Y-85739948D01*
X86199256Y-85659185D01*
X86199258Y-85659184D01*
X86204221Y-85657224D01*
X86209525Y-85654006D01*
X86396757Y-85540390D01*
X86396756Y-85540390D01*
X86401317Y-85537623D01*
X86466626Y-85480951D01*
X86571412Y-85390023D01*
X86571414Y-85390021D01*
X86575445Y-85386523D01*
X86604670Y-85350880D01*
X86663329Y-85310886D01*
X86734299Y-85308954D01*
X86795048Y-85345698D01*
X86809248Y-85364468D01*
X86889707Y-85494488D01*
X86899522Y-85510348D01*
X87024697Y-85635305D01*
X87030927Y-85639145D01*
X87030928Y-85639146D01*
X87168090Y-85723694D01*
X87175262Y-85728115D01*
X87210938Y-85739948D01*
X87336611Y-85781632D01*
X87336613Y-85781632D01*
X87343139Y-85783797D01*
X87349975Y-85784497D01*
X87349978Y-85784498D01*
X87385663Y-85788154D01*
X87447600Y-85794500D01*
X88748400Y-85794500D01*
X88751646Y-85794163D01*
X88751650Y-85794163D01*
X88847308Y-85784238D01*
X88847312Y-85784237D01*
X88854166Y-85783526D01*
X88860702Y-85781345D01*
X88860704Y-85781345D01*
X88992806Y-85737272D01*
X89021946Y-85727550D01*
X89172348Y-85634478D01*
X89297305Y-85509303D01*
X89306437Y-85494488D01*
X89317400Y-85476703D01*
X92759743Y-85476703D01*
X92760302Y-85480947D01*
X92760302Y-85480951D01*
X92774809Y-85591141D01*
X92797268Y-85761734D01*
X92798401Y-85765874D01*
X92798401Y-85765876D01*
X92806142Y-85794172D01*
X92873129Y-86039036D01*
X92985923Y-86303476D01*
X93133561Y-86550161D01*
X93313313Y-86774528D01*
X93330397Y-86790740D01*
X93516533Y-86967376D01*
X93521851Y-86972423D01*
X93755317Y-87140186D01*
X93759112Y-87142195D01*
X93759113Y-87142196D01*
X93780869Y-87153715D01*
X94009392Y-87274712D01*
X94279373Y-87373511D01*
X94560264Y-87434755D01*
X94572348Y-87435706D01*
X94783282Y-87452307D01*
X94783291Y-87452307D01*
X94785739Y-87452500D01*
X94941271Y-87452500D01*
X94943407Y-87452354D01*
X94943418Y-87452354D01*
X95151548Y-87438165D01*
X95151554Y-87438164D01*
X95155825Y-87437873D01*
X95160020Y-87437004D01*
X95160022Y-87437004D01*
X95296583Y-87408724D01*
X95437342Y-87379574D01*
X95708343Y-87283607D01*
X95963812Y-87151750D01*
X95967313Y-87149289D01*
X95967317Y-87149287D01*
X96081417Y-87069096D01*
X96199023Y-86986441D01*
X96409622Y-86790740D01*
X96591713Y-86568268D01*
X96741927Y-86323142D01*
X96857483Y-86059898D01*
X96936244Y-85783406D01*
X96970830Y-85540390D01*
X96976146Y-85503036D01*
X96976146Y-85503034D01*
X96976751Y-85498784D01*
X96976845Y-85480951D01*
X96978235Y-85215583D01*
X96978235Y-85215576D01*
X96978257Y-85211297D01*
X96975739Y-85192166D01*
X96941292Y-84930522D01*
X96940732Y-84926266D01*
X96864871Y-84648964D01*
X96835964Y-84581193D01*
X96753763Y-84388476D01*
X96753761Y-84388472D01*
X96752077Y-84384524D01*
X96604439Y-84137839D01*
X96424687Y-83913472D01*
X96216149Y-83715577D01*
X95982683Y-83547814D01*
X95960843Y-83536250D01*
X95860116Y-83482918D01*
X95728608Y-83413288D01*
X95518562Y-83336422D01*
X95462658Y-83315964D01*
X95462656Y-83315963D01*
X95458627Y-83314489D01*
X95177736Y-83253245D01*
X95146685Y-83250801D01*
X94954718Y-83235693D01*
X94954709Y-83235693D01*
X94952261Y-83235500D01*
X94796729Y-83235500D01*
X94794593Y-83235646D01*
X94794582Y-83235646D01*
X94586452Y-83249835D01*
X94586446Y-83249836D01*
X94582175Y-83250127D01*
X94577980Y-83250996D01*
X94577978Y-83250996D01*
X94524581Y-83262054D01*
X94300658Y-83308426D01*
X94029657Y-83404393D01*
X93774188Y-83536250D01*
X93770687Y-83538711D01*
X93770683Y-83538713D01*
X93760594Y-83545804D01*
X93538977Y-83701559D01*
X93523892Y-83715577D01*
X93394078Y-83836208D01*
X93328378Y-83897260D01*
X93146287Y-84119732D01*
X92996073Y-84364858D01*
X92880517Y-84628102D01*
X92801756Y-84904594D01*
X92774804Y-85093970D01*
X92764995Y-85162898D01*
X92761249Y-85189216D01*
X92761227Y-85193505D01*
X92761226Y-85193512D01*
X92759765Y-85472417D01*
X92759743Y-85476703D01*
X89317400Y-85476703D01*
X89386275Y-85364968D01*
X89386276Y-85364966D01*
X89390115Y-85358738D01*
X89445797Y-85190861D01*
X89448114Y-85168253D01*
X89456172Y-85089598D01*
X89456500Y-85086400D01*
X89456500Y-83535600D01*
X89448696Y-83460384D01*
X89446238Y-83436692D01*
X89446237Y-83436688D01*
X89445526Y-83429834D01*
X89438785Y-83409627D01*
X89391868Y-83269002D01*
X89389550Y-83262054D01*
X89296478Y-83111652D01*
X89171303Y-82986695D01*
X89140965Y-82967994D01*
X89026968Y-82897725D01*
X89026966Y-82897724D01*
X89020738Y-82893885D01*
X88907353Y-82856277D01*
X88859389Y-82840368D01*
X88859387Y-82840368D01*
X88852861Y-82838203D01*
X88846025Y-82837503D01*
X88846022Y-82837502D01*
X88802969Y-82833091D01*
X88748400Y-82827500D01*
X87447600Y-82827500D01*
X87444354Y-82827837D01*
X87444350Y-82827837D01*
X87348692Y-82837762D01*
X87348688Y-82837763D01*
X87341834Y-82838474D01*
X87335298Y-82840655D01*
X87335296Y-82840655D01*
X87203194Y-82884728D01*
X87174054Y-82894450D01*
X87023652Y-82987522D01*
X86898695Y-83112697D01*
X86825170Y-83231977D01*
X86808920Y-83258339D01*
X86756148Y-83305832D01*
X86686076Y-83317256D01*
X86620952Y-83288982D01*
X86610490Y-83279195D01*
X86505103Y-83168722D01*
X86501424Y-83164865D01*
X86316458Y-83027246D01*
X86311707Y-83024830D01*
X86311703Y-83024828D01*
X86193588Y-82964776D01*
X86110949Y-82922760D01*
X86105855Y-82921178D01*
X86105852Y-82921177D01*
X85895871Y-82855976D01*
X85890773Y-82854393D01*
X85885484Y-82853692D01*
X85667511Y-82824802D01*
X85667506Y-82824802D01*
X85662226Y-82824102D01*
X85656897Y-82824302D01*
X85656895Y-82824302D01*
X85547034Y-82828426D01*
X85431842Y-82832751D01*
X85426623Y-82833846D01*
X85404566Y-82838474D01*
X85206209Y-82880093D01*
X85201250Y-82882051D01*
X85201248Y-82882052D01*
X84996744Y-82962815D01*
X84996742Y-82962816D01*
X84991779Y-82964776D01*
X84987220Y-82967543D01*
X84987217Y-82967544D01*
X84892113Y-83025255D01*
X84794683Y-83084377D01*
X84790653Y-83087874D01*
X84697484Y-83168722D01*
X84620555Y-83235477D01*
X84601809Y-83258339D01*
X84477760Y-83409627D01*
X84477756Y-83409633D01*
X84474376Y-83413755D01*
X84471733Y-83418398D01*
X84456171Y-83445735D01*
X84405088Y-83495041D01*
X84335458Y-83508902D01*
X84269387Y-83482918D01*
X84242149Y-83453768D01*
X84163148Y-83336422D01*
X84156481Y-83328130D01*
X84004772Y-83169100D01*
X83996814Y-83162059D01*
X83820475Y-83030859D01*
X83811438Y-83025255D01*
X83615516Y-82925643D01*
X83605665Y-82921643D01*
X83395760Y-82856466D01*
X83385376Y-82854183D01*
X83369957Y-82852139D01*
X83355793Y-82854335D01*
X83352000Y-82867522D01*
X83352000Y-85752192D01*
X82844000Y-85752192D01*
X82844000Y-84583115D01*
X82839525Y-84567876D01*
X82838135Y-84566671D01*
X82830452Y-84565000D01*
X81764151Y-84565000D01*
X81749473Y-84569310D01*
X81747410Y-84581193D01*
X79883500Y-84581193D01*
X79883500Y-84039174D01*
X81744496Y-84039174D01*
X81745915Y-84052414D01*
X81760550Y-84057000D01*
X82825885Y-84057000D01*
X82841124Y-84052525D01*
X82842329Y-84051135D01*
X82844000Y-84043452D01*
X82844000Y-82869808D01*
X82840027Y-82856277D01*
X82829420Y-82854752D01*
X82711579Y-82879477D01*
X82701383Y-82882537D01*
X82496971Y-82963263D01*
X82487439Y-82967994D01*
X82299538Y-83082016D01*
X82290948Y-83088280D01*
X82124948Y-83232327D01*
X82117528Y-83239958D01*
X81978174Y-83409911D01*
X81972150Y-83418678D01*
X81863424Y-83609682D01*
X81858959Y-83619346D01*
X81783969Y-83825941D01*
X81781198Y-83836208D01*
X81744496Y-84039174D01*
X79883500Y-84039174D01*
X79883500Y-80645000D01*
X94571502Y-80645000D01*
X94591457Y-80873087D01*
X94650716Y-81094243D01*
X94653039Y-81099224D01*
X94653039Y-81099225D01*
X94745151Y-81296762D01*
X94745154Y-81296767D01*
X94747477Y-81301749D01*
X94878802Y-81489300D01*
X95040700Y-81651198D01*
X95045208Y-81654355D01*
X95045211Y-81654357D01*
X95123389Y-81709098D01*
X95228251Y-81782523D01*
X95233233Y-81784846D01*
X95233238Y-81784849D01*
X95430775Y-81876961D01*
X95435757Y-81879284D01*
X95441065Y-81880706D01*
X95441067Y-81880707D01*
X95651598Y-81937119D01*
X95651600Y-81937119D01*
X95656913Y-81938543D01*
X95885000Y-81958498D01*
X96113087Y-81938543D01*
X96118400Y-81937119D01*
X96118402Y-81937119D01*
X96328933Y-81880707D01*
X96328935Y-81880706D01*
X96334243Y-81879284D01*
X96339225Y-81876961D01*
X96536762Y-81784849D01*
X96536767Y-81784846D01*
X96541749Y-81782523D01*
X96646611Y-81709098D01*
X96724789Y-81654357D01*
X96724792Y-81654355D01*
X96729300Y-81651198D01*
X96891198Y-81489300D01*
X97022523Y-81301749D01*
X97024846Y-81296767D01*
X97024849Y-81296762D01*
X97116961Y-81099225D01*
X97116961Y-81099224D01*
X97119284Y-81094243D01*
X97178543Y-80873087D01*
X97198498Y-80645000D01*
X97178543Y-80416913D01*
X97129365Y-80233380D01*
X97120707Y-80201067D01*
X97120706Y-80201065D01*
X97119284Y-80195757D01*
X97110636Y-80177211D01*
X97024849Y-79993238D01*
X97024846Y-79993233D01*
X97022523Y-79988251D01*
X96899935Y-79813177D01*
X96894357Y-79805211D01*
X96894355Y-79805208D01*
X96891198Y-79800700D01*
X96729300Y-79638802D01*
X96724792Y-79635645D01*
X96724789Y-79635643D01*
X96646611Y-79580902D01*
X96541749Y-79507477D01*
X96536767Y-79505154D01*
X96536762Y-79505151D01*
X96339225Y-79413039D01*
X96339224Y-79413039D01*
X96334243Y-79410716D01*
X96328935Y-79409294D01*
X96328933Y-79409293D01*
X96118402Y-79352881D01*
X96118400Y-79352881D01*
X96113087Y-79351457D01*
X95885000Y-79331502D01*
X95656913Y-79351457D01*
X95651600Y-79352881D01*
X95651598Y-79352881D01*
X95441067Y-79409293D01*
X95441065Y-79409294D01*
X95435757Y-79410716D01*
X95430776Y-79413039D01*
X95430775Y-79413039D01*
X95233238Y-79505151D01*
X95233233Y-79505154D01*
X95228251Y-79507477D01*
X95123389Y-79580902D01*
X95045211Y-79635643D01*
X95045208Y-79635645D01*
X95040700Y-79638802D01*
X94878802Y-79800700D01*
X94875645Y-79805208D01*
X94875643Y-79805211D01*
X94870065Y-79813177D01*
X94747477Y-79988251D01*
X94745154Y-79993233D01*
X94745151Y-79993238D01*
X94659364Y-80177211D01*
X94650716Y-80195757D01*
X94649294Y-80201065D01*
X94649293Y-80201067D01*
X94640635Y-80233380D01*
X94591457Y-80416913D01*
X94571502Y-80645000D01*
X79883500Y-80645000D01*
X79883500Y-79972670D01*
X86762160Y-79972670D01*
X86767887Y-79980320D01*
X86939042Y-80085205D01*
X86947837Y-80089687D01*
X87157988Y-80176734D01*
X87167373Y-80179783D01*
X87388554Y-80232885D01*
X87398301Y-80234428D01*
X87625070Y-80252275D01*
X87634930Y-80252275D01*
X87861699Y-80234428D01*
X87871446Y-80232885D01*
X88092627Y-80179783D01*
X88102012Y-80176734D01*
X88312163Y-80089687D01*
X88320958Y-80085205D01*
X88488445Y-79982568D01*
X88497907Y-79972110D01*
X88494124Y-79963334D01*
X87642812Y-79112022D01*
X87628868Y-79104408D01*
X87627035Y-79104539D01*
X87620420Y-79108790D01*
X86768920Y-79960290D01*
X86762160Y-79972670D01*
X79883500Y-79972670D01*
X79883500Y-78744930D01*
X86117725Y-78744930D01*
X86135572Y-78971699D01*
X86137115Y-78981446D01*
X86190217Y-79202627D01*
X86193266Y-79212012D01*
X86280313Y-79422163D01*
X86284795Y-79430958D01*
X86387432Y-79598445D01*
X86397890Y-79607907D01*
X86406666Y-79604124D01*
X87257978Y-78752812D01*
X87264356Y-78741132D01*
X87994408Y-78741132D01*
X87994539Y-78742965D01*
X87998790Y-78749580D01*
X88850290Y-79601080D01*
X88867102Y-79610260D01*
X88930350Y-79624020D01*
X88965775Y-79652776D01*
X89095967Y-79805211D01*
X89100031Y-79809969D01*
X89280584Y-79964176D01*
X89284792Y-79966755D01*
X89284798Y-79966759D01*
X89478084Y-80085205D01*
X89483037Y-80088240D01*
X89487607Y-80090133D01*
X89487611Y-80090135D01*
X89697833Y-80177211D01*
X89702406Y-80179105D01*
X89771767Y-80195757D01*
X89928476Y-80233380D01*
X89928482Y-80233381D01*
X89933289Y-80234535D01*
X90170000Y-80253165D01*
X90406711Y-80234535D01*
X90411518Y-80233381D01*
X90411524Y-80233380D01*
X90568233Y-80195757D01*
X90637594Y-80179105D01*
X90642167Y-80177211D01*
X90852389Y-80090135D01*
X90852393Y-80090133D01*
X90856963Y-80088240D01*
X90861916Y-80085205D01*
X91055202Y-79966759D01*
X91055208Y-79966755D01*
X91059416Y-79964176D01*
X91239969Y-79809969D01*
X91247886Y-79800700D01*
X91260968Y-79785382D01*
X91394176Y-79629416D01*
X91396755Y-79625208D01*
X91396759Y-79625202D01*
X91515654Y-79431183D01*
X91518240Y-79426963D01*
X91520229Y-79422163D01*
X91607211Y-79212167D01*
X91607212Y-79212165D01*
X91609105Y-79207594D01*
X91664535Y-78976711D01*
X91683165Y-78740000D01*
X91664535Y-78503289D01*
X91609105Y-78272406D01*
X91607211Y-78267833D01*
X91520135Y-78057611D01*
X91520133Y-78057607D01*
X91518240Y-78053037D01*
X91515654Y-78048817D01*
X91396759Y-77854798D01*
X91396755Y-77854792D01*
X91394176Y-77850584D01*
X91239969Y-77670031D01*
X91059416Y-77515824D01*
X91055208Y-77513245D01*
X91055202Y-77513241D01*
X90861183Y-77394346D01*
X90856963Y-77391760D01*
X90852393Y-77389867D01*
X90852389Y-77389865D01*
X90642167Y-77302789D01*
X90642165Y-77302788D01*
X90637594Y-77300895D01*
X90557391Y-77281640D01*
X90411524Y-77246620D01*
X90411518Y-77246619D01*
X90406711Y-77245465D01*
X90170000Y-77226835D01*
X89933289Y-77245465D01*
X89928482Y-77246619D01*
X89928476Y-77246620D01*
X89782609Y-77281640D01*
X89702406Y-77300895D01*
X89697835Y-77302788D01*
X89697833Y-77302789D01*
X89487611Y-77389865D01*
X89487607Y-77389867D01*
X89483037Y-77391760D01*
X89478817Y-77394346D01*
X89284798Y-77513241D01*
X89284792Y-77513245D01*
X89280584Y-77515824D01*
X89100031Y-77670031D01*
X89096823Y-77673787D01*
X89096818Y-77673792D01*
X88966294Y-77826616D01*
X88906844Y-77865426D01*
X88872442Y-77867640D01*
X88853333Y-77875877D01*
X88002022Y-78727188D01*
X87994408Y-78741132D01*
X87264356Y-78741132D01*
X87265592Y-78738868D01*
X87265461Y-78737035D01*
X87261210Y-78730420D01*
X86409710Y-77878920D01*
X86397330Y-77872160D01*
X86389680Y-77877887D01*
X86284795Y-78049042D01*
X86280313Y-78057837D01*
X86193266Y-78267988D01*
X86190217Y-78277373D01*
X86137115Y-78498554D01*
X86135572Y-78508301D01*
X86117725Y-78735070D01*
X86117725Y-78744930D01*
X79883500Y-78744930D01*
X79883500Y-77507890D01*
X86762093Y-77507890D01*
X86765876Y-77516666D01*
X87617188Y-78367978D01*
X87631132Y-78375592D01*
X87632965Y-78375461D01*
X87639580Y-78371210D01*
X88491080Y-77519710D01*
X88497840Y-77507330D01*
X88492113Y-77499680D01*
X88320958Y-77394795D01*
X88312163Y-77390313D01*
X88102012Y-77303266D01*
X88092627Y-77300217D01*
X87871446Y-77247115D01*
X87861699Y-77245572D01*
X87634930Y-77227725D01*
X87625070Y-77227725D01*
X87398301Y-77245572D01*
X87388554Y-77247115D01*
X87167373Y-77300217D01*
X87157988Y-77303266D01*
X86947837Y-77390313D01*
X86939042Y-77394795D01*
X86771555Y-77497432D01*
X86762093Y-77507890D01*
X79883500Y-77507890D01*
X79883500Y-72268703D01*
X80821743Y-72268703D01*
X80859268Y-72553734D01*
X80935129Y-72831036D01*
X81047923Y-73095476D01*
X81195561Y-73342161D01*
X81375313Y-73566528D01*
X81583851Y-73764423D01*
X81817317Y-73932186D01*
X81821112Y-73934195D01*
X81821113Y-73934196D01*
X81842869Y-73945715D01*
X82071392Y-74066712D01*
X82341373Y-74165511D01*
X82622264Y-74226755D01*
X82650841Y-74229004D01*
X82845282Y-74244307D01*
X82845291Y-74244307D01*
X82847739Y-74244500D01*
X83003271Y-74244500D01*
X83005407Y-74244354D01*
X83005418Y-74244354D01*
X83213548Y-74230165D01*
X83213554Y-74230164D01*
X83217825Y-74229873D01*
X83222020Y-74229004D01*
X83222022Y-74229004D01*
X83358583Y-74200724D01*
X83499342Y-74171574D01*
X83770343Y-74075607D01*
X84025812Y-73943750D01*
X84029313Y-73941289D01*
X84029317Y-73941287D01*
X84143417Y-73861096D01*
X84261023Y-73778441D01*
X84471622Y-73582740D01*
X84653713Y-73360268D01*
X84803927Y-73115142D01*
X84919483Y-72851898D01*
X84998244Y-72575406D01*
X85038751Y-72290784D01*
X85038845Y-72272951D01*
X85040235Y-72007583D01*
X85040235Y-72007576D01*
X85040257Y-72003297D01*
X85002732Y-71718266D01*
X84926871Y-71440964D01*
X84814077Y-71176524D01*
X84739527Y-71051960D01*
X84668643Y-70933521D01*
X84668640Y-70933517D01*
X84666439Y-70929839D01*
X84486687Y-70705472D01*
X84310472Y-70538250D01*
X84281258Y-70510527D01*
X84281255Y-70510525D01*
X84278149Y-70507577D01*
X84044683Y-70339814D01*
X84022843Y-70328250D01*
X83924964Y-70276426D01*
X83790608Y-70205288D01*
X83520627Y-70106489D01*
X83239736Y-70045245D01*
X83208685Y-70042801D01*
X83016718Y-70027693D01*
X83016709Y-70027693D01*
X83014261Y-70027500D01*
X82858729Y-70027500D01*
X82856593Y-70027646D01*
X82856582Y-70027646D01*
X82648452Y-70041835D01*
X82648446Y-70041836D01*
X82644175Y-70042127D01*
X82639980Y-70042996D01*
X82639978Y-70042996D01*
X82589459Y-70053458D01*
X82362658Y-70100426D01*
X82091657Y-70196393D01*
X81836188Y-70328250D01*
X81832687Y-70330711D01*
X81832683Y-70330713D01*
X81822594Y-70337804D01*
X81600977Y-70493559D01*
X81390378Y-70689260D01*
X81208287Y-70911732D01*
X81058073Y-71156858D01*
X80942517Y-71420102D01*
X80863756Y-71696594D01*
X80823249Y-71981216D01*
X80823227Y-71985505D01*
X80823226Y-71985512D01*
X80821765Y-72264417D01*
X80821743Y-72268703D01*
X79883500Y-72268703D01*
X79883500Y-70538250D01*
X79885246Y-70517345D01*
X79887770Y-70502342D01*
X79888576Y-70497552D01*
X79888729Y-70485000D01*
X79887334Y-70475260D01*
X79886450Y-70447515D01*
X79899915Y-70276426D01*
X79903008Y-70256897D01*
X79949536Y-70063097D01*
X79955646Y-70044294D01*
X80031916Y-69860160D01*
X80040893Y-69842543D01*
X80145027Y-69672613D01*
X80156648Y-69656618D01*
X80286085Y-69505066D01*
X80300066Y-69491085D01*
X80451618Y-69361648D01*
X80467613Y-69350027D01*
X80637543Y-69245893D01*
X80655160Y-69236916D01*
X80839294Y-69160646D01*
X80858097Y-69154536D01*
X81051897Y-69108008D01*
X81071426Y-69104915D01*
X81238987Y-69091728D01*
X81255875Y-69092370D01*
X81255877Y-69092200D01*
X81264853Y-69092310D01*
X81273724Y-69093691D01*
X81282626Y-69092527D01*
X81282628Y-69092527D01*
X81300864Y-69090142D01*
X81305286Y-69089564D01*
X81321621Y-69088500D01*
X95215279Y-69088500D01*
X95283400Y-69108502D01*
G37*
G04 #@! TD.AperFunction*
M02*
