G04 #@! TF.GenerationSoftware,KiCad,Pcbnew,6.0.4-6f826c9f35~116~ubuntu20.04.1*
G04 #@! TF.CreationDate,2022-05-16T21:54:43-06:00*
G04 #@! TF.ProjectId,phototransistor-circuit,70686f74-6f74-4726-916e-736973746f72,rev?*
G04 #@! TF.SameCoordinates,Original*
G04 #@! TF.FileFunction,Legend,Bot*
G04 #@! TF.FilePolarity,Positive*
%FSLAX46Y46*%
G04 Gerber Fmt 4.6, Leading zero omitted, Abs format (unit mm)*
G04 Created by KiCad (PCBNEW 6.0.4-6f826c9f35~116~ubuntu20.04.1) date 2022-05-16 21:54:43*
%MOMM*%
%LPD*%
G01*
G04 APERTURE LIST*
G04 Aperture macros list*
%AMRoundRect*
0 Rectangle with rounded corners*
0 $1 Rounding radius*
0 $2 $3 $4 $5 $6 $7 $8 $9 X,Y pos of 4 corners*
0 Add a 4 corners polygon primitive as box body*
4,1,4,$2,$3,$4,$5,$6,$7,$8,$9,$2,$3,0*
0 Add four circle primitives for the rounded corners*
1,1,$1+$1,$2,$3*
1,1,$1+$1,$4,$5*
1,1,$1+$1,$6,$7*
1,1,$1+$1,$8,$9*
0 Add four rect primitives between the rounded corners*
20,1,$1+$1,$2,$3,$4,$5,0*
20,1,$1+$1,$4,$5,$6,$7,0*
20,1,$1+$1,$6,$7,$8,$9,0*
20,1,$1+$1,$8,$9,$2,$3,0*%
G04 Aperture macros list end*
%ADD10C,0.150000*%
%ADD11C,0.120000*%
%ADD12C,1.000000*%
%ADD13C,3.200000*%
%ADD14RoundRect,0.250000X0.600000X0.725000X-0.600000X0.725000X-0.600000X-0.725000X0.600000X-0.725000X0*%
%ADD15O,1.700000X1.950000*%
%ADD16C,1.600000*%
%ADD17O,1.600000X1.600000*%
G04 APERTURE END LIST*
D10*
X85542380Y-79200476D02*
X85494761Y-79105238D01*
X85447142Y-79057619D01*
X85351904Y-79010000D01*
X85066190Y-79010000D01*
X84970952Y-79057619D01*
X84923333Y-79105238D01*
X84875714Y-79200476D01*
X84875714Y-79343333D01*
X84923333Y-79438571D01*
X84970952Y-79486190D01*
X85066190Y-79533809D01*
X85351904Y-79533809D01*
X85447142Y-79486190D01*
X85494761Y-79438571D01*
X85542380Y-79343333D01*
X85542380Y-79200476D01*
X84875714Y-80390952D02*
X85542380Y-80390952D01*
X84875714Y-79962380D02*
X85399523Y-79962380D01*
X85494761Y-80010000D01*
X85542380Y-80105238D01*
X85542380Y-80248095D01*
X85494761Y-80343333D01*
X85447142Y-80390952D01*
X84875714Y-80724285D02*
X84875714Y-81105238D01*
X84542380Y-80867142D02*
X85399523Y-80867142D01*
X85494761Y-80914761D01*
X85542380Y-81010000D01*
X85542380Y-81105238D01*
X89249095Y-80224380D02*
X88630047Y-80224380D01*
X88963380Y-80605333D01*
X88820523Y-80605333D01*
X88725285Y-80652952D01*
X88677666Y-80700571D01*
X88630047Y-80795809D01*
X88630047Y-81033904D01*
X88677666Y-81129142D01*
X88725285Y-81176761D01*
X88820523Y-81224380D01*
X89106238Y-81224380D01*
X89201476Y-81176761D01*
X89249095Y-81129142D01*
X88344333Y-80224380D02*
X88011000Y-81224380D01*
X87677666Y-80224380D01*
X87439571Y-80224380D02*
X86820523Y-80224380D01*
X87153857Y-80605333D01*
X87011000Y-80605333D01*
X86915761Y-80652952D01*
X86868142Y-80700571D01*
X86820523Y-80795809D01*
X86820523Y-81033904D01*
X86868142Y-81129142D01*
X86915761Y-81176761D01*
X87011000Y-81224380D01*
X87296714Y-81224380D01*
X87391952Y-81176761D01*
X87439571Y-81129142D01*
X82685000Y-79248095D02*
X82637380Y-79152857D01*
X82637380Y-79010000D01*
X82685000Y-78867142D01*
X82780238Y-78771904D01*
X82875476Y-78724285D01*
X83065952Y-78676666D01*
X83208809Y-78676666D01*
X83399285Y-78724285D01*
X83494523Y-78771904D01*
X83589761Y-78867142D01*
X83637380Y-79010000D01*
X83637380Y-79105238D01*
X83589761Y-79248095D01*
X83542142Y-79295714D01*
X83208809Y-79295714D01*
X83208809Y-79105238D01*
X83637380Y-79724285D02*
X82637380Y-79724285D01*
X83637380Y-80295714D01*
X82637380Y-80295714D01*
X83637380Y-80771904D02*
X82637380Y-80771904D01*
X82637380Y-81010000D01*
X82685000Y-81152857D01*
X82780238Y-81248095D01*
X82875476Y-81295714D01*
X83065952Y-81343333D01*
X83208809Y-81343333D01*
X83399285Y-81295714D01*
X83494523Y-81248095D01*
X83589761Y-81152857D01*
X83637380Y-81010000D01*
X83637380Y-80771904D01*
X89173038Y-76544419D02*
X89268276Y-76496800D01*
X89363514Y-76401561D01*
X89506371Y-76258704D01*
X89601609Y-76211085D01*
X89696847Y-76211085D01*
X89649228Y-76449180D02*
X89744466Y-76401561D01*
X89839704Y-76306323D01*
X89887323Y-76115847D01*
X89887323Y-75782514D01*
X89839704Y-75592038D01*
X89744466Y-75496800D01*
X89649228Y-75449180D01*
X89458752Y-75449180D01*
X89363514Y-75496800D01*
X89268276Y-75592038D01*
X89220657Y-75782514D01*
X89220657Y-76115847D01*
X89268276Y-76306323D01*
X89363514Y-76401561D01*
X89458752Y-76449180D01*
X89649228Y-76449180D01*
X88268276Y-76449180D02*
X88839704Y-76449180D01*
X88553990Y-76449180D02*
X88553990Y-75449180D01*
X88649228Y-75592038D01*
X88744466Y-75687276D01*
X88839704Y-75734895D01*
X92408333Y-87082380D02*
X92408333Y-87796666D01*
X92455952Y-87939523D01*
X92551190Y-88034761D01*
X92694047Y-88082380D01*
X92789285Y-88082380D01*
X91408333Y-88082380D02*
X91979761Y-88082380D01*
X91694047Y-88082380D02*
X91694047Y-87082380D01*
X91789285Y-87225238D01*
X91884523Y-87320476D01*
X91979761Y-87368095D01*
X93967380Y-75398333D02*
X93491190Y-75065000D01*
X93967380Y-74826904D02*
X92967380Y-74826904D01*
X92967380Y-75207857D01*
X93015000Y-75303095D01*
X93062619Y-75350714D01*
X93157857Y-75398333D01*
X93300714Y-75398333D01*
X93395952Y-75350714D01*
X93443571Y-75303095D01*
X93491190Y-75207857D01*
X93491190Y-74826904D01*
X93967380Y-76350714D02*
X93967380Y-75779285D01*
X93967380Y-76065000D02*
X92967380Y-76065000D01*
X93110238Y-75969761D01*
X93205476Y-75874523D01*
X93253095Y-75779285D01*
D11*
X81298000Y-84111000D02*
X81298000Y-87061000D01*
X90648000Y-84111000D02*
X89898000Y-84111000D01*
X88848000Y-81861000D02*
X90648000Y-81861000D01*
X89898000Y-84111000D02*
X89898000Y-87061000D01*
X80548000Y-84111000D02*
X81298000Y-84111000D01*
X87348000Y-82611000D02*
X83848000Y-82611000D01*
X87348000Y-81861000D02*
X87348000Y-82611000D01*
X90658000Y-87821000D02*
X80538000Y-87821000D01*
X80538000Y-87821000D02*
X80538000Y-81851000D01*
X80548000Y-81861000D02*
X82348000Y-81861000D01*
X81298000Y-87061000D02*
X85598000Y-87061000D01*
X80538000Y-81851000D02*
X90658000Y-81851000D01*
X88848000Y-82611000D02*
X88848000Y-81861000D01*
X83848000Y-81861000D02*
X87348000Y-81861000D01*
X90948000Y-81561000D02*
X90948000Y-82811000D01*
X89698000Y-81561000D02*
X90948000Y-81561000D01*
X82348000Y-81861000D02*
X82348000Y-82611000D01*
X82348000Y-82611000D02*
X80548000Y-82611000D01*
X89898000Y-87061000D02*
X85598000Y-87061000D01*
X80548000Y-82611000D02*
X80548000Y-81861000D01*
X90648000Y-81861000D02*
X90648000Y-82611000D01*
X90648000Y-82611000D02*
X88848000Y-82611000D01*
X83848000Y-82611000D02*
X83848000Y-81861000D01*
X90658000Y-81851000D02*
X90658000Y-87821000D01*
X95885000Y-79605000D02*
X95885000Y-78835000D01*
X94515000Y-72295000D02*
X97255000Y-72295000D01*
X95885000Y-71525000D02*
X95885000Y-72295000D01*
X94515000Y-78835000D02*
X94515000Y-72295000D01*
X97255000Y-72295000D02*
X97255000Y-78835000D01*
X97255000Y-78835000D02*
X94515000Y-78835000D01*
%LPC*%
D12*
X88130000Y-78740000D02*
G75*
G03*
X88130000Y-78740000I-500000J0D01*
G01*
X90670000Y-78740000D02*
G75*
G03*
X90670000Y-78740000I-500000J0D01*
G01*
D13*
X82931000Y-72136000D03*
X94869000Y-85344000D03*
D14*
X88098000Y-84311000D03*
D15*
X85598000Y-84311000D03*
X83098000Y-84311000D03*
D16*
X95885000Y-70485000D03*
D17*
X95885000Y-80645000D03*
M02*
