G04 #@! TF.GenerationSoftware,KiCad,Pcbnew,6.0.4-6f826c9f35~116~ubuntu20.04.1*
G04 #@! TF.CreationDate,2022-05-16T21:54:43-06:00*
G04 #@! TF.ProjectId,phototransistor-circuit,70686f74-6f74-4726-916e-736973746f72,rev?*
G04 #@! TF.SameCoordinates,Original*
G04 #@! TF.FileFunction,Copper,L1,Top*
G04 #@! TF.FilePolarity,Positive*
%FSLAX46Y46*%
G04 Gerber Fmt 4.6, Leading zero omitted, Abs format (unit mm)*
G04 Created by KiCad (PCBNEW 6.0.4-6f826c9f35~116~ubuntu20.04.1) date 2022-05-16 21:54:43*
%MOMM*%
%LPD*%
G01*
G04 APERTURE LIST*
G04 Aperture macros list*
%AMRoundRect*
0 Rectangle with rounded corners*
0 $1 Rounding radius*
0 $2 $3 $4 $5 $6 $7 $8 $9 X,Y pos of 4 corners*
0 Add a 4 corners polygon primitive as box body*
4,1,4,$2,$3,$4,$5,$6,$7,$8,$9,$2,$3,0*
0 Add four circle primitives for the rounded corners*
1,1,$1+$1,$2,$3*
1,1,$1+$1,$4,$5*
1,1,$1+$1,$6,$7*
1,1,$1+$1,$8,$9*
0 Add four rect primitives between the rounded corners*
20,1,$1+$1,$2,$3,$4,$5,0*
20,1,$1+$1,$4,$5,$6,$7,0*
20,1,$1+$1,$6,$7,$8,$9,0*
20,1,$1+$1,$8,$9,$2,$3,0*%
G04 Aperture macros list end*
G04 #@! TA.AperFunction,EtchedComponent*
%ADD10C,0.001000*%
G04 #@! TD*
G04 #@! TA.AperFunction,ComponentPad*
%ADD11C,2.000000*%
G04 #@! TD*
G04 #@! TA.AperFunction,ComponentPad*
%ADD12RoundRect,0.250000X0.600000X0.725000X-0.600000X0.725000X-0.600000X-0.725000X0.600000X-0.725000X0*%
G04 #@! TD*
G04 #@! TA.AperFunction,ComponentPad*
%ADD13O,1.700000X1.950000*%
G04 #@! TD*
G04 #@! TA.AperFunction,ComponentPad*
%ADD14C,1.600000*%
G04 #@! TD*
G04 #@! TA.AperFunction,ComponentPad*
%ADD15O,1.600000X1.600000*%
G04 #@! TD*
G04 #@! TA.AperFunction,Conductor*
%ADD16C,0.254000*%
G04 #@! TD*
G04 APERTURE END LIST*
G36*
X90928000Y-76346000D02*
G01*
X91052000Y-76357000D01*
X91175000Y-76376000D01*
X91298000Y-76400000D01*
X91419000Y-76431000D01*
X91538000Y-76468000D01*
X91655000Y-76511000D01*
X91769000Y-76561000D01*
X91881000Y-76616000D01*
X91990000Y-76677000D01*
X92095000Y-76743000D01*
X92197000Y-76815000D01*
X92296000Y-76892000D01*
X92390000Y-76974000D01*
X92479000Y-77060000D01*
X92564000Y-77151000D01*
X92645000Y-77247000D01*
X92720000Y-77346000D01*
X92790000Y-77450000D01*
X92854000Y-77556000D01*
X92913000Y-77666000D01*
X92966000Y-77779000D01*
X93014000Y-77894000D01*
X93055000Y-78012000D01*
X93090000Y-78132000D01*
X93119000Y-78253000D01*
X93141000Y-78376000D01*
X93157000Y-78499000D01*
X93167000Y-78624000D01*
X93170000Y-78740000D01*
X93167000Y-78856000D01*
X93157000Y-78981000D01*
X93141000Y-79104000D01*
X93119000Y-79227000D01*
X93090000Y-79348000D01*
X93055000Y-79468000D01*
X93014000Y-79586000D01*
X92966000Y-79701000D01*
X92913000Y-79814000D01*
X92854000Y-79924000D01*
X92790000Y-80030000D01*
X92720000Y-80134000D01*
X92645000Y-80233000D01*
X92564000Y-80329000D01*
X92479000Y-80420000D01*
X92390000Y-80506000D01*
X92296000Y-80588000D01*
X92197000Y-80665000D01*
X92095000Y-80737000D01*
X91990000Y-80803000D01*
X91881000Y-80864000D01*
X91769000Y-80919000D01*
X91655000Y-80969000D01*
X91538000Y-81012000D01*
X91419000Y-81049000D01*
X91298000Y-81080000D01*
X91175000Y-81104000D01*
X91052000Y-81123000D01*
X90928000Y-81134000D01*
X90795000Y-81140000D01*
X90727000Y-81140000D01*
X90668000Y-81139000D01*
X90610000Y-81136000D01*
X90552000Y-81132000D01*
X90493000Y-81127000D01*
X90435000Y-81120000D01*
X90378000Y-81111000D01*
X90320000Y-81101000D01*
X90263000Y-81090000D01*
X90206000Y-81077000D01*
X90149000Y-81063000D01*
X90093000Y-81047000D01*
X90037000Y-81030000D01*
X89981000Y-81012000D01*
X89926000Y-80992000D01*
X89872000Y-80971000D01*
X89818000Y-80949000D01*
X89764000Y-80925000D01*
X89712000Y-80900000D01*
X89660000Y-80873000D01*
X89608000Y-80845000D01*
X89557000Y-80816000D01*
X89508000Y-80786000D01*
X89458000Y-80754000D01*
X89410000Y-80722000D01*
X89362000Y-80688000D01*
X89270000Y-80616000D01*
X89225000Y-80579000D01*
X89170000Y-80530000D01*
X89170000Y-76950000D01*
X89225000Y-76901000D01*
X89270000Y-76864000D01*
X89362000Y-76792000D01*
X89410000Y-76758000D01*
X89458000Y-76726000D01*
X89508000Y-76694000D01*
X89557000Y-76664000D01*
X89608000Y-76635000D01*
X89660000Y-76607000D01*
X89712000Y-76580000D01*
X89764000Y-76555000D01*
X89818000Y-76531000D01*
X89872000Y-76509000D01*
X89926000Y-76488000D01*
X89981000Y-76468000D01*
X90037000Y-76450000D01*
X90093000Y-76433000D01*
X90149000Y-76417000D01*
X90206000Y-76403000D01*
X90263000Y-76390000D01*
X90320000Y-76379000D01*
X90378000Y-76369000D01*
X90435000Y-76360000D01*
X90493000Y-76353000D01*
X90552000Y-76348000D01*
X90610000Y-76344000D01*
X90668000Y-76341000D01*
X90727000Y-76340000D01*
X90795000Y-76340000D01*
X90928000Y-76346000D01*
G37*
D10*
X90928000Y-76346000D02*
X91052000Y-76357000D01*
X91175000Y-76376000D01*
X91298000Y-76400000D01*
X91419000Y-76431000D01*
X91538000Y-76468000D01*
X91655000Y-76511000D01*
X91769000Y-76561000D01*
X91881000Y-76616000D01*
X91990000Y-76677000D01*
X92095000Y-76743000D01*
X92197000Y-76815000D01*
X92296000Y-76892000D01*
X92390000Y-76974000D01*
X92479000Y-77060000D01*
X92564000Y-77151000D01*
X92645000Y-77247000D01*
X92720000Y-77346000D01*
X92790000Y-77450000D01*
X92854000Y-77556000D01*
X92913000Y-77666000D01*
X92966000Y-77779000D01*
X93014000Y-77894000D01*
X93055000Y-78012000D01*
X93090000Y-78132000D01*
X93119000Y-78253000D01*
X93141000Y-78376000D01*
X93157000Y-78499000D01*
X93167000Y-78624000D01*
X93170000Y-78740000D01*
X93167000Y-78856000D01*
X93157000Y-78981000D01*
X93141000Y-79104000D01*
X93119000Y-79227000D01*
X93090000Y-79348000D01*
X93055000Y-79468000D01*
X93014000Y-79586000D01*
X92966000Y-79701000D01*
X92913000Y-79814000D01*
X92854000Y-79924000D01*
X92790000Y-80030000D01*
X92720000Y-80134000D01*
X92645000Y-80233000D01*
X92564000Y-80329000D01*
X92479000Y-80420000D01*
X92390000Y-80506000D01*
X92296000Y-80588000D01*
X92197000Y-80665000D01*
X92095000Y-80737000D01*
X91990000Y-80803000D01*
X91881000Y-80864000D01*
X91769000Y-80919000D01*
X91655000Y-80969000D01*
X91538000Y-81012000D01*
X91419000Y-81049000D01*
X91298000Y-81080000D01*
X91175000Y-81104000D01*
X91052000Y-81123000D01*
X90928000Y-81134000D01*
X90795000Y-81140000D01*
X90727000Y-81140000D01*
X90668000Y-81139000D01*
X90610000Y-81136000D01*
X90552000Y-81132000D01*
X90493000Y-81127000D01*
X90435000Y-81120000D01*
X90378000Y-81111000D01*
X90320000Y-81101000D01*
X90263000Y-81090000D01*
X90206000Y-81077000D01*
X90149000Y-81063000D01*
X90093000Y-81047000D01*
X90037000Y-81030000D01*
X89981000Y-81012000D01*
X89926000Y-80992000D01*
X89872000Y-80971000D01*
X89818000Y-80949000D01*
X89764000Y-80925000D01*
X89712000Y-80900000D01*
X89660000Y-80873000D01*
X89608000Y-80845000D01*
X89557000Y-80816000D01*
X89508000Y-80786000D01*
X89458000Y-80754000D01*
X89410000Y-80722000D01*
X89362000Y-80688000D01*
X89270000Y-80616000D01*
X89225000Y-80579000D01*
X89170000Y-80530000D01*
X89170000Y-76950000D01*
X89225000Y-76901000D01*
X89270000Y-76864000D01*
X89362000Y-76792000D01*
X89410000Y-76758000D01*
X89458000Y-76726000D01*
X89508000Y-76694000D01*
X89557000Y-76664000D01*
X89608000Y-76635000D01*
X89660000Y-76607000D01*
X89712000Y-76580000D01*
X89764000Y-76555000D01*
X89818000Y-76531000D01*
X89872000Y-76509000D01*
X89926000Y-76488000D01*
X89981000Y-76468000D01*
X90037000Y-76450000D01*
X90093000Y-76433000D01*
X90149000Y-76417000D01*
X90206000Y-76403000D01*
X90263000Y-76390000D01*
X90320000Y-76379000D01*
X90378000Y-76369000D01*
X90435000Y-76360000D01*
X90493000Y-76353000D01*
X90552000Y-76348000D01*
X90610000Y-76344000D01*
X90668000Y-76341000D01*
X90727000Y-76340000D01*
X90795000Y-76340000D01*
X90928000Y-76346000D01*
D11*
X87630000Y-78740000D03*
X90170000Y-78740000D03*
D12*
X88098000Y-84311000D03*
D13*
X85598000Y-84311000D03*
X83098000Y-84311000D03*
D14*
X95885000Y-70485000D03*
D15*
X95885000Y-80645000D03*
D16*
X92075000Y-80645000D02*
X90170000Y-78740000D01*
X85598000Y-83312000D02*
X85598000Y-84311000D01*
X95885000Y-80645000D02*
X92075000Y-80645000D01*
X90170000Y-78740000D02*
X85598000Y-83312000D01*
G04 #@! TA.AperFunction,Conductor*
G36*
X95284584Y-69108502D02*
G01*
X95331077Y-69162158D01*
X95341181Y-69232432D01*
X95311687Y-69297012D01*
X95269713Y-69328695D01*
X95233489Y-69345586D01*
X95223994Y-69351069D01*
X95171952Y-69387509D01*
X95163576Y-69397988D01*
X95170644Y-69411434D01*
X95872188Y-70112978D01*
X95886132Y-70120592D01*
X95887965Y-70120461D01*
X95894580Y-70116210D01*
X96600077Y-69410713D01*
X96606507Y-69398938D01*
X96597211Y-69386923D01*
X96546006Y-69351069D01*
X96536507Y-69345584D01*
X96508104Y-69332340D01*
X96454819Y-69285424D01*
X96435357Y-69217146D01*
X96455898Y-69149186D01*
X96509921Y-69103120D01*
X96571238Y-69092533D01*
X96728573Y-69104915D01*
X96748103Y-69108008D01*
X96941903Y-69154536D01*
X96960706Y-69160646D01*
X97144840Y-69236916D01*
X97162457Y-69245893D01*
X97332387Y-69350027D01*
X97348382Y-69361648D01*
X97499934Y-69491085D01*
X97513915Y-69505066D01*
X97643352Y-69656618D01*
X97654973Y-69672613D01*
X97759107Y-69842543D01*
X97768084Y-69860160D01*
X97844354Y-70044294D01*
X97850464Y-70063097D01*
X97896992Y-70256897D01*
X97900085Y-70276426D01*
X97913272Y-70443987D01*
X97912630Y-70460875D01*
X97912800Y-70460877D01*
X97912690Y-70469853D01*
X97911309Y-70478724D01*
X97912473Y-70487626D01*
X97912473Y-70487628D01*
X97915436Y-70510283D01*
X97916500Y-70526621D01*
X97916500Y-86945633D01*
X97915000Y-86965018D01*
X97912690Y-86979851D01*
X97912690Y-86979855D01*
X97911309Y-86988724D01*
X97913148Y-87002789D01*
X97913824Y-87029004D01*
X97905271Y-87137679D01*
X97900085Y-87203574D01*
X97896992Y-87223103D01*
X97850464Y-87416903D01*
X97844354Y-87435706D01*
X97768084Y-87619840D01*
X97759107Y-87637457D01*
X97654973Y-87807387D01*
X97643352Y-87823382D01*
X97513915Y-87974934D01*
X97499934Y-87988915D01*
X97348382Y-88118352D01*
X97332387Y-88129973D01*
X97162457Y-88234107D01*
X97144840Y-88243084D01*
X96960706Y-88319354D01*
X96941903Y-88325464D01*
X96748103Y-88371992D01*
X96728574Y-88375085D01*
X96561013Y-88388272D01*
X96544125Y-88387630D01*
X96544123Y-88387800D01*
X96535147Y-88387690D01*
X96526276Y-88386309D01*
X96517374Y-88387473D01*
X96517372Y-88387473D01*
X96502323Y-88389441D01*
X96494714Y-88390436D01*
X96478379Y-88391500D01*
X81329367Y-88391500D01*
X81309982Y-88390000D01*
X81295149Y-88387690D01*
X81295145Y-88387690D01*
X81286276Y-88386309D01*
X81272211Y-88388148D01*
X81245996Y-88388824D01*
X81112889Y-88378348D01*
X81071426Y-88375085D01*
X81051897Y-88371992D01*
X80858097Y-88325464D01*
X80839294Y-88319354D01*
X80655160Y-88243084D01*
X80637543Y-88234107D01*
X80467613Y-88129973D01*
X80451618Y-88118352D01*
X80300066Y-87988915D01*
X80286085Y-87974934D01*
X80156648Y-87823382D01*
X80145027Y-87807387D01*
X80040893Y-87637457D01*
X80031916Y-87619840D01*
X79955646Y-87435706D01*
X79949536Y-87416903D01*
X79903008Y-87223103D01*
X79899915Y-87203574D01*
X79887009Y-87039583D01*
X79887994Y-87017258D01*
X79887334Y-87017199D01*
X79887769Y-87012351D01*
X79888576Y-87007552D01*
X79888729Y-86995000D01*
X79884773Y-86967376D01*
X79883500Y-86949514D01*
X79883500Y-84493890D01*
X81739500Y-84493890D01*
X81754080Y-84665720D01*
X81755418Y-84670875D01*
X81755419Y-84670881D01*
X81810657Y-84883703D01*
X81811999Y-84888872D01*
X81814191Y-84893738D01*
X81814192Y-84893741D01*
X81830761Y-84930522D01*
X81906688Y-85099075D01*
X82035441Y-85290319D01*
X82194576Y-85457135D01*
X82379542Y-85594754D01*
X82384293Y-85597170D01*
X82384297Y-85597172D01*
X82446704Y-85628901D01*
X82585051Y-85699240D01*
X82590145Y-85700822D01*
X82590148Y-85700823D01*
X82786313Y-85761734D01*
X82805227Y-85767607D01*
X82810516Y-85768308D01*
X83028489Y-85797198D01*
X83028494Y-85797198D01*
X83033774Y-85797898D01*
X83039103Y-85797698D01*
X83039105Y-85797698D01*
X83148966Y-85793574D01*
X83264158Y-85789249D01*
X83269468Y-85788135D01*
X83484572Y-85743002D01*
X83489791Y-85741907D01*
X83494750Y-85739949D01*
X83494752Y-85739948D01*
X83699256Y-85659185D01*
X83699258Y-85659184D01*
X83704221Y-85657224D01*
X83803184Y-85597172D01*
X83896757Y-85540390D01*
X83896756Y-85540390D01*
X83901317Y-85537623D01*
X83966626Y-85480951D01*
X84071412Y-85390023D01*
X84071414Y-85390021D01*
X84075445Y-85386523D01*
X84139383Y-85308545D01*
X84218240Y-85212373D01*
X84218244Y-85212367D01*
X84221624Y-85208245D01*
X84239552Y-85176750D01*
X84290632Y-85127445D01*
X84360262Y-85113583D01*
X84426333Y-85139566D01*
X84453573Y-85168716D01*
X84535441Y-85290319D01*
X84694576Y-85457135D01*
X84879542Y-85594754D01*
X84884293Y-85597170D01*
X84884297Y-85597172D01*
X84946704Y-85628901D01*
X85085051Y-85699240D01*
X85090145Y-85700822D01*
X85090148Y-85700823D01*
X85286313Y-85761734D01*
X85305227Y-85767607D01*
X85310516Y-85768308D01*
X85528489Y-85797198D01*
X85528494Y-85797198D01*
X85533774Y-85797898D01*
X85539103Y-85797698D01*
X85539105Y-85797698D01*
X85648966Y-85793574D01*
X85764158Y-85789249D01*
X85769468Y-85788135D01*
X85984572Y-85743002D01*
X85989791Y-85741907D01*
X85994750Y-85739949D01*
X85994752Y-85739948D01*
X86199256Y-85659185D01*
X86199258Y-85659184D01*
X86204221Y-85657224D01*
X86303184Y-85597172D01*
X86396757Y-85540390D01*
X86396756Y-85540390D01*
X86401317Y-85537623D01*
X86466626Y-85480951D01*
X86571412Y-85390023D01*
X86571414Y-85390021D01*
X86575445Y-85386523D01*
X86605006Y-85350471D01*
X86663666Y-85310476D01*
X86734636Y-85308545D01*
X86795384Y-85345290D01*
X86809584Y-85364059D01*
X86896063Y-85503807D01*
X86905099Y-85515208D01*
X87019829Y-85629739D01*
X87031240Y-85638751D01*
X87169243Y-85723816D01*
X87182424Y-85729963D01*
X87336710Y-85781138D01*
X87350086Y-85784005D01*
X87444438Y-85793672D01*
X87450854Y-85794000D01*
X87825885Y-85794000D01*
X87841124Y-85789525D01*
X87842329Y-85788135D01*
X87844000Y-85780452D01*
X87844000Y-85775884D01*
X88352000Y-85775884D01*
X88356475Y-85791123D01*
X88357865Y-85792328D01*
X88365548Y-85793999D01*
X88745095Y-85793999D01*
X88751614Y-85793662D01*
X88847206Y-85783743D01*
X88860600Y-85780851D01*
X89014784Y-85729412D01*
X89027962Y-85723239D01*
X89165807Y-85637937D01*
X89177208Y-85628901D01*
X89291739Y-85514171D01*
X89300751Y-85502760D01*
X89316813Y-85476703D01*
X92759743Y-85476703D01*
X92760302Y-85480947D01*
X92760302Y-85480951D01*
X92774865Y-85591568D01*
X92797268Y-85761734D01*
X92798401Y-85765874D01*
X92798401Y-85765876D01*
X92806002Y-85793662D01*
X92873129Y-86039036D01*
X92985923Y-86303476D01*
X93133561Y-86550161D01*
X93313313Y-86774528D01*
X93330397Y-86790740D01*
X93516533Y-86967376D01*
X93521851Y-86972423D01*
X93755317Y-87140186D01*
X93759112Y-87142195D01*
X93759113Y-87142196D01*
X93780869Y-87153715D01*
X94009392Y-87274712D01*
X94279373Y-87373511D01*
X94560264Y-87434755D01*
X94572348Y-87435706D01*
X94783282Y-87452307D01*
X94783291Y-87452307D01*
X94785739Y-87452500D01*
X94941271Y-87452500D01*
X94943407Y-87452354D01*
X94943418Y-87452354D01*
X95151548Y-87438165D01*
X95151554Y-87438164D01*
X95155825Y-87437873D01*
X95160020Y-87437004D01*
X95160022Y-87437004D01*
X95296583Y-87408724D01*
X95437342Y-87379574D01*
X95708343Y-87283607D01*
X95963812Y-87151750D01*
X95967313Y-87149289D01*
X95967317Y-87149287D01*
X96081417Y-87069096D01*
X96199023Y-86986441D01*
X96409622Y-86790740D01*
X96591713Y-86568268D01*
X96741927Y-86323142D01*
X96857483Y-86059898D01*
X96936244Y-85783406D01*
X96970830Y-85540390D01*
X96976146Y-85503036D01*
X96976146Y-85503034D01*
X96976751Y-85498784D01*
X96976845Y-85480951D01*
X96978235Y-85215583D01*
X96978235Y-85215576D01*
X96978257Y-85211297D01*
X96968814Y-85139566D01*
X96951477Y-85007886D01*
X96940732Y-84926266D01*
X96864871Y-84648964D01*
X96752077Y-84384524D01*
X96604439Y-84137839D01*
X96424687Y-83913472D01*
X96216149Y-83715577D01*
X95982683Y-83547814D01*
X95960843Y-83536250D01*
X95882094Y-83494555D01*
X95728608Y-83413288D01*
X95517704Y-83336108D01*
X95462658Y-83315964D01*
X95462656Y-83315963D01*
X95458627Y-83314489D01*
X95177736Y-83253245D01*
X95146685Y-83250801D01*
X94954718Y-83235693D01*
X94954709Y-83235693D01*
X94952261Y-83235500D01*
X94796729Y-83235500D01*
X94794593Y-83235646D01*
X94794582Y-83235646D01*
X94586452Y-83249835D01*
X94586446Y-83249836D01*
X94582175Y-83250127D01*
X94577980Y-83250996D01*
X94577978Y-83250996D01*
X94489997Y-83269216D01*
X94300658Y-83308426D01*
X94029657Y-83404393D01*
X93774188Y-83536250D01*
X93770687Y-83538711D01*
X93770683Y-83538713D01*
X93770410Y-83538905D01*
X93538977Y-83701559D01*
X93523892Y-83715577D01*
X93394219Y-83836077D01*
X93328378Y-83897260D01*
X93146287Y-84119732D01*
X92996073Y-84364858D01*
X92880517Y-84628102D01*
X92801756Y-84904594D01*
X92798672Y-84926266D01*
X92762004Y-85183914D01*
X92761249Y-85189216D01*
X92761227Y-85193505D01*
X92761226Y-85193512D01*
X92759765Y-85472417D01*
X92759743Y-85476703D01*
X89316813Y-85476703D01*
X89385816Y-85364757D01*
X89391963Y-85351576D01*
X89443138Y-85197290D01*
X89446005Y-85183914D01*
X89455672Y-85089562D01*
X89456000Y-85083146D01*
X89456000Y-84583115D01*
X89451525Y-84567876D01*
X89450135Y-84566671D01*
X89442452Y-84565000D01*
X88370115Y-84565000D01*
X88354876Y-84569475D01*
X88353671Y-84570865D01*
X88352000Y-84578548D01*
X88352000Y-85775884D01*
X87844000Y-85775884D01*
X87844000Y-84038885D01*
X88352000Y-84038885D01*
X88356475Y-84054124D01*
X88357865Y-84055329D01*
X88365548Y-84057000D01*
X89437884Y-84057000D01*
X89453123Y-84052525D01*
X89454328Y-84051135D01*
X89455999Y-84043452D01*
X89455999Y-83538905D01*
X89455662Y-83532386D01*
X89445743Y-83436794D01*
X89442851Y-83423400D01*
X89391412Y-83269216D01*
X89385239Y-83256038D01*
X89299937Y-83118193D01*
X89290901Y-83106792D01*
X89176171Y-82992261D01*
X89164760Y-82983249D01*
X89026757Y-82898184D01*
X89013576Y-82892037D01*
X88859290Y-82840862D01*
X88845914Y-82837995D01*
X88751562Y-82828328D01*
X88745145Y-82828000D01*
X88370115Y-82828000D01*
X88354876Y-82832475D01*
X88353671Y-82833865D01*
X88352000Y-82841548D01*
X88352000Y-84038885D01*
X87844000Y-84038885D01*
X87844000Y-82846116D01*
X87839525Y-82830877D01*
X87838135Y-82829672D01*
X87830452Y-82828001D01*
X87450905Y-82828001D01*
X87444386Y-82828338D01*
X87348794Y-82838257D01*
X87335400Y-82841149D01*
X87290040Y-82856282D01*
X87219090Y-82858866D01*
X87158006Y-82822682D01*
X87126182Y-82759218D01*
X87133721Y-82688623D01*
X87161069Y-82647663D01*
X88785145Y-81023587D01*
X88847457Y-80989561D01*
X88918272Y-80994626D01*
X88954265Y-81015358D01*
X88971501Y-81029531D01*
X88971508Y-81029536D01*
X88974962Y-81032376D01*
X88978788Y-81034700D01*
X88979916Y-81035500D01*
X88984666Y-81039039D01*
X89021306Y-81067715D01*
X89031418Y-81076539D01*
X89035432Y-81080437D01*
X89055423Y-81094597D01*
X89060236Y-81098182D01*
X89077081Y-81111365D01*
X89080971Y-81113602D01*
X89084683Y-81116103D01*
X89084607Y-81116216D01*
X89092540Y-81121569D01*
X89094665Y-81123519D01*
X89098709Y-81126215D01*
X89098718Y-81126222D01*
X89120179Y-81140528D01*
X89123123Y-81142551D01*
X89141949Y-81155887D01*
X89141953Y-81155889D01*
X89145613Y-81158482D01*
X89147605Y-81159504D01*
X89149923Y-81161076D01*
X89150224Y-81161342D01*
X89178695Y-81179563D01*
X89180594Y-81180805D01*
X89206068Y-81197787D01*
X89206080Y-81197793D01*
X89207882Y-81198952D01*
X89208406Y-81199397D01*
X89211854Y-81201508D01*
X89236842Y-81216807D01*
X89238970Y-81218139D01*
X89264405Y-81234417D01*
X89264699Y-81234551D01*
X89268096Y-81236616D01*
X89270931Y-81238869D01*
X89275151Y-81241269D01*
X89275153Y-81241270D01*
X89296490Y-81253403D01*
X89299996Y-81255473D01*
X89318567Y-81266843D01*
X89318571Y-81266845D01*
X89322393Y-81269185D01*
X89325789Y-81270649D01*
X89330382Y-81273309D01*
X89331771Y-81274361D01*
X89360234Y-81289688D01*
X89362760Y-81291086D01*
X89381513Y-81301749D01*
X89388171Y-81305535D01*
X89389067Y-81305887D01*
X89390224Y-81306521D01*
X89390254Y-81306463D01*
X89421199Y-81322530D01*
X89422876Y-81323417D01*
X89450862Y-81338487D01*
X89450817Y-81338570D01*
X89453015Y-81339698D01*
X89455717Y-81341556D01*
X89482671Y-81354514D01*
X89486101Y-81356230D01*
X89509881Y-81368577D01*
X89512858Y-81369619D01*
X89518300Y-81372259D01*
X89521041Y-81374026D01*
X89525494Y-81376005D01*
X89548613Y-81386281D01*
X89552030Y-81387861D01*
X89572347Y-81397629D01*
X89572355Y-81397632D01*
X89576392Y-81399573D01*
X89579466Y-81400544D01*
X89585941Y-81403440D01*
X89589234Y-81405420D01*
X89593743Y-81407257D01*
X89593751Y-81407261D01*
X89616739Y-81416627D01*
X89620372Y-81418174D01*
X89640570Y-81427151D01*
X89640577Y-81427154D01*
X89644673Y-81428974D01*
X89647687Y-81429828D01*
X89650554Y-81431032D01*
X89650559Y-81431019D01*
X89682754Y-81443539D01*
X89684628Y-81444285D01*
X89713168Y-81455913D01*
X89712819Y-81456770D01*
X89714670Y-81457132D01*
X89714789Y-81456805D01*
X89716874Y-81457563D01*
X89716877Y-81457564D01*
X89719370Y-81458470D01*
X89719374Y-81458472D01*
X89745450Y-81467955D01*
X89748055Y-81468935D01*
X89771397Y-81478012D01*
X89771409Y-81478016D01*
X89775578Y-81479637D01*
X89776667Y-81479891D01*
X89782072Y-81481827D01*
X89783138Y-81482263D01*
X89787491Y-81484449D01*
X89792121Y-81485937D01*
X89792123Y-81485938D01*
X89813833Y-81492916D01*
X89818336Y-81494458D01*
X89841400Y-81502845D01*
X89845781Y-81503763D01*
X89847170Y-81504159D01*
X89851085Y-81505477D01*
X89851203Y-81505534D01*
X89851720Y-81505691D01*
X89851738Y-81505697D01*
X89884148Y-81515535D01*
X89886108Y-81516147D01*
X89914511Y-81525277D01*
X89914202Y-81526240D01*
X89914814Y-81526313D01*
X89915040Y-81525522D01*
X89948129Y-81534976D01*
X89950003Y-81535528D01*
X89980116Y-81544669D01*
X89980118Y-81544669D01*
X89980106Y-81544710D01*
X89984193Y-81545846D01*
X89984606Y-81545982D01*
X89989083Y-81547850D01*
X89993800Y-81549009D01*
X89993804Y-81549010D01*
X90016038Y-81554471D01*
X90020581Y-81555677D01*
X90044309Y-81562456D01*
X90048747Y-81563063D01*
X90049872Y-81563300D01*
X90053972Y-81564365D01*
X90054159Y-81564440D01*
X90054971Y-81564625D01*
X90054978Y-81564627D01*
X90068181Y-81567638D01*
X90087727Y-81572096D01*
X90089737Y-81572572D01*
X90120086Y-81580027D01*
X90120077Y-81580064D01*
X90123793Y-81580890D01*
X90127618Y-81582265D01*
X90132409Y-81583190D01*
X90132414Y-81583191D01*
X90156060Y-81587754D01*
X90160204Y-81588626D01*
X90181086Y-81593389D01*
X90181096Y-81593391D01*
X90185452Y-81594384D01*
X90189251Y-81594696D01*
X90193616Y-81595583D01*
X90194442Y-81595862D01*
X90198032Y-81596481D01*
X90198042Y-81596483D01*
X90216697Y-81599699D01*
X90227310Y-81601529D01*
X90229757Y-81601976D01*
X90259438Y-81607704D01*
X90259300Y-81608418D01*
X90260345Y-81608865D01*
X90260520Y-81607756D01*
X90294180Y-81613071D01*
X90295935Y-81613361D01*
X90327069Y-81618729D01*
X90330003Y-81619274D01*
X90334645Y-81620582D01*
X90339487Y-81621166D01*
X90339490Y-81621167D01*
X90362526Y-81623947D01*
X90367061Y-81624578D01*
X90391716Y-81628471D01*
X90396200Y-81628535D01*
X90396792Y-81628586D01*
X90405958Y-81629725D01*
X90410508Y-81630834D01*
X90438769Y-81633229D01*
X90443220Y-81633687D01*
X90463838Y-81636175D01*
X90463851Y-81636176D01*
X90468296Y-81636712D01*
X90472770Y-81636613D01*
X90472878Y-81636618D01*
X90477390Y-81637059D01*
X90477422Y-81637066D01*
X90499700Y-81638602D01*
X90512002Y-81639451D01*
X90513969Y-81639602D01*
X90543171Y-81642076D01*
X90543083Y-81643112D01*
X90544072Y-81643005D01*
X90544110Y-81642272D01*
X90552539Y-81642708D01*
X90578288Y-81644040D01*
X90580407Y-81644168D01*
X90611439Y-81646308D01*
X90611437Y-81646335D01*
X90615490Y-81646522D01*
X90619728Y-81647255D01*
X90633864Y-81647494D01*
X90638904Y-81647580D01*
X90646492Y-81647938D01*
X90650542Y-81648251D01*
X90655348Y-81649000D01*
X90670925Y-81649000D01*
X90671712Y-81649020D01*
X90671731Y-81649016D01*
X90672552Y-81649000D01*
X90674186Y-81649000D01*
X90678207Y-81649208D01*
X90678950Y-81649140D01*
X90680497Y-81649562D01*
X90680497Y-81649000D01*
X90721624Y-81649000D01*
X90723759Y-81649018D01*
X90750429Y-81649470D01*
X90750430Y-81649470D01*
X90754916Y-81649546D01*
X90756461Y-81649351D01*
X90768619Y-81649687D01*
X90768622Y-81649582D01*
X90773489Y-81649739D01*
X90778327Y-81650270D01*
X90783185Y-81650051D01*
X90783191Y-81650051D01*
X90803642Y-81649128D01*
X90809320Y-81649000D01*
X90831548Y-81649000D01*
X90835983Y-81648365D01*
X90835996Y-81648364D01*
X90837021Y-81648217D01*
X90849201Y-81647073D01*
X90915313Y-81644091D01*
X90926915Y-81644211D01*
X90928619Y-81644192D01*
X90933480Y-81644513D01*
X90938326Y-81644083D01*
X90938331Y-81644083D01*
X90959251Y-81642227D01*
X90964706Y-81641862D01*
X90982976Y-81641038D01*
X90982979Y-81641038D01*
X90987450Y-81640836D01*
X90992344Y-81639909D01*
X91004667Y-81638198D01*
X91035924Y-81635425D01*
X91068144Y-81632567D01*
X91079425Y-81632074D01*
X91083043Y-81632078D01*
X91090517Y-81632087D01*
X91109389Y-81629172D01*
X91117473Y-81628190D01*
X91120974Y-81627880D01*
X91128921Y-81627175D01*
X91128924Y-81627174D01*
X91133382Y-81626779D01*
X91144967Y-81624058D01*
X91154543Y-81622197D01*
X91216225Y-81612669D01*
X91223864Y-81611935D01*
X91223862Y-81611919D01*
X91228699Y-81611358D01*
X91233561Y-81611172D01*
X91238335Y-81610240D01*
X91238339Y-81610240D01*
X91260197Y-81605975D01*
X91265091Y-81605120D01*
X91284397Y-81602138D01*
X91284399Y-81602137D01*
X91288824Y-81601454D01*
X91293116Y-81600148D01*
X91295081Y-81599699D01*
X91304923Y-81597248D01*
X91312026Y-81595862D01*
X91365022Y-81585522D01*
X91377009Y-81583777D01*
X91385914Y-81582916D01*
X91390629Y-81581708D01*
X91390635Y-81581707D01*
X91406463Y-81577652D01*
X91413599Y-81576043D01*
X91426954Y-81573437D01*
X91431351Y-81572579D01*
X91435581Y-81571107D01*
X91435584Y-81571106D01*
X91440538Y-81569382D01*
X91450678Y-81566324D01*
X91512990Y-81550359D01*
X91525793Y-81547778D01*
X91532260Y-81546821D01*
X91536909Y-81545376D01*
X91536911Y-81545375D01*
X91554785Y-81539817D01*
X91560903Y-81538083D01*
X91580730Y-81533004D01*
X91587484Y-81530204D01*
X91598330Y-81526279D01*
X91657293Y-81507946D01*
X91669945Y-81504721D01*
X91676367Y-81503434D01*
X91698452Y-81495317D01*
X91704508Y-81493265D01*
X91719748Y-81488527D01*
X91719754Y-81488525D01*
X91724024Y-81487197D01*
X91728064Y-81485277D01*
X91728076Y-81485272D01*
X91730681Y-81484034D01*
X91741302Y-81479569D01*
X91770237Y-81468935D01*
X91802353Y-81457132D01*
X91813553Y-81453600D01*
X91823133Y-81451063D01*
X91827582Y-81449112D01*
X91827587Y-81449110D01*
X91841670Y-81442933D01*
X91848811Y-81440058D01*
X91849235Y-81439902D01*
X91864891Y-81434148D01*
X91868829Y-81432025D01*
X91868840Y-81432020D01*
X91874324Y-81429063D01*
X91883505Y-81424584D01*
X91940718Y-81399491D01*
X91951306Y-81395533D01*
X91953112Y-81394813D01*
X91957770Y-81393362D01*
X91981062Y-81381924D01*
X91985987Y-81379636D01*
X92002811Y-81372257D01*
X92002817Y-81372254D01*
X92006916Y-81370456D01*
X92011081Y-81367870D01*
X92021988Y-81361826D01*
X92076270Y-81335170D01*
X92087926Y-81330158D01*
X92090408Y-81329236D01*
X92090417Y-81329232D01*
X92094973Y-81327539D01*
X92099218Y-81325163D01*
X92099221Y-81325162D01*
X92114689Y-81316506D01*
X92120677Y-81313363D01*
X92134140Y-81306751D01*
X92138168Y-81304773D01*
X92141876Y-81302243D01*
X92145744Y-81299989D01*
X92146314Y-81300967D01*
X92212633Y-81280500D01*
X94667007Y-81280500D01*
X94735128Y-81300502D01*
X94770219Y-81334228D01*
X94791470Y-81364577D01*
X94875115Y-81484034D01*
X94878802Y-81489300D01*
X95040700Y-81651198D01*
X95045208Y-81654355D01*
X95045211Y-81654357D01*
X95123389Y-81709098D01*
X95228251Y-81782523D01*
X95233233Y-81784846D01*
X95233238Y-81784849D01*
X95430775Y-81876961D01*
X95435757Y-81879284D01*
X95441065Y-81880706D01*
X95441067Y-81880707D01*
X95651598Y-81937119D01*
X95651600Y-81937119D01*
X95656913Y-81938543D01*
X95885000Y-81958498D01*
X96113087Y-81938543D01*
X96118400Y-81937119D01*
X96118402Y-81937119D01*
X96328933Y-81880707D01*
X96328935Y-81880706D01*
X96334243Y-81879284D01*
X96339225Y-81876961D01*
X96536762Y-81784849D01*
X96536767Y-81784846D01*
X96541749Y-81782523D01*
X96646611Y-81709098D01*
X96724789Y-81654357D01*
X96724792Y-81654355D01*
X96729300Y-81651198D01*
X96891198Y-81489300D01*
X96894886Y-81484034D01*
X96956056Y-81396674D01*
X97022523Y-81301749D01*
X97024846Y-81296767D01*
X97024849Y-81296762D01*
X97116961Y-81099225D01*
X97116961Y-81099224D01*
X97119284Y-81094243D01*
X97122984Y-81080437D01*
X97177119Y-80878402D01*
X97177119Y-80878400D01*
X97178543Y-80873087D01*
X97198498Y-80645000D01*
X97178543Y-80416913D01*
X97172495Y-80394341D01*
X97120707Y-80201067D01*
X97120706Y-80201065D01*
X97119284Y-80195757D01*
X97070032Y-80090135D01*
X97024849Y-79993238D01*
X97024846Y-79993233D01*
X97022523Y-79988251D01*
X96899935Y-79813177D01*
X96894357Y-79805211D01*
X96894355Y-79805208D01*
X96891198Y-79800700D01*
X96729300Y-79638802D01*
X96724792Y-79635645D01*
X96724789Y-79635643D01*
X96564212Y-79523206D01*
X96541749Y-79507477D01*
X96536767Y-79505154D01*
X96536762Y-79505151D01*
X96339225Y-79413039D01*
X96339224Y-79413039D01*
X96334243Y-79410716D01*
X96328935Y-79409294D01*
X96328933Y-79409293D01*
X96118402Y-79352881D01*
X96118400Y-79352881D01*
X96113087Y-79351457D01*
X95885000Y-79331502D01*
X95656913Y-79351457D01*
X95651600Y-79352881D01*
X95651598Y-79352881D01*
X95441067Y-79409293D01*
X95441065Y-79409294D01*
X95435757Y-79410716D01*
X95430776Y-79413039D01*
X95430775Y-79413039D01*
X95233238Y-79505151D01*
X95233233Y-79505154D01*
X95228251Y-79507477D01*
X95205788Y-79523206D01*
X95045211Y-79635643D01*
X95045208Y-79635645D01*
X95040700Y-79638802D01*
X94878802Y-79800700D01*
X94875645Y-79805208D01*
X94875643Y-79805211D01*
X94770220Y-79955771D01*
X94714763Y-80000099D01*
X94667007Y-80009500D01*
X93577920Y-80009500D01*
X93509799Y-79989498D01*
X93463306Y-79935842D01*
X93453202Y-79865568D01*
X93461642Y-79834967D01*
X93472121Y-79809861D01*
X93477161Y-79799216D01*
X93479504Y-79794812D01*
X93479506Y-79794808D01*
X93481790Y-79790514D01*
X93488447Y-79771354D01*
X93491186Y-79764184D01*
X93496080Y-79752459D01*
X93497803Y-79748332D01*
X93500476Y-79737999D01*
X93503440Y-79728204D01*
X93524847Y-79666594D01*
X93529774Y-79654482D01*
X93530470Y-79652997D01*
X93530470Y-79652996D01*
X93532537Y-79648586D01*
X93539144Y-79625932D01*
X93541069Y-79619905D01*
X93547799Y-79600536D01*
X93548656Y-79596134D01*
X93549198Y-79593350D01*
X93551917Y-79582142D01*
X93569106Y-79523206D01*
X93573514Y-79510613D01*
X93575741Y-79505192D01*
X93581391Y-79481618D01*
X93582960Y-79475710D01*
X93587619Y-79459736D01*
X93587621Y-79459726D01*
X93588873Y-79455434D01*
X93589809Y-79448869D01*
X93592015Y-79437290D01*
X93606761Y-79375765D01*
X93610147Y-79364135D01*
X93613067Y-79355651D01*
X93616790Y-79334838D01*
X93618290Y-79327665D01*
X93621457Y-79314449D01*
X93621458Y-79314441D01*
X93622501Y-79310090D01*
X93622916Y-79305635D01*
X93622918Y-79305626D01*
X93623411Y-79300343D01*
X93624834Y-79289867D01*
X93636003Y-79227416D01*
X93639076Y-79214317D01*
X93640633Y-79208979D01*
X93643798Y-79184646D01*
X93644713Y-79178720D01*
X93647694Y-79162053D01*
X93647694Y-79162052D01*
X93648483Y-79157641D01*
X93648703Y-79151306D01*
X93649680Y-79139425D01*
X93657397Y-79080106D01*
X93659785Y-79067117D01*
X93660084Y-79065862D01*
X93661217Y-79061116D01*
X93663125Y-79037260D01*
X93663773Y-79031088D01*
X93666462Y-79010416D01*
X93666404Y-79005941D01*
X93666405Y-79005930D01*
X93666373Y-79003462D01*
X93666763Y-78991785D01*
X93671800Y-78928823D01*
X93673441Y-78916282D01*
X93674805Y-78908798D01*
X93675387Y-78886288D01*
X93675746Y-78879497D01*
X93676936Y-78864621D01*
X93677293Y-78860159D01*
X93676770Y-78851784D01*
X93676567Y-78840671D01*
X93677976Y-78786192D01*
X93678974Y-78773295D01*
X93679230Y-78771318D01*
X93679231Y-78771308D01*
X93679855Y-78766480D01*
X93679254Y-78743247D01*
X93679254Y-78736738D01*
X93679298Y-78735070D01*
X93679775Y-78716623D01*
X93678885Y-78709009D01*
X93678075Y-78697641D01*
X93676666Y-78643161D01*
X93676975Y-78630511D01*
X93677178Y-78627802D01*
X93677178Y-78627790D01*
X93677541Y-78622935D01*
X93677153Y-78618085D01*
X93677153Y-78618078D01*
X93675746Y-78600495D01*
X93675387Y-78593707D01*
X93675001Y-78578784D01*
X93675001Y-78578783D01*
X93674885Y-78574305D01*
X93674137Y-78569895D01*
X93674135Y-78569879D01*
X93673481Y-78566028D01*
X93672105Y-78554992D01*
X93667068Y-78492025D01*
X93666707Y-78478814D01*
X93666862Y-78472662D01*
X93663776Y-78448936D01*
X93663125Y-78442741D01*
X93661821Y-78426444D01*
X93661464Y-78421978D01*
X93659930Y-78415183D01*
X93657891Y-78403694D01*
X93650176Y-78344389D01*
X93649155Y-78330967D01*
X93649140Y-78330282D01*
X93649140Y-78330278D01*
X93649030Y-78325414D01*
X93648172Y-78320616D01*
X93644710Y-78301256D01*
X93643795Y-78295330D01*
X93641611Y-78278541D01*
X93641611Y-78278539D01*
X93641033Y-78274099D01*
X93639833Y-78269789D01*
X93639831Y-78269780D01*
X93639330Y-78267982D01*
X93636682Y-78256374D01*
X93625504Y-78193881D01*
X93623947Y-78181863D01*
X93623224Y-78172928D01*
X93622090Y-78168197D01*
X93622089Y-78168190D01*
X93618296Y-78152366D01*
X93616793Y-78145178D01*
X93614405Y-78131824D01*
X93614403Y-78131815D01*
X93613614Y-78127405D01*
X93610546Y-78118122D01*
X93607650Y-78107946D01*
X93594490Y-78053037D01*
X93592914Y-78046462D01*
X93590499Y-78033358D01*
X93589743Y-78027546D01*
X93582952Y-78004261D01*
X93581391Y-77998381D01*
X93576464Y-77977826D01*
X93574816Y-77973671D01*
X93574812Y-77973657D01*
X93574015Y-77971648D01*
X93570185Y-77960491D01*
X93569283Y-77957399D01*
X93552987Y-77901525D01*
X93549982Y-77888799D01*
X93549689Y-77887187D01*
X93548818Y-77882397D01*
X93541078Y-77860123D01*
X93539145Y-77854067D01*
X93533407Y-77834394D01*
X93531555Y-77830313D01*
X93531552Y-77830305D01*
X93530385Y-77827735D01*
X93526102Y-77817020D01*
X93504686Y-77755381D01*
X93501355Y-77744123D01*
X93498998Y-77734533D01*
X93497122Y-77730038D01*
X93497120Y-77730032D01*
X93491185Y-77715812D01*
X93488445Y-77708640D01*
X93484278Y-77696649D01*
X93482808Y-77692418D01*
X93477913Y-77682938D01*
X93473592Y-77673665D01*
X93449493Y-77615927D01*
X93445713Y-77605233D01*
X93445029Y-77603424D01*
X93443667Y-77598758D01*
X93441603Y-77594358D01*
X93441601Y-77594352D01*
X93432643Y-77575255D01*
X93430450Y-77570303D01*
X93421647Y-77549213D01*
X93419140Y-77545008D01*
X93413294Y-77533999D01*
X93387586Y-77479187D01*
X93382789Y-77467457D01*
X93381909Y-77464952D01*
X93381908Y-77464949D01*
X93380294Y-77460356D01*
X93369622Y-77440459D01*
X93366588Y-77434417D01*
X93360215Y-77420829D01*
X93360210Y-77420820D01*
X93358310Y-77416769D01*
X93353741Y-77409808D01*
X93348044Y-77400228D01*
X93318291Y-77344757D01*
X93312730Y-77332961D01*
X93310231Y-77326858D01*
X93298088Y-77306745D01*
X93294930Y-77301201D01*
X93287395Y-77287153D01*
X93287392Y-77287148D01*
X93285277Y-77283205D01*
X93280895Y-77277252D01*
X93274502Y-77267680D01*
X93243219Y-77215867D01*
X93236975Y-77204177D01*
X93236464Y-77203085D01*
X93236461Y-77203080D01*
X93234401Y-77198681D01*
X93231689Y-77194652D01*
X93231683Y-77194641D01*
X93220983Y-77178744D01*
X93217647Y-77173515D01*
X93206846Y-77155626D01*
X93204010Y-77152158D01*
X93204006Y-77152152D01*
X93202498Y-77150308D01*
X93195517Y-77140911D01*
X93159970Y-77088098D01*
X93153569Y-77077495D01*
X93149664Y-77070242D01*
X93136425Y-77052766D01*
X93132358Y-77047074D01*
X93121853Y-77031467D01*
X93115796Y-77024762D01*
X93108883Y-77016411D01*
X93070517Y-76965769D01*
X93063304Y-76955166D01*
X93062121Y-76953221D01*
X93059595Y-76949067D01*
X93056462Y-76945354D01*
X93056458Y-76945348D01*
X93044788Y-76931517D01*
X93040659Y-76926355D01*
X93036411Y-76920748D01*
X93028650Y-76910504D01*
X93025470Y-76907357D01*
X93025466Y-76907352D01*
X93023019Y-76904931D01*
X93015351Y-76896629D01*
X92974585Y-76848313D01*
X92966672Y-76837880D01*
X92963038Y-76832532D01*
X92946919Y-76815275D01*
X92942699Y-76810522D01*
X92932352Y-76798259D01*
X92932350Y-76798257D01*
X92929456Y-76794827D01*
X92924021Y-76789985D01*
X92915768Y-76781924D01*
X92873638Y-76736821D01*
X92865259Y-76726868D01*
X92864147Y-76725399D01*
X92861210Y-76721520D01*
X92857702Y-76718130D01*
X92844382Y-76705259D01*
X92839854Y-76700654D01*
X92829088Y-76689127D01*
X92829085Y-76689124D01*
X92826023Y-76685846D01*
X92820181Y-76681149D01*
X92811585Y-76673568D01*
X92767631Y-76631096D01*
X92758732Y-76621557D01*
X92757614Y-76620227D01*
X92757612Y-76620225D01*
X92754481Y-76616500D01*
X92736797Y-76601074D01*
X92732079Y-76596741D01*
X92720635Y-76585683D01*
X92720632Y-76585681D01*
X92717413Y-76582570D01*
X92711403Y-76578224D01*
X92702416Y-76571081D01*
X92654409Y-76529202D01*
X92645513Y-76520637D01*
X92639795Y-76514564D01*
X92635964Y-76511584D01*
X92635955Y-76511576D01*
X92622593Y-76501183D01*
X92617130Y-76496681D01*
X92606441Y-76487358D01*
X92606440Y-76487357D01*
X92603059Y-76484408D01*
X92595393Y-76479439D01*
X92586570Y-76473166D01*
X92536900Y-76434533D01*
X92526629Y-76425614D01*
X92526429Y-76425420D01*
X92526425Y-76425417D01*
X92522926Y-76422030D01*
X92518947Y-76419222D01*
X92518943Y-76419218D01*
X92502569Y-76407660D01*
X92497874Y-76404180D01*
X92484190Y-76393537D01*
X92480647Y-76390781D01*
X92476756Y-76388560D01*
X92476748Y-76388554D01*
X92475467Y-76387823D01*
X92465296Y-76381350D01*
X92415063Y-76345892D01*
X92405066Y-76338050D01*
X92404402Y-76337473D01*
X92399446Y-76333164D01*
X92395333Y-76330579D01*
X92395320Y-76330569D01*
X92380254Y-76321099D01*
X92374649Y-76317363D01*
X92362333Y-76308670D01*
X92362328Y-76308667D01*
X92358673Y-76306087D01*
X92351335Y-76302337D01*
X92341615Y-76296813D01*
X92289059Y-76263777D01*
X92278400Y-76256282D01*
X92277000Y-76255185D01*
X92273177Y-76252189D01*
X92252673Y-76240714D01*
X92247175Y-76237451D01*
X92229932Y-76226612D01*
X92225851Y-76224795D01*
X92225838Y-76224788D01*
X92223156Y-76223594D01*
X92212878Y-76218443D01*
X92157852Y-76187649D01*
X92147108Y-76180904D01*
X92140955Y-76176595D01*
X92133494Y-76172931D01*
X92120685Y-76166641D01*
X92114687Y-76163493D01*
X92097682Y-76153976D01*
X92089912Y-76150981D01*
X92079712Y-76146520D01*
X92025443Y-76119870D01*
X92015577Y-76114324D01*
X92013862Y-76113408D01*
X92009759Y-76110791D01*
X91985964Y-76100354D01*
X91981088Y-76098089D01*
X91960557Y-76088007D01*
X91955903Y-76086494D01*
X91944242Y-76082055D01*
X91937464Y-76079082D01*
X91886994Y-76056946D01*
X91876462Y-76051728D01*
X91867804Y-76046923D01*
X91848794Y-76039937D01*
X91841682Y-76037073D01*
X91825975Y-76030184D01*
X91815651Y-76027315D01*
X91805940Y-76024186D01*
X91744880Y-76001745D01*
X91732867Y-75996608D01*
X91731358Y-75995868D01*
X91726988Y-75993725D01*
X91704494Y-75986731D01*
X91698488Y-75984695D01*
X91679281Y-75977636D01*
X91674897Y-75976702D01*
X91674894Y-75976701D01*
X91672092Y-75976104D01*
X91660946Y-75973191D01*
X91601993Y-75954861D01*
X91589735Y-75950339D01*
X91588216Y-75949687D01*
X91588206Y-75949684D01*
X91583736Y-75947766D01*
X91579021Y-75946558D01*
X91579018Y-75946557D01*
X91560909Y-75941918D01*
X91554782Y-75940182D01*
X91535224Y-75934101D01*
X91528001Y-75932941D01*
X91516709Y-75930594D01*
X91467666Y-75918029D01*
X91454387Y-75914627D01*
X91442798Y-75911055D01*
X91434397Y-75908015D01*
X91413589Y-75903955D01*
X91406459Y-75902347D01*
X91403236Y-75901521D01*
X91388920Y-75897854D01*
X91379240Y-75896799D01*
X91368774Y-75895210D01*
X91313798Y-75884484D01*
X91308705Y-75883490D01*
X91301279Y-75881592D01*
X91301275Y-75881608D01*
X91296534Y-75880496D01*
X91291892Y-75879020D01*
X91265091Y-75874880D01*
X91260204Y-75874027D01*
X91236607Y-75869422D01*
X91232130Y-75869196D01*
X91230127Y-75868951D01*
X91220024Y-75867918D01*
X91158307Y-75858385D01*
X91147241Y-75856163D01*
X91143732Y-75855294D01*
X91141200Y-75854666D01*
X91141197Y-75854665D01*
X91136474Y-75853495D01*
X91131628Y-75853065D01*
X91131622Y-75853064D01*
X91117473Y-75851809D01*
X91109377Y-75850826D01*
X91098016Y-75849071D01*
X91098011Y-75849071D01*
X91093585Y-75848387D01*
X91081691Y-75848256D01*
X91071951Y-75847771D01*
X91008505Y-75842143D01*
X90997037Y-75840480D01*
X90995326Y-75840270D01*
X90990551Y-75839304D01*
X90985689Y-75839085D01*
X90985684Y-75839084D01*
X90971245Y-75838433D01*
X90964676Y-75838136D01*
X90959245Y-75837773D01*
X90945952Y-75836594D01*
X90941038Y-75836158D01*
X90941036Y-75836158D01*
X90936572Y-75835762D01*
X90932091Y-75836003D01*
X90932086Y-75836003D01*
X90931597Y-75836029D01*
X90919158Y-75836083D01*
X90861398Y-75833478D01*
X90853038Y-75833101D01*
X90839790Y-75831775D01*
X90839468Y-75831750D01*
X90834652Y-75831000D01*
X90809318Y-75831000D01*
X90803640Y-75830872D01*
X90799915Y-75830704D01*
X90781428Y-75829870D01*
X90776977Y-75830304D01*
X90776969Y-75830304D01*
X90776623Y-75830338D01*
X90773354Y-75830398D01*
X90772484Y-75830421D01*
X90772484Y-75830414D01*
X90759807Y-75830648D01*
X90758020Y-75830401D01*
X90723901Y-75830979D01*
X90723736Y-75830982D01*
X90721601Y-75831000D01*
X90690452Y-75831000D01*
X90690452Y-75830985D01*
X90685777Y-75831092D01*
X90681307Y-75830631D01*
X90659183Y-75831775D01*
X90652721Y-75832109D01*
X90648352Y-75832259D01*
X90639576Y-75832408D01*
X90622831Y-75832692D01*
X90618824Y-75833335D01*
X90614762Y-75833497D01*
X90614538Y-75833478D01*
X90613569Y-75833545D01*
X90613565Y-75833545D01*
X90580477Y-75835827D01*
X90578318Y-75835958D01*
X90551700Y-75837335D01*
X90551698Y-75837335D01*
X90551681Y-75837336D01*
X90551680Y-75837336D01*
X90549448Y-75837452D01*
X90548765Y-75837487D01*
X90548758Y-75837353D01*
X90548519Y-75837368D01*
X90548528Y-75837470D01*
X90547658Y-75837544D01*
X90547208Y-75837567D01*
X90547202Y-75837453D01*
X90547063Y-75837462D01*
X90547074Y-75837593D01*
X90513958Y-75840399D01*
X90511991Y-75840550D01*
X90488898Y-75842143D01*
X90480519Y-75842721D01*
X90480516Y-75842673D01*
X90476094Y-75843078D01*
X90471378Y-75842916D01*
X90466549Y-75843499D01*
X90466545Y-75843499D01*
X90443232Y-75846313D01*
X90438775Y-75846771D01*
X90413601Y-75848904D01*
X90409272Y-75849903D01*
X90399794Y-75851022D01*
X90399647Y-75851034D01*
X90394782Y-75851044D01*
X90389979Y-75851802D01*
X90389971Y-75851803D01*
X90367056Y-75855421D01*
X90362507Y-75856055D01*
X90356940Y-75856727D01*
X90337727Y-75859046D01*
X90333539Y-75860171D01*
X90330583Y-75860594D01*
X90330595Y-75860664D01*
X90330593Y-75860664D01*
X90295846Y-75866655D01*
X90294198Y-75866926D01*
X90287918Y-75867918D01*
X90264336Y-75871641D01*
X90264170Y-75870591D01*
X90262394Y-75871238D01*
X90262485Y-75871708D01*
X90229749Y-75878025D01*
X90227320Y-75878470D01*
X90197501Y-75883611D01*
X90197072Y-75883750D01*
X90192538Y-75884642D01*
X90188478Y-75884926D01*
X90183737Y-75886007D01*
X90183732Y-75886008D01*
X90160205Y-75891373D01*
X90156070Y-75892244D01*
X90130666Y-75897147D01*
X90127059Y-75898394D01*
X90123221Y-75899223D01*
X90123098Y-75899234D01*
X90106731Y-75903254D01*
X90089704Y-75907436D01*
X90087762Y-75907897D01*
X90057186Y-75914870D01*
X90057185Y-75914870D01*
X90057178Y-75914842D01*
X90052802Y-75915952D01*
X90052127Y-75916089D01*
X90047293Y-75916691D01*
X90042611Y-75918029D01*
X90042610Y-75918029D01*
X90020595Y-75924319D01*
X90016038Y-75925529D01*
X89992098Y-75931409D01*
X89987953Y-75933080D01*
X89987124Y-75933347D01*
X89983177Y-75934417D01*
X89983087Y-75934430D01*
X89982724Y-75934540D01*
X89982721Y-75934541D01*
X89950153Y-75944427D01*
X89948171Y-75945011D01*
X89919501Y-75953203D01*
X89919225Y-75952236D01*
X89918733Y-75952485D01*
X89918990Y-75953284D01*
X89886145Y-75963841D01*
X89884191Y-75964452D01*
X89854174Y-75973564D01*
X89854164Y-75973530D01*
X89850019Y-75974898D01*
X89849102Y-75975153D01*
X89844317Y-75976095D01*
X89818341Y-75985540D01*
X89813859Y-75987075D01*
X89797688Y-75992274D01*
X89790447Y-75994601D01*
X89786413Y-75996566D01*
X89784917Y-75997167D01*
X89779943Y-75998914D01*
X89778471Y-75999238D01*
X89773933Y-76001003D01*
X89748067Y-76011062D01*
X89745458Y-76012043D01*
X89721305Y-76020826D01*
X89717705Y-76022135D01*
X89717287Y-76022359D01*
X89716653Y-76022601D01*
X89716676Y-76022658D01*
X89684616Y-76035719D01*
X89682747Y-76036463D01*
X89653454Y-76047855D01*
X89653430Y-76047793D01*
X89650808Y-76048875D01*
X89647510Y-76049766D01*
X89620382Y-76061823D01*
X89616747Y-76063371D01*
X89592109Y-76073408D01*
X89589003Y-76075224D01*
X89582526Y-76078073D01*
X89579189Y-76079082D01*
X89574810Y-76081187D01*
X89574803Y-76081190D01*
X89552008Y-76092149D01*
X89548595Y-76093728D01*
X89523878Y-76104713D01*
X89521384Y-76106278D01*
X89515918Y-76108888D01*
X89512636Y-76109992D01*
X89504293Y-76114324D01*
X89486097Y-76123771D01*
X89482635Y-76125501D01*
X89462554Y-76135156D01*
X89462547Y-76135160D01*
X89458514Y-76137099D01*
X89456024Y-76138768D01*
X89453578Y-76140004D01*
X89453597Y-76140040D01*
X89453595Y-76140041D01*
X89422852Y-76156595D01*
X89421308Y-76157412D01*
X89394771Y-76171191D01*
X89393007Y-76172107D01*
X89392949Y-76171996D01*
X89392046Y-76172485D01*
X89390870Y-76172931D01*
X89386640Y-76175336D01*
X89386630Y-76175341D01*
X89362748Y-76188921D01*
X89360208Y-76190327D01*
X89334504Y-76204168D01*
X89333394Y-76204988D01*
X89328686Y-76207675D01*
X89325041Y-76209194D01*
X89299953Y-76224554D01*
X89296479Y-76226604D01*
X89273629Y-76239597D01*
X89270998Y-76241635D01*
X89267724Y-76243598D01*
X89267019Y-76243909D01*
X89264249Y-76245682D01*
X89264237Y-76245689D01*
X89238947Y-76261875D01*
X89236818Y-76263208D01*
X89211054Y-76278982D01*
X89210815Y-76279180D01*
X89209020Y-76280320D01*
X89208650Y-76280491D01*
X89180596Y-76299194D01*
X89178624Y-76300482D01*
X89152838Y-76316985D01*
X89152835Y-76316980D01*
X89150443Y-76318581D01*
X89148146Y-76319724D01*
X89124665Y-76336357D01*
X89123089Y-76337473D01*
X89120180Y-76339472D01*
X89097248Y-76354760D01*
X89095424Y-76356393D01*
X89087716Y-76361491D01*
X89087825Y-76361654D01*
X89083773Y-76364348D01*
X89079525Y-76366722D01*
X89075698Y-76369717D01*
X89075692Y-76369721D01*
X89060228Y-76381824D01*
X89055422Y-76385403D01*
X89037965Y-76397769D01*
X89034708Y-76400856D01*
X89034698Y-76400864D01*
X89033334Y-76402157D01*
X89024314Y-76409931D01*
X88986881Y-76439225D01*
X88981536Y-76443184D01*
X88977360Y-76445652D01*
X88973604Y-76448741D01*
X88973603Y-76448741D01*
X88952655Y-76465965D01*
X88950289Y-76467863D01*
X88927517Y-76485685D01*
X88926441Y-76486806D01*
X88922018Y-76490479D01*
X88920114Y-76491928D01*
X88916016Y-76494574D01*
X88896932Y-76511576D01*
X88895799Y-76512585D01*
X88892020Y-76515820D01*
X88873501Y-76531047D01*
X88870704Y-76534108D01*
X88851392Y-76549130D01*
X88844306Y-76553601D01*
X88844304Y-76553603D01*
X88836715Y-76558391D01*
X88830774Y-76565118D01*
X88811651Y-76586771D01*
X88807498Y-76591249D01*
X88807463Y-76591285D01*
X88804121Y-76594262D01*
X88785515Y-76616318D01*
X88783754Y-76618359D01*
X88740199Y-76667674D01*
X88737702Y-76672993D01*
X88733914Y-76677483D01*
X88730283Y-76685695D01*
X88730282Y-76685697D01*
X88707353Y-76737559D01*
X88706172Y-76740152D01*
X88678236Y-76799653D01*
X88677332Y-76805458D01*
X88674956Y-76810832D01*
X88673776Y-76819730D01*
X88673776Y-76819731D01*
X88666321Y-76875961D01*
X88665914Y-76878783D01*
X88663136Y-76896629D01*
X88661000Y-76910348D01*
X88661000Y-76914868D01*
X88660383Y-76920748D01*
X88658956Y-76931517D01*
X88655794Y-76955368D01*
X88657159Y-76964238D01*
X88657159Y-76964240D01*
X88659534Y-76979672D01*
X88661000Y-76998836D01*
X88661000Y-77377597D01*
X88640998Y-77445718D01*
X88587342Y-77492211D01*
X88517068Y-77502315D01*
X88469165Y-77485030D01*
X88321183Y-77394346D01*
X88316963Y-77391760D01*
X88312393Y-77389867D01*
X88312389Y-77389865D01*
X88102167Y-77302789D01*
X88102165Y-77302788D01*
X88097594Y-77300895D01*
X88017391Y-77281640D01*
X87871524Y-77246620D01*
X87871518Y-77246619D01*
X87866711Y-77245465D01*
X87630000Y-77226835D01*
X87393289Y-77245465D01*
X87388482Y-77246619D01*
X87388476Y-77246620D01*
X87242609Y-77281640D01*
X87162406Y-77300895D01*
X87157835Y-77302788D01*
X87157833Y-77302789D01*
X86947611Y-77389865D01*
X86947607Y-77389867D01*
X86943037Y-77391760D01*
X86938817Y-77394346D01*
X86744798Y-77513241D01*
X86744792Y-77513245D01*
X86740584Y-77515824D01*
X86560031Y-77670031D01*
X86405824Y-77850584D01*
X86403245Y-77854792D01*
X86403241Y-77854798D01*
X86313440Y-78001340D01*
X86281760Y-78053037D01*
X86279867Y-78057607D01*
X86279865Y-78057611D01*
X86195105Y-78262241D01*
X86190895Y-78272406D01*
X86184675Y-78298314D01*
X86138168Y-78492032D01*
X86135465Y-78503289D01*
X86116835Y-78740000D01*
X86135465Y-78976711D01*
X86136619Y-78981518D01*
X86136620Y-78981524D01*
X86158713Y-79073547D01*
X86190895Y-79207594D01*
X86192788Y-79212165D01*
X86192789Y-79212167D01*
X86275993Y-79413039D01*
X86281760Y-79426963D01*
X86284346Y-79431183D01*
X86403241Y-79625202D01*
X86403245Y-79625208D01*
X86405824Y-79629416D01*
X86527066Y-79771372D01*
X86552115Y-79800700D01*
X86560031Y-79809969D01*
X86740584Y-79964176D01*
X86744792Y-79966755D01*
X86744798Y-79966759D01*
X86938817Y-80085654D01*
X86943037Y-80088240D01*
X86947607Y-80090133D01*
X86947611Y-80090135D01*
X87157833Y-80177211D01*
X87162406Y-80179105D01*
X87231767Y-80195757D01*
X87388476Y-80233380D01*
X87388482Y-80233381D01*
X87393289Y-80234535D01*
X87476284Y-80241067D01*
X87542625Y-80266353D01*
X87584765Y-80323491D01*
X87589324Y-80394341D01*
X87555493Y-80455774D01*
X85204517Y-82806750D01*
X85196191Y-82814326D01*
X85189697Y-82818447D01*
X85168004Y-82841548D01*
X85142915Y-82868265D01*
X85140160Y-82871107D01*
X85120361Y-82890906D01*
X85117859Y-82894132D01*
X85110153Y-82903153D01*
X85107268Y-82906225D01*
X85061703Y-82937161D01*
X84991779Y-82964776D01*
X84987220Y-82967543D01*
X84987217Y-82967544D01*
X84888832Y-83027246D01*
X84794683Y-83084377D01*
X84790653Y-83087874D01*
X84697484Y-83168722D01*
X84620555Y-83235477D01*
X84617168Y-83239608D01*
X84477760Y-83409627D01*
X84477756Y-83409633D01*
X84474376Y-83413755D01*
X84456448Y-83445250D01*
X84405368Y-83494555D01*
X84335738Y-83508417D01*
X84269667Y-83482434D01*
X84242427Y-83453284D01*
X84210835Y-83406359D01*
X84160559Y-83331681D01*
X84001424Y-83164865D01*
X83816458Y-83027246D01*
X83811707Y-83024830D01*
X83811703Y-83024828D01*
X83689731Y-82962815D01*
X83610949Y-82922760D01*
X83605855Y-82921178D01*
X83605852Y-82921177D01*
X83405178Y-82858866D01*
X83390773Y-82854393D01*
X83385484Y-82853692D01*
X83167511Y-82824802D01*
X83167506Y-82824802D01*
X83162226Y-82824102D01*
X83156897Y-82824302D01*
X83156895Y-82824302D01*
X83058368Y-82828001D01*
X82931842Y-82832751D01*
X82926623Y-82833846D01*
X82906849Y-82837995D01*
X82706209Y-82880093D01*
X82701250Y-82882051D01*
X82701248Y-82882052D01*
X82496744Y-82962815D01*
X82496742Y-82962816D01*
X82491779Y-82964776D01*
X82487220Y-82967543D01*
X82487217Y-82967544D01*
X82388832Y-83027246D01*
X82294683Y-83084377D01*
X82290653Y-83087874D01*
X82197484Y-83168722D01*
X82120555Y-83235477D01*
X82117168Y-83239608D01*
X81977760Y-83409627D01*
X81977756Y-83409633D01*
X81974376Y-83413755D01*
X81971738Y-83418390D01*
X81971735Y-83418394D01*
X81928382Y-83494555D01*
X81860325Y-83614114D01*
X81781663Y-83830825D01*
X81780714Y-83836074D01*
X81780713Y-83836077D01*
X81741377Y-84053608D01*
X81741376Y-84053615D01*
X81740639Y-84057692D01*
X81739500Y-84081844D01*
X81739500Y-84493890D01*
X79883500Y-84493890D01*
X79883500Y-72268703D01*
X80821743Y-72268703D01*
X80859268Y-72553734D01*
X80935129Y-72831036D01*
X81047923Y-73095476D01*
X81195561Y-73342161D01*
X81375313Y-73566528D01*
X81583851Y-73764423D01*
X81817317Y-73932186D01*
X81821112Y-73934195D01*
X81821113Y-73934196D01*
X81842869Y-73945715D01*
X82071392Y-74066712D01*
X82341373Y-74165511D01*
X82622264Y-74226755D01*
X82650841Y-74229004D01*
X82845282Y-74244307D01*
X82845291Y-74244307D01*
X82847739Y-74244500D01*
X83003271Y-74244500D01*
X83005407Y-74244354D01*
X83005418Y-74244354D01*
X83213548Y-74230165D01*
X83213554Y-74230164D01*
X83217825Y-74229873D01*
X83222020Y-74229004D01*
X83222022Y-74229004D01*
X83358583Y-74200724D01*
X83499342Y-74171574D01*
X83770343Y-74075607D01*
X84025812Y-73943750D01*
X84029313Y-73941289D01*
X84029317Y-73941287D01*
X84143417Y-73861096D01*
X84261023Y-73778441D01*
X84471622Y-73582740D01*
X84653713Y-73360268D01*
X84803927Y-73115142D01*
X84919483Y-72851898D01*
X84998244Y-72575406D01*
X85038751Y-72290784D01*
X85038845Y-72272951D01*
X85040235Y-72007583D01*
X85040235Y-72007576D01*
X85040257Y-72003297D01*
X85002732Y-71718266D01*
X84962462Y-71571062D01*
X95163493Y-71571062D01*
X95172789Y-71583077D01*
X95223994Y-71618931D01*
X95233489Y-71624414D01*
X95430947Y-71716490D01*
X95441239Y-71720236D01*
X95651688Y-71776625D01*
X95662481Y-71778528D01*
X95879525Y-71797517D01*
X95890475Y-71797517D01*
X96107519Y-71778528D01*
X96118312Y-71776625D01*
X96328761Y-71720236D01*
X96339053Y-71716490D01*
X96536511Y-71624414D01*
X96546006Y-71618931D01*
X96598048Y-71582491D01*
X96606424Y-71572012D01*
X96599356Y-71558566D01*
X95897812Y-70857022D01*
X95883868Y-70849408D01*
X95882035Y-70849539D01*
X95875420Y-70853790D01*
X95169923Y-71559287D01*
X95163493Y-71571062D01*
X84962462Y-71571062D01*
X84926871Y-71440964D01*
X84826831Y-71206424D01*
X84815763Y-71180476D01*
X84815761Y-71180472D01*
X84814077Y-71176524D01*
X84739527Y-71051960D01*
X84668643Y-70933521D01*
X84668640Y-70933517D01*
X84666439Y-70929839D01*
X84486687Y-70705472D01*
X84310472Y-70538250D01*
X84281258Y-70510527D01*
X84281255Y-70510525D01*
X84278149Y-70507577D01*
X84254349Y-70490475D01*
X94572483Y-70490475D01*
X94591472Y-70707519D01*
X94593375Y-70718312D01*
X94649764Y-70928761D01*
X94653510Y-70939053D01*
X94745586Y-71136511D01*
X94751069Y-71146006D01*
X94787509Y-71198048D01*
X94797988Y-71206424D01*
X94811434Y-71199356D01*
X95512978Y-70497812D01*
X95519356Y-70486132D01*
X96249408Y-70486132D01*
X96249539Y-70487965D01*
X96253790Y-70494580D01*
X96959287Y-71200077D01*
X96971062Y-71206507D01*
X96983077Y-71197211D01*
X97018931Y-71146006D01*
X97024414Y-71136511D01*
X97116490Y-70939053D01*
X97120236Y-70928761D01*
X97176625Y-70718312D01*
X97178528Y-70707519D01*
X97197517Y-70490475D01*
X97197517Y-70479525D01*
X97178528Y-70262481D01*
X97176625Y-70251688D01*
X97120236Y-70041239D01*
X97116490Y-70030947D01*
X97024414Y-69833489D01*
X97018931Y-69823994D01*
X96982491Y-69771952D01*
X96972012Y-69763576D01*
X96958566Y-69770644D01*
X96257022Y-70472188D01*
X96249408Y-70486132D01*
X95519356Y-70486132D01*
X95520592Y-70483868D01*
X95520461Y-70482035D01*
X95516210Y-70475420D01*
X94810713Y-69769923D01*
X94798938Y-69763493D01*
X94786923Y-69772789D01*
X94751069Y-69823994D01*
X94745586Y-69833489D01*
X94653510Y-70030947D01*
X94649764Y-70041239D01*
X94593375Y-70251688D01*
X94591472Y-70262481D01*
X94572483Y-70479525D01*
X94572483Y-70490475D01*
X84254349Y-70490475D01*
X84044683Y-70339814D01*
X84022843Y-70328250D01*
X83924964Y-70276426D01*
X83790608Y-70205288D01*
X83655617Y-70155888D01*
X83524658Y-70107964D01*
X83524656Y-70107963D01*
X83520627Y-70106489D01*
X83239736Y-70045245D01*
X83208685Y-70042801D01*
X83016718Y-70027693D01*
X83016709Y-70027693D01*
X83014261Y-70027500D01*
X82858729Y-70027500D01*
X82856593Y-70027646D01*
X82856582Y-70027646D01*
X82648452Y-70041835D01*
X82648446Y-70041836D01*
X82644175Y-70042127D01*
X82639980Y-70042996D01*
X82639978Y-70042996D01*
X82589459Y-70053458D01*
X82362658Y-70100426D01*
X82091657Y-70196393D01*
X81836188Y-70328250D01*
X81832687Y-70330711D01*
X81832683Y-70330713D01*
X81822594Y-70337804D01*
X81600977Y-70493559D01*
X81390378Y-70689260D01*
X81208287Y-70911732D01*
X81058073Y-71156858D01*
X80942517Y-71420102D01*
X80863756Y-71696594D01*
X80823249Y-71981216D01*
X80823227Y-71985505D01*
X80823226Y-71985512D01*
X80821765Y-72264417D01*
X80821743Y-72268703D01*
X79883500Y-72268703D01*
X79883500Y-70538250D01*
X79885246Y-70517345D01*
X79887770Y-70502342D01*
X79888576Y-70497552D01*
X79888729Y-70485000D01*
X79887334Y-70475260D01*
X79886450Y-70447515D01*
X79899915Y-70276426D01*
X79903008Y-70256897D01*
X79949536Y-70063097D01*
X79955646Y-70044294D01*
X80031916Y-69860160D01*
X80040893Y-69842543D01*
X80145027Y-69672613D01*
X80156648Y-69656618D01*
X80286085Y-69505066D01*
X80300066Y-69491085D01*
X80451618Y-69361648D01*
X80467613Y-69350027D01*
X80637543Y-69245893D01*
X80655160Y-69236916D01*
X80839294Y-69160646D01*
X80858097Y-69154536D01*
X81051897Y-69108008D01*
X81071426Y-69104915D01*
X81238987Y-69091728D01*
X81255875Y-69092370D01*
X81255877Y-69092200D01*
X81264853Y-69092310D01*
X81273724Y-69093691D01*
X81282626Y-69092527D01*
X81282628Y-69092527D01*
X81300864Y-69090142D01*
X81305286Y-69089564D01*
X81321621Y-69088500D01*
X95216463Y-69088500D01*
X95284584Y-69108502D01*
G37*
G04 #@! TD.AperFunction*
M02*
