%FSLAX45Y45*%
G04 Gerber Fmt 4.5, Leading zero omitted, Abs format (unit mm)*
G04 Created by KiCad (PCBNEW 6.0.4-6f826c9f35~116~ubuntu20.04.1) date 2022-05-16 21:48:50*
%MOMM*%
%LPD*%
G01*
G04 APERTURE LIST*
%TA.AperFunction,Profile*%
%ADD10C,0.050000*%
%TD*%
%ADD11C,0.200000*%
%ADD12C,0.080000*%
%ADD13C,0.095000*%
%ADD14C,0.100000*%
G04 APERTURE END LIST*
D10*
X8128000Y-6858000D02*
X9652000Y-6858000D01*
X9652000Y-8890000D02*
G75*
G03*
X9842500Y-8699500I0J190500D01*
G01*
X7937500Y-7048500D02*
X7937500Y-8699500D01*
X7937500Y-8699500D02*
G75*
G03*
X8128000Y-8890000I190500J0D01*
G01*
X8128000Y-8890000D02*
X9652000Y-8890000D01*
X9842500Y-8699500D02*
X9842500Y-7048500D01*
X9842500Y-7048500D02*
G75*
G03*
X9652000Y-6858000I-190500J0D01*
G01*
X8128000Y-6858000D02*
G75*
G03*
X7937500Y-7048500I0J-190500D01*
G01*
D11*
D12*
X9548500Y-7008500D02*
X9628500Y-7088500D01*
X9628500Y-7008500D02*
X9548500Y-7088500D01*
X9548500Y-8024500D02*
X9628500Y-8104500D01*
X9628500Y-8024500D02*
X9548500Y-8104500D01*
D13*
X8357300Y-8431100D02*
G75*
G03*
X8357300Y-8431100I-47500J0D01*
G01*
X8607300Y-8431100D02*
G75*
G03*
X8607300Y-8431100I-47500J0D01*
G01*
X8857300Y-8431100D02*
G75*
G03*
X8857300Y-8431100I-47500J0D01*
G01*
D14*
X8763000Y-7824000D02*
X8763000Y-7924000D01*
X8713000Y-7874000D02*
X8813000Y-7874000D01*
X9017000Y-7824000D02*
X9017000Y-7924000D01*
X8967000Y-7874000D02*
X9067000Y-7874000D01*
D11*
X8192619Y-9202976D02*
X8192619Y-9002976D01*
X8240238Y-9002976D01*
X8268809Y-9012500D01*
X8287857Y-9031548D01*
X8297381Y-9050595D01*
X8306905Y-9088690D01*
X8306905Y-9117262D01*
X8297381Y-9155357D01*
X8287857Y-9174405D01*
X8268809Y-9193452D01*
X8240238Y-9202976D01*
X8192619Y-9202976D01*
X8392619Y-9202976D02*
X8392619Y-9069643D01*
X8392619Y-9107738D02*
X8402143Y-9088690D01*
X8411667Y-9079167D01*
X8430714Y-9069643D01*
X8449762Y-9069643D01*
X8516429Y-9202976D02*
X8516429Y-9069643D01*
X8516429Y-9002976D02*
X8506905Y-9012500D01*
X8516429Y-9022024D01*
X8525952Y-9012500D01*
X8516429Y-9002976D01*
X8516429Y-9022024D01*
X8640238Y-9202976D02*
X8621190Y-9193452D01*
X8611667Y-9174405D01*
X8611667Y-9002976D01*
X8745000Y-9202976D02*
X8725952Y-9193452D01*
X8716429Y-9174405D01*
X8716429Y-9002976D01*
X8973571Y-9202976D02*
X8973571Y-9002976D01*
X9040238Y-9145833D01*
X9106905Y-9002976D01*
X9106905Y-9202976D01*
X9287857Y-9202976D02*
X9287857Y-9098214D01*
X9278333Y-9079167D01*
X9259286Y-9069643D01*
X9221190Y-9069643D01*
X9202143Y-9079167D01*
X9287857Y-9193452D02*
X9268810Y-9202976D01*
X9221190Y-9202976D01*
X9202143Y-9193452D01*
X9192619Y-9174405D01*
X9192619Y-9155357D01*
X9202143Y-9136310D01*
X9221190Y-9126786D01*
X9268810Y-9126786D01*
X9287857Y-9117262D01*
X9383095Y-9069643D02*
X9383095Y-9269643D01*
X9383095Y-9079167D02*
X9402143Y-9069643D01*
X9440238Y-9069643D01*
X9459286Y-9079167D01*
X9468810Y-9088690D01*
X9478333Y-9107738D01*
X9478333Y-9164881D01*
X9468810Y-9183929D01*
X9459286Y-9193452D01*
X9440238Y-9202976D01*
X9402143Y-9202976D01*
X9383095Y-9193452D01*
X9564048Y-9183929D02*
X9573571Y-9193452D01*
X9564048Y-9202976D01*
X9554524Y-9193452D01*
X9564048Y-9183929D01*
X9564048Y-9202976D01*
X9564048Y-9079167D02*
X9573571Y-9088690D01*
X9564048Y-9098214D01*
X9554524Y-9088690D01*
X9564048Y-9079167D01*
X9564048Y-9098214D01*
D12*
X7855000Y-9492500D02*
X7935000Y-9572500D01*
X7935000Y-9492500D02*
X7855000Y-9572500D01*
D11*
X8230714Y-9422976D02*
X8249762Y-9422976D01*
X8268809Y-9432500D01*
X8278333Y-9442024D01*
X8287857Y-9461071D01*
X8297381Y-9499167D01*
X8297381Y-9546786D01*
X8287857Y-9584881D01*
X8278333Y-9603929D01*
X8268809Y-9613452D01*
X8249762Y-9622976D01*
X8230714Y-9622976D01*
X8211667Y-9613452D01*
X8202143Y-9603929D01*
X8192619Y-9584881D01*
X8183095Y-9546786D01*
X8183095Y-9499167D01*
X8192619Y-9461071D01*
X8202143Y-9442024D01*
X8211667Y-9432500D01*
X8230714Y-9422976D01*
X8383095Y-9603929D02*
X8392619Y-9613452D01*
X8383095Y-9622976D01*
X8373571Y-9613452D01*
X8383095Y-9603929D01*
X8383095Y-9622976D01*
X8506905Y-9508690D02*
X8487857Y-9499167D01*
X8478333Y-9489643D01*
X8468810Y-9470595D01*
X8468810Y-9461071D01*
X8478333Y-9442024D01*
X8487857Y-9432500D01*
X8506905Y-9422976D01*
X8545000Y-9422976D01*
X8564048Y-9432500D01*
X8573571Y-9442024D01*
X8583095Y-9461071D01*
X8583095Y-9470595D01*
X8573571Y-9489643D01*
X8564048Y-9499167D01*
X8545000Y-9508690D01*
X8506905Y-9508690D01*
X8487857Y-9518214D01*
X8478333Y-9527738D01*
X8468810Y-9546786D01*
X8468810Y-9584881D01*
X8478333Y-9603929D01*
X8487857Y-9613452D01*
X8506905Y-9622976D01*
X8545000Y-9622976D01*
X8564048Y-9613452D01*
X8573571Y-9603929D01*
X8583095Y-9584881D01*
X8583095Y-9546786D01*
X8573571Y-9527738D01*
X8564048Y-9518214D01*
X8545000Y-9508690D01*
X8706905Y-9422976D02*
X8725952Y-9422976D01*
X8745000Y-9432500D01*
X8754524Y-9442024D01*
X8764048Y-9461071D01*
X8773571Y-9499167D01*
X8773571Y-9546786D01*
X8764048Y-9584881D01*
X8754524Y-9603929D01*
X8745000Y-9613452D01*
X8725952Y-9622976D01*
X8706905Y-9622976D01*
X8687857Y-9613452D01*
X8678333Y-9603929D01*
X8668810Y-9584881D01*
X8659286Y-9546786D01*
X8659286Y-9499167D01*
X8668810Y-9461071D01*
X8678333Y-9442024D01*
X8687857Y-9432500D01*
X8706905Y-9422976D01*
X8897381Y-9422976D02*
X8916429Y-9422976D01*
X8935476Y-9432500D01*
X8945000Y-9442024D01*
X8954524Y-9461071D01*
X8964048Y-9499167D01*
X8964048Y-9546786D01*
X8954524Y-9584881D01*
X8945000Y-9603929D01*
X8935476Y-9613452D01*
X8916429Y-9622976D01*
X8897381Y-9622976D01*
X8878333Y-9613452D01*
X8868810Y-9603929D01*
X8859286Y-9584881D01*
X8849762Y-9546786D01*
X8849762Y-9499167D01*
X8859286Y-9461071D01*
X8868810Y-9442024D01*
X8878333Y-9432500D01*
X8897381Y-9422976D01*
X9049762Y-9622976D02*
X9049762Y-9489643D01*
X9049762Y-9508690D02*
X9059286Y-9499167D01*
X9078333Y-9489643D01*
X9106905Y-9489643D01*
X9125952Y-9499167D01*
X9135476Y-9518214D01*
X9135476Y-9622976D01*
X9135476Y-9518214D02*
X9145000Y-9499167D01*
X9164048Y-9489643D01*
X9192619Y-9489643D01*
X9211667Y-9499167D01*
X9221190Y-9518214D01*
X9221190Y-9622976D01*
X9316429Y-9622976D02*
X9316429Y-9489643D01*
X9316429Y-9508690D02*
X9325952Y-9499167D01*
X9345000Y-9489643D01*
X9373571Y-9489643D01*
X9392619Y-9499167D01*
X9402143Y-9518214D01*
X9402143Y-9622976D01*
X9402143Y-9518214D02*
X9411667Y-9499167D01*
X9430714Y-9489643D01*
X9459286Y-9489643D01*
X9478333Y-9499167D01*
X9487857Y-9518214D01*
X9487857Y-9622976D01*
X9878333Y-9413452D02*
X9706905Y-9670595D01*
X10135476Y-9422976D02*
X10154524Y-9422976D01*
X10173571Y-9432500D01*
X10183095Y-9442024D01*
X10192619Y-9461071D01*
X10202143Y-9499167D01*
X10202143Y-9546786D01*
X10192619Y-9584881D01*
X10183095Y-9603929D01*
X10173571Y-9613452D01*
X10154524Y-9622976D01*
X10135476Y-9622976D01*
X10116429Y-9613452D01*
X10106905Y-9603929D01*
X10097381Y-9584881D01*
X10087857Y-9546786D01*
X10087857Y-9499167D01*
X10097381Y-9461071D01*
X10106905Y-9442024D01*
X10116429Y-9432500D01*
X10135476Y-9422976D01*
X10287857Y-9603929D02*
X10297381Y-9613452D01*
X10287857Y-9622976D01*
X10278333Y-9613452D01*
X10287857Y-9603929D01*
X10287857Y-9622976D01*
X10421190Y-9422976D02*
X10440238Y-9422976D01*
X10459286Y-9432500D01*
X10468810Y-9442024D01*
X10478333Y-9461071D01*
X10487857Y-9499167D01*
X10487857Y-9546786D01*
X10478333Y-9584881D01*
X10468810Y-9603929D01*
X10459286Y-9613452D01*
X10440238Y-9622976D01*
X10421190Y-9622976D01*
X10402143Y-9613452D01*
X10392619Y-9603929D01*
X10383095Y-9584881D01*
X10373571Y-9546786D01*
X10373571Y-9499167D01*
X10383095Y-9461071D01*
X10392619Y-9442024D01*
X10402143Y-9432500D01*
X10421190Y-9422976D01*
X10554524Y-9422976D02*
X10678333Y-9422976D01*
X10611667Y-9499167D01*
X10640238Y-9499167D01*
X10659286Y-9508690D01*
X10668810Y-9518214D01*
X10678333Y-9537262D01*
X10678333Y-9584881D01*
X10668810Y-9603929D01*
X10659286Y-9613452D01*
X10640238Y-9622976D01*
X10583095Y-9622976D01*
X10564048Y-9613452D01*
X10554524Y-9603929D01*
X10868810Y-9622976D02*
X10754524Y-9622976D01*
X10811667Y-9622976D02*
X10811667Y-9422976D01*
X10792619Y-9451548D01*
X10773571Y-9470595D01*
X10754524Y-9480119D01*
X11049762Y-9422976D02*
X10954524Y-9422976D01*
X10945000Y-9518214D01*
X10954524Y-9508690D01*
X10973571Y-9499167D01*
X11021190Y-9499167D01*
X11040238Y-9508690D01*
X11049762Y-9518214D01*
X11059286Y-9537262D01*
X11059286Y-9584881D01*
X11049762Y-9603929D01*
X11040238Y-9613452D01*
X11021190Y-9622976D01*
X10973571Y-9622976D01*
X10954524Y-9613452D01*
X10945000Y-9603929D01*
X11135476Y-9422976D02*
X11135476Y-9461071D01*
X11211667Y-9422976D02*
X11211667Y-9461071D01*
X11506905Y-9699167D02*
X11497381Y-9689643D01*
X11478333Y-9661071D01*
X11468809Y-9642024D01*
X11459286Y-9613452D01*
X11449762Y-9565833D01*
X11449762Y-9527738D01*
X11459286Y-9480119D01*
X11468809Y-9451548D01*
X11478333Y-9432500D01*
X11497381Y-9403929D01*
X11506905Y-9394405D01*
X11573571Y-9442024D02*
X11583095Y-9432500D01*
X11602143Y-9422976D01*
X11649762Y-9422976D01*
X11668809Y-9432500D01*
X11678333Y-9442024D01*
X11687857Y-9461071D01*
X11687857Y-9480119D01*
X11678333Y-9508690D01*
X11564048Y-9622976D01*
X11687857Y-9622976D01*
X11925952Y-9622976D02*
X11925952Y-9422976D01*
X12011667Y-9622976D02*
X12011667Y-9518214D01*
X12002143Y-9499167D01*
X11983095Y-9489643D01*
X11954524Y-9489643D01*
X11935476Y-9499167D01*
X11925952Y-9508690D01*
X12135476Y-9622976D02*
X12116428Y-9613452D01*
X12106905Y-9603929D01*
X12097381Y-9584881D01*
X12097381Y-9527738D01*
X12106905Y-9508690D01*
X12116428Y-9499167D01*
X12135476Y-9489643D01*
X12164048Y-9489643D01*
X12183095Y-9499167D01*
X12192619Y-9508690D01*
X12202143Y-9527738D01*
X12202143Y-9584881D01*
X12192619Y-9603929D01*
X12183095Y-9613452D01*
X12164048Y-9622976D01*
X12135476Y-9622976D01*
X12316428Y-9622976D02*
X12297381Y-9613452D01*
X12287857Y-9594405D01*
X12287857Y-9422976D01*
X12468809Y-9613452D02*
X12449762Y-9622976D01*
X12411667Y-9622976D01*
X12392619Y-9613452D01*
X12383095Y-9594405D01*
X12383095Y-9518214D01*
X12392619Y-9499167D01*
X12411667Y-9489643D01*
X12449762Y-9489643D01*
X12468809Y-9499167D01*
X12478333Y-9518214D01*
X12478333Y-9537262D01*
X12383095Y-9556310D01*
X12554524Y-9613452D02*
X12573571Y-9622976D01*
X12611667Y-9622976D01*
X12630714Y-9613452D01*
X12640238Y-9594405D01*
X12640238Y-9584881D01*
X12630714Y-9565833D01*
X12611667Y-9556310D01*
X12583095Y-9556310D01*
X12564048Y-9546786D01*
X12554524Y-9527738D01*
X12554524Y-9518214D01*
X12564048Y-9499167D01*
X12583095Y-9489643D01*
X12611667Y-9489643D01*
X12630714Y-9499167D01*
X12706905Y-9699167D02*
X12716428Y-9689643D01*
X12735476Y-9661071D01*
X12745000Y-9642024D01*
X12754524Y-9613452D01*
X12764048Y-9565833D01*
X12764048Y-9527738D01*
X12754524Y-9480119D01*
X12745000Y-9451548D01*
X12735476Y-9432500D01*
X12716428Y-9403929D01*
X12706905Y-9394405D01*
D13*
X7935000Y-9796500D02*
G75*
G03*
X7935000Y-9796500I-47500J0D01*
G01*
D11*
X8230714Y-9686976D02*
X8249762Y-9686976D01*
X8268809Y-9696500D01*
X8278333Y-9706024D01*
X8287857Y-9725071D01*
X8297381Y-9763167D01*
X8297381Y-9810786D01*
X8287857Y-9848881D01*
X8278333Y-9867929D01*
X8268809Y-9877452D01*
X8249762Y-9886976D01*
X8230714Y-9886976D01*
X8211667Y-9877452D01*
X8202143Y-9867929D01*
X8192619Y-9848881D01*
X8183095Y-9810786D01*
X8183095Y-9763167D01*
X8192619Y-9725071D01*
X8202143Y-9706024D01*
X8211667Y-9696500D01*
X8230714Y-9686976D01*
X8383095Y-9867929D02*
X8392619Y-9877452D01*
X8383095Y-9886976D01*
X8373571Y-9877452D01*
X8383095Y-9867929D01*
X8383095Y-9886976D01*
X8487857Y-9886976D02*
X8525952Y-9886976D01*
X8545000Y-9877452D01*
X8554524Y-9867929D01*
X8573571Y-9839357D01*
X8583095Y-9801262D01*
X8583095Y-9725071D01*
X8573571Y-9706024D01*
X8564048Y-9696500D01*
X8545000Y-9686976D01*
X8506905Y-9686976D01*
X8487857Y-9696500D01*
X8478333Y-9706024D01*
X8468810Y-9725071D01*
X8468810Y-9772690D01*
X8478333Y-9791738D01*
X8487857Y-9801262D01*
X8506905Y-9810786D01*
X8545000Y-9810786D01*
X8564048Y-9801262D01*
X8573571Y-9791738D01*
X8583095Y-9772690D01*
X8764048Y-9686976D02*
X8668810Y-9686976D01*
X8659286Y-9782214D01*
X8668810Y-9772690D01*
X8687857Y-9763167D01*
X8735476Y-9763167D01*
X8754524Y-9772690D01*
X8764048Y-9782214D01*
X8773571Y-9801262D01*
X8773571Y-9848881D01*
X8764048Y-9867929D01*
X8754524Y-9877452D01*
X8735476Y-9886976D01*
X8687857Y-9886976D01*
X8668810Y-9877452D01*
X8659286Y-9867929D01*
X8897381Y-9686976D02*
X8916429Y-9686976D01*
X8935476Y-9696500D01*
X8945000Y-9706024D01*
X8954524Y-9725071D01*
X8964048Y-9763167D01*
X8964048Y-9810786D01*
X8954524Y-9848881D01*
X8945000Y-9867929D01*
X8935476Y-9877452D01*
X8916429Y-9886976D01*
X8897381Y-9886976D01*
X8878333Y-9877452D01*
X8868810Y-9867929D01*
X8859286Y-9848881D01*
X8849762Y-9810786D01*
X8849762Y-9763167D01*
X8859286Y-9725071D01*
X8868810Y-9706024D01*
X8878333Y-9696500D01*
X8897381Y-9686976D01*
X9049762Y-9886976D02*
X9049762Y-9753643D01*
X9049762Y-9772690D02*
X9059286Y-9763167D01*
X9078333Y-9753643D01*
X9106905Y-9753643D01*
X9125952Y-9763167D01*
X9135476Y-9782214D01*
X9135476Y-9886976D01*
X9135476Y-9782214D02*
X9145000Y-9763167D01*
X9164048Y-9753643D01*
X9192619Y-9753643D01*
X9211667Y-9763167D01*
X9221190Y-9782214D01*
X9221190Y-9886976D01*
X9316429Y-9886976D02*
X9316429Y-9753643D01*
X9316429Y-9772690D02*
X9325952Y-9763167D01*
X9345000Y-9753643D01*
X9373571Y-9753643D01*
X9392619Y-9763167D01*
X9402143Y-9782214D01*
X9402143Y-9886976D01*
X9402143Y-9782214D02*
X9411667Y-9763167D01*
X9430714Y-9753643D01*
X9459286Y-9753643D01*
X9478333Y-9763167D01*
X9487857Y-9782214D01*
X9487857Y-9886976D01*
X9878333Y-9677452D02*
X9706905Y-9934595D01*
X10135476Y-9686976D02*
X10154524Y-9686976D01*
X10173571Y-9696500D01*
X10183095Y-9706024D01*
X10192619Y-9725071D01*
X10202143Y-9763167D01*
X10202143Y-9810786D01*
X10192619Y-9848881D01*
X10183095Y-9867929D01*
X10173571Y-9877452D01*
X10154524Y-9886976D01*
X10135476Y-9886976D01*
X10116429Y-9877452D01*
X10106905Y-9867929D01*
X10097381Y-9848881D01*
X10087857Y-9810786D01*
X10087857Y-9763167D01*
X10097381Y-9725071D01*
X10106905Y-9706024D01*
X10116429Y-9696500D01*
X10135476Y-9686976D01*
X10287857Y-9867929D02*
X10297381Y-9877452D01*
X10287857Y-9886976D01*
X10278333Y-9877452D01*
X10287857Y-9867929D01*
X10287857Y-9886976D01*
X10421190Y-9686976D02*
X10440238Y-9686976D01*
X10459286Y-9696500D01*
X10468810Y-9706024D01*
X10478333Y-9725071D01*
X10487857Y-9763167D01*
X10487857Y-9810786D01*
X10478333Y-9848881D01*
X10468810Y-9867929D01*
X10459286Y-9877452D01*
X10440238Y-9886976D01*
X10421190Y-9886976D01*
X10402143Y-9877452D01*
X10392619Y-9867929D01*
X10383095Y-9848881D01*
X10373571Y-9810786D01*
X10373571Y-9763167D01*
X10383095Y-9725071D01*
X10392619Y-9706024D01*
X10402143Y-9696500D01*
X10421190Y-9686976D01*
X10554524Y-9686976D02*
X10678333Y-9686976D01*
X10611667Y-9763167D01*
X10640238Y-9763167D01*
X10659286Y-9772690D01*
X10668810Y-9782214D01*
X10678333Y-9801262D01*
X10678333Y-9848881D01*
X10668810Y-9867929D01*
X10659286Y-9877452D01*
X10640238Y-9886976D01*
X10583095Y-9886976D01*
X10564048Y-9877452D01*
X10554524Y-9867929D01*
X10745000Y-9686976D02*
X10878333Y-9686976D01*
X10792619Y-9886976D01*
X11040238Y-9753643D02*
X11040238Y-9886976D01*
X10992619Y-9677452D02*
X10945000Y-9820310D01*
X11068810Y-9820310D01*
X11135476Y-9686976D02*
X11135476Y-9725071D01*
X11211667Y-9686976D02*
X11211667Y-9725071D01*
X11506905Y-9963167D02*
X11497381Y-9953643D01*
X11478333Y-9925071D01*
X11468809Y-9906024D01*
X11459286Y-9877452D01*
X11449762Y-9829833D01*
X11449762Y-9791738D01*
X11459286Y-9744119D01*
X11468809Y-9715548D01*
X11478333Y-9696500D01*
X11497381Y-9667929D01*
X11506905Y-9658405D01*
X11564048Y-9686976D02*
X11687857Y-9686976D01*
X11621190Y-9763167D01*
X11649762Y-9763167D01*
X11668809Y-9772690D01*
X11678333Y-9782214D01*
X11687857Y-9801262D01*
X11687857Y-9848881D01*
X11678333Y-9867929D01*
X11668809Y-9877452D01*
X11649762Y-9886976D01*
X11592619Y-9886976D01*
X11573571Y-9877452D01*
X11564048Y-9867929D01*
X11925952Y-9886976D02*
X11925952Y-9686976D01*
X12011667Y-9886976D02*
X12011667Y-9782214D01*
X12002143Y-9763167D01*
X11983095Y-9753643D01*
X11954524Y-9753643D01*
X11935476Y-9763167D01*
X11925952Y-9772690D01*
X12135476Y-9886976D02*
X12116428Y-9877452D01*
X12106905Y-9867929D01*
X12097381Y-9848881D01*
X12097381Y-9791738D01*
X12106905Y-9772690D01*
X12116428Y-9763167D01*
X12135476Y-9753643D01*
X12164048Y-9753643D01*
X12183095Y-9763167D01*
X12192619Y-9772690D01*
X12202143Y-9791738D01*
X12202143Y-9848881D01*
X12192619Y-9867929D01*
X12183095Y-9877452D01*
X12164048Y-9886976D01*
X12135476Y-9886976D01*
X12316428Y-9886976D02*
X12297381Y-9877452D01*
X12287857Y-9858405D01*
X12287857Y-9686976D01*
X12468809Y-9877452D02*
X12449762Y-9886976D01*
X12411667Y-9886976D01*
X12392619Y-9877452D01*
X12383095Y-9858405D01*
X12383095Y-9782214D01*
X12392619Y-9763167D01*
X12411667Y-9753643D01*
X12449762Y-9753643D01*
X12468809Y-9763167D01*
X12478333Y-9782214D01*
X12478333Y-9801262D01*
X12383095Y-9820310D01*
X12554524Y-9877452D02*
X12573571Y-9886976D01*
X12611667Y-9886976D01*
X12630714Y-9877452D01*
X12640238Y-9858405D01*
X12640238Y-9848881D01*
X12630714Y-9829833D01*
X12611667Y-9820310D01*
X12583095Y-9820310D01*
X12564048Y-9810786D01*
X12554524Y-9791738D01*
X12554524Y-9782214D01*
X12564048Y-9763167D01*
X12583095Y-9753643D01*
X12611667Y-9753643D01*
X12630714Y-9763167D01*
X12706905Y-9963167D02*
X12716428Y-9953643D01*
X12735476Y-9925071D01*
X12745000Y-9906024D01*
X12754524Y-9877452D01*
X12764048Y-9829833D01*
X12764048Y-9791738D01*
X12754524Y-9744119D01*
X12745000Y-9715548D01*
X12735476Y-9696500D01*
X12716428Y-9667929D01*
X12706905Y-9658405D01*
D14*
X7885000Y-10010500D02*
X7885000Y-10110500D01*
X7835000Y-10060500D02*
X7935000Y-10060500D01*
D11*
X8297381Y-10150976D02*
X8183095Y-10150976D01*
X8240238Y-10150976D02*
X8240238Y-9950976D01*
X8221190Y-9979548D01*
X8202143Y-9998595D01*
X8183095Y-10008119D01*
X8383095Y-10131929D02*
X8392619Y-10141452D01*
X8383095Y-10150976D01*
X8373571Y-10141452D01*
X8383095Y-10131929D01*
X8383095Y-10150976D01*
X8516429Y-9950976D02*
X8535476Y-9950976D01*
X8554524Y-9960500D01*
X8564048Y-9970024D01*
X8573571Y-9989071D01*
X8583095Y-10027167D01*
X8583095Y-10074786D01*
X8573571Y-10112881D01*
X8564048Y-10131929D01*
X8554524Y-10141452D01*
X8535476Y-10150976D01*
X8516429Y-10150976D01*
X8497381Y-10141452D01*
X8487857Y-10131929D01*
X8478333Y-10112881D01*
X8468810Y-10074786D01*
X8468810Y-10027167D01*
X8478333Y-9989071D01*
X8487857Y-9970024D01*
X8497381Y-9960500D01*
X8516429Y-9950976D01*
X8706905Y-9950976D02*
X8725952Y-9950976D01*
X8745000Y-9960500D01*
X8754524Y-9970024D01*
X8764048Y-9989071D01*
X8773571Y-10027167D01*
X8773571Y-10074786D01*
X8764048Y-10112881D01*
X8754524Y-10131929D01*
X8745000Y-10141452D01*
X8725952Y-10150976D01*
X8706905Y-10150976D01*
X8687857Y-10141452D01*
X8678333Y-10131929D01*
X8668810Y-10112881D01*
X8659286Y-10074786D01*
X8659286Y-10027167D01*
X8668810Y-9989071D01*
X8678333Y-9970024D01*
X8687857Y-9960500D01*
X8706905Y-9950976D01*
X8897381Y-9950976D02*
X8916429Y-9950976D01*
X8935476Y-9960500D01*
X8945000Y-9970024D01*
X8954524Y-9989071D01*
X8964048Y-10027167D01*
X8964048Y-10074786D01*
X8954524Y-10112881D01*
X8945000Y-10131929D01*
X8935476Y-10141452D01*
X8916429Y-10150976D01*
X8897381Y-10150976D01*
X8878333Y-10141452D01*
X8868810Y-10131929D01*
X8859286Y-10112881D01*
X8849762Y-10074786D01*
X8849762Y-10027167D01*
X8859286Y-9989071D01*
X8868810Y-9970024D01*
X8878333Y-9960500D01*
X8897381Y-9950976D01*
X9049762Y-10150976D02*
X9049762Y-10017643D01*
X9049762Y-10036690D02*
X9059286Y-10027167D01*
X9078333Y-10017643D01*
X9106905Y-10017643D01*
X9125952Y-10027167D01*
X9135476Y-10046214D01*
X9135476Y-10150976D01*
X9135476Y-10046214D02*
X9145000Y-10027167D01*
X9164048Y-10017643D01*
X9192619Y-10017643D01*
X9211667Y-10027167D01*
X9221190Y-10046214D01*
X9221190Y-10150976D01*
X9316429Y-10150976D02*
X9316429Y-10017643D01*
X9316429Y-10036690D02*
X9325952Y-10027167D01*
X9345000Y-10017643D01*
X9373571Y-10017643D01*
X9392619Y-10027167D01*
X9402143Y-10046214D01*
X9402143Y-10150976D01*
X9402143Y-10046214D02*
X9411667Y-10027167D01*
X9430714Y-10017643D01*
X9459286Y-10017643D01*
X9478333Y-10027167D01*
X9487857Y-10046214D01*
X9487857Y-10150976D01*
X9878333Y-9941452D02*
X9706905Y-10198595D01*
X10135476Y-9950976D02*
X10154524Y-9950976D01*
X10173571Y-9960500D01*
X10183095Y-9970024D01*
X10192619Y-9989071D01*
X10202143Y-10027167D01*
X10202143Y-10074786D01*
X10192619Y-10112881D01*
X10183095Y-10131929D01*
X10173571Y-10141452D01*
X10154524Y-10150976D01*
X10135476Y-10150976D01*
X10116429Y-10141452D01*
X10106905Y-10131929D01*
X10097381Y-10112881D01*
X10087857Y-10074786D01*
X10087857Y-10027167D01*
X10097381Y-9989071D01*
X10106905Y-9970024D01*
X10116429Y-9960500D01*
X10135476Y-9950976D01*
X10287857Y-10131929D02*
X10297381Y-10141452D01*
X10287857Y-10150976D01*
X10278333Y-10141452D01*
X10287857Y-10131929D01*
X10287857Y-10150976D01*
X10421190Y-9950976D02*
X10440238Y-9950976D01*
X10459286Y-9960500D01*
X10468810Y-9970024D01*
X10478333Y-9989071D01*
X10487857Y-10027167D01*
X10487857Y-10074786D01*
X10478333Y-10112881D01*
X10468810Y-10131929D01*
X10459286Y-10141452D01*
X10440238Y-10150976D01*
X10421190Y-10150976D01*
X10402143Y-10141452D01*
X10392619Y-10131929D01*
X10383095Y-10112881D01*
X10373571Y-10074786D01*
X10373571Y-10027167D01*
X10383095Y-9989071D01*
X10392619Y-9970024D01*
X10402143Y-9960500D01*
X10421190Y-9950976D01*
X10554524Y-9950976D02*
X10678333Y-9950976D01*
X10611667Y-10027167D01*
X10640238Y-10027167D01*
X10659286Y-10036690D01*
X10668810Y-10046214D01*
X10678333Y-10065262D01*
X10678333Y-10112881D01*
X10668810Y-10131929D01*
X10659286Y-10141452D01*
X10640238Y-10150976D01*
X10583095Y-10150976D01*
X10564048Y-10141452D01*
X10554524Y-10131929D01*
X10773571Y-10150976D02*
X10811667Y-10150976D01*
X10830714Y-10141452D01*
X10840238Y-10131929D01*
X10859286Y-10103357D01*
X10868810Y-10065262D01*
X10868810Y-9989071D01*
X10859286Y-9970024D01*
X10849762Y-9960500D01*
X10830714Y-9950976D01*
X10792619Y-9950976D01*
X10773571Y-9960500D01*
X10764048Y-9970024D01*
X10754524Y-9989071D01*
X10754524Y-10036690D01*
X10764048Y-10055738D01*
X10773571Y-10065262D01*
X10792619Y-10074786D01*
X10830714Y-10074786D01*
X10849762Y-10065262D01*
X10859286Y-10055738D01*
X10868810Y-10036690D01*
X11040238Y-10017643D02*
X11040238Y-10150976D01*
X10992619Y-9941452D02*
X10945000Y-10084310D01*
X11068810Y-10084310D01*
X11135476Y-9950976D02*
X11135476Y-9989071D01*
X11211667Y-9950976D02*
X11211667Y-9989071D01*
X11506905Y-10227167D02*
X11497381Y-10217643D01*
X11478333Y-10189071D01*
X11468809Y-10170024D01*
X11459286Y-10141452D01*
X11449762Y-10093833D01*
X11449762Y-10055738D01*
X11459286Y-10008119D01*
X11468809Y-9979548D01*
X11478333Y-9960500D01*
X11497381Y-9931929D01*
X11506905Y-9922405D01*
X11573571Y-9970024D02*
X11583095Y-9960500D01*
X11602143Y-9950976D01*
X11649762Y-9950976D01*
X11668809Y-9960500D01*
X11678333Y-9970024D01*
X11687857Y-9989071D01*
X11687857Y-10008119D01*
X11678333Y-10036690D01*
X11564048Y-10150976D01*
X11687857Y-10150976D01*
X11925952Y-10150976D02*
X11925952Y-9950976D01*
X12011667Y-10150976D02*
X12011667Y-10046214D01*
X12002143Y-10027167D01*
X11983095Y-10017643D01*
X11954524Y-10017643D01*
X11935476Y-10027167D01*
X11925952Y-10036690D01*
X12135476Y-10150976D02*
X12116428Y-10141452D01*
X12106905Y-10131929D01*
X12097381Y-10112881D01*
X12097381Y-10055738D01*
X12106905Y-10036690D01*
X12116428Y-10027167D01*
X12135476Y-10017643D01*
X12164048Y-10017643D01*
X12183095Y-10027167D01*
X12192619Y-10036690D01*
X12202143Y-10055738D01*
X12202143Y-10112881D01*
X12192619Y-10131929D01*
X12183095Y-10141452D01*
X12164048Y-10150976D01*
X12135476Y-10150976D01*
X12316428Y-10150976D02*
X12297381Y-10141452D01*
X12287857Y-10122405D01*
X12287857Y-9950976D01*
X12468809Y-10141452D02*
X12449762Y-10150976D01*
X12411667Y-10150976D01*
X12392619Y-10141452D01*
X12383095Y-10122405D01*
X12383095Y-10046214D01*
X12392619Y-10027167D01*
X12411667Y-10017643D01*
X12449762Y-10017643D01*
X12468809Y-10027167D01*
X12478333Y-10046214D01*
X12478333Y-10065262D01*
X12383095Y-10084310D01*
X12554524Y-10141452D02*
X12573571Y-10150976D01*
X12611667Y-10150976D01*
X12630714Y-10141452D01*
X12640238Y-10122405D01*
X12640238Y-10112881D01*
X12630714Y-10093833D01*
X12611667Y-10084310D01*
X12583095Y-10084310D01*
X12564048Y-10074786D01*
X12554524Y-10055738D01*
X12554524Y-10046214D01*
X12564048Y-10027167D01*
X12583095Y-10017643D01*
X12611667Y-10017643D01*
X12630714Y-10027167D01*
X12706905Y-10227167D02*
X12716428Y-10217643D01*
X12735476Y-10189071D01*
X12745000Y-10170024D01*
X12754524Y-10141452D01*
X12764048Y-10093833D01*
X12764048Y-10055738D01*
X12754524Y-10008119D01*
X12745000Y-9979548D01*
X12735476Y-9960500D01*
X12716428Y-9931929D01*
X12706905Y-9922405D01*
M02*
