%FSLAX45Y45*%
G04 Gerber Fmt 4.5, Leading zero omitted, Abs format (unit mm)*
G04 Created by KiCad (PCBNEW 6.0.4-6f826c9f35~116~ubuntu20.04.1) date 2022-05-16 21:48:50*
%MOMM*%
%LPD*%
G01*
G04 APERTURE LIST*
%TA.AperFunction,Profile*%
%ADD10C,0.050000*%
%TD*%
%ADD11C,0.200000*%
%ADD12C,0.320000*%
G04 APERTURE END LIST*
D10*
X8128000Y-6858000D02*
X9652000Y-6858000D01*
X9652000Y-8890000D02*
G75*
G03*
X9842500Y-8699500I0J190500D01*
G01*
X7937500Y-7048500D02*
X7937500Y-8699500D01*
X7937500Y-8699500D02*
G75*
G03*
X8128000Y-8890000I190500J0D01*
G01*
X8128000Y-8890000D02*
X9652000Y-8890000D01*
X9842500Y-8699500D02*
X9842500Y-7048500D01*
X9842500Y-7048500D02*
G75*
G03*
X9652000Y-6858000I-190500J0D01*
G01*
X8128000Y-6858000D02*
G75*
G03*
X7937500Y-7048500I0J-190500D01*
G01*
D11*
D12*
X8133100Y-7053600D02*
X8453100Y-7373600D01*
X8453100Y-7053600D02*
X8133100Y-7373600D01*
X9326900Y-8374400D02*
X9646900Y-8694400D01*
X9646900Y-8374400D02*
X9326900Y-8694400D01*
D11*
X8192619Y-9202976D02*
X8192619Y-9002976D01*
X8240238Y-9002976D01*
X8268809Y-9012500D01*
X8287857Y-9031548D01*
X8297381Y-9050595D01*
X8306905Y-9088690D01*
X8306905Y-9117262D01*
X8297381Y-9155357D01*
X8287857Y-9174405D01*
X8268809Y-9193452D01*
X8240238Y-9202976D01*
X8192619Y-9202976D01*
X8392619Y-9202976D02*
X8392619Y-9069643D01*
X8392619Y-9107738D02*
X8402143Y-9088690D01*
X8411667Y-9079167D01*
X8430714Y-9069643D01*
X8449762Y-9069643D01*
X8516429Y-9202976D02*
X8516429Y-9069643D01*
X8516429Y-9002976D02*
X8506905Y-9012500D01*
X8516429Y-9022024D01*
X8525952Y-9012500D01*
X8516429Y-9002976D01*
X8516429Y-9022024D01*
X8640238Y-9202976D02*
X8621190Y-9193452D01*
X8611667Y-9174405D01*
X8611667Y-9002976D01*
X8745000Y-9202976D02*
X8725952Y-9193452D01*
X8716429Y-9174405D01*
X8716429Y-9002976D01*
X8973571Y-9202976D02*
X8973571Y-9002976D01*
X9040238Y-9145833D01*
X9106905Y-9002976D01*
X9106905Y-9202976D01*
X9287857Y-9202976D02*
X9287857Y-9098214D01*
X9278333Y-9079167D01*
X9259286Y-9069643D01*
X9221190Y-9069643D01*
X9202143Y-9079167D01*
X9287857Y-9193452D02*
X9268810Y-9202976D01*
X9221190Y-9202976D01*
X9202143Y-9193452D01*
X9192619Y-9174405D01*
X9192619Y-9155357D01*
X9202143Y-9136310D01*
X9221190Y-9126786D01*
X9268810Y-9126786D01*
X9287857Y-9117262D01*
X9383095Y-9069643D02*
X9383095Y-9269643D01*
X9383095Y-9079167D02*
X9402143Y-9069643D01*
X9440238Y-9069643D01*
X9459286Y-9079167D01*
X9468810Y-9088690D01*
X9478333Y-9107738D01*
X9478333Y-9164881D01*
X9468810Y-9183929D01*
X9459286Y-9193452D01*
X9440238Y-9202976D01*
X9402143Y-9202976D01*
X9383095Y-9193452D01*
X9564048Y-9183929D02*
X9573571Y-9193452D01*
X9564048Y-9202976D01*
X9554524Y-9193452D01*
X9564048Y-9183929D01*
X9564048Y-9202976D01*
X9564048Y-9079167D02*
X9573571Y-9088690D01*
X9564048Y-9098214D01*
X9554524Y-9088690D01*
X9564048Y-9079167D01*
X9564048Y-9098214D01*
X7735000Y-9432500D02*
X7935000Y-9632500D01*
X7935000Y-9432500D02*
X7735000Y-9632500D01*
X8173571Y-9422976D02*
X8297381Y-9422976D01*
X8230714Y-9499167D01*
X8259286Y-9499167D01*
X8278333Y-9508690D01*
X8287857Y-9518214D01*
X8297381Y-9537262D01*
X8297381Y-9584881D01*
X8287857Y-9603929D01*
X8278333Y-9613452D01*
X8259286Y-9622976D01*
X8202143Y-9622976D01*
X8183095Y-9613452D01*
X8173571Y-9603929D01*
X8383095Y-9603929D02*
X8392619Y-9613452D01*
X8383095Y-9622976D01*
X8373571Y-9613452D01*
X8383095Y-9603929D01*
X8383095Y-9622976D01*
X8468810Y-9442024D02*
X8478333Y-9432500D01*
X8497381Y-9422976D01*
X8545000Y-9422976D01*
X8564048Y-9432500D01*
X8573571Y-9442024D01*
X8583095Y-9461071D01*
X8583095Y-9480119D01*
X8573571Y-9508690D01*
X8459286Y-9622976D01*
X8583095Y-9622976D01*
X8706905Y-9422976D02*
X8725952Y-9422976D01*
X8745000Y-9432500D01*
X8754524Y-9442024D01*
X8764048Y-9461071D01*
X8773571Y-9499167D01*
X8773571Y-9546786D01*
X8764048Y-9584881D01*
X8754524Y-9603929D01*
X8745000Y-9613452D01*
X8725952Y-9622976D01*
X8706905Y-9622976D01*
X8687857Y-9613452D01*
X8678333Y-9603929D01*
X8668810Y-9584881D01*
X8659286Y-9546786D01*
X8659286Y-9499167D01*
X8668810Y-9461071D01*
X8678333Y-9442024D01*
X8687857Y-9432500D01*
X8706905Y-9422976D01*
X8897381Y-9422976D02*
X8916429Y-9422976D01*
X8935476Y-9432500D01*
X8945000Y-9442024D01*
X8954524Y-9461071D01*
X8964048Y-9499167D01*
X8964048Y-9546786D01*
X8954524Y-9584881D01*
X8945000Y-9603929D01*
X8935476Y-9613452D01*
X8916429Y-9622976D01*
X8897381Y-9622976D01*
X8878333Y-9613452D01*
X8868810Y-9603929D01*
X8859286Y-9584881D01*
X8849762Y-9546786D01*
X8849762Y-9499167D01*
X8859286Y-9461071D01*
X8868810Y-9442024D01*
X8878333Y-9432500D01*
X8897381Y-9422976D01*
X9049762Y-9622976D02*
X9049762Y-9489643D01*
X9049762Y-9508690D02*
X9059286Y-9499167D01*
X9078333Y-9489643D01*
X9106905Y-9489643D01*
X9125952Y-9499167D01*
X9135476Y-9518214D01*
X9135476Y-9622976D01*
X9135476Y-9518214D02*
X9145000Y-9499167D01*
X9164048Y-9489643D01*
X9192619Y-9489643D01*
X9211667Y-9499167D01*
X9221190Y-9518214D01*
X9221190Y-9622976D01*
X9316429Y-9622976D02*
X9316429Y-9489643D01*
X9316429Y-9508690D02*
X9325952Y-9499167D01*
X9345000Y-9489643D01*
X9373571Y-9489643D01*
X9392619Y-9499167D01*
X9402143Y-9518214D01*
X9402143Y-9622976D01*
X9402143Y-9518214D02*
X9411667Y-9499167D01*
X9430714Y-9489643D01*
X9459286Y-9489643D01*
X9478333Y-9499167D01*
X9487857Y-9518214D01*
X9487857Y-9622976D01*
X9878333Y-9413452D02*
X9706905Y-9670595D01*
X10135476Y-9422976D02*
X10154524Y-9422976D01*
X10173571Y-9432500D01*
X10183095Y-9442024D01*
X10192619Y-9461071D01*
X10202143Y-9499167D01*
X10202143Y-9546786D01*
X10192619Y-9584881D01*
X10183095Y-9603929D01*
X10173571Y-9613452D01*
X10154524Y-9622976D01*
X10135476Y-9622976D01*
X10116429Y-9613452D01*
X10106905Y-9603929D01*
X10097381Y-9584881D01*
X10087857Y-9546786D01*
X10087857Y-9499167D01*
X10097381Y-9461071D01*
X10106905Y-9442024D01*
X10116429Y-9432500D01*
X10135476Y-9422976D01*
X10287857Y-9603929D02*
X10297381Y-9613452D01*
X10287857Y-9622976D01*
X10278333Y-9613452D01*
X10287857Y-9603929D01*
X10287857Y-9622976D01*
X10487857Y-9622976D02*
X10373571Y-9622976D01*
X10430714Y-9622976D02*
X10430714Y-9422976D01*
X10411667Y-9451548D01*
X10392619Y-9470595D01*
X10373571Y-9480119D01*
X10564048Y-9442024D02*
X10573571Y-9432500D01*
X10592619Y-9422976D01*
X10640238Y-9422976D01*
X10659286Y-9432500D01*
X10668810Y-9442024D01*
X10678333Y-9461071D01*
X10678333Y-9480119D01*
X10668810Y-9508690D01*
X10554524Y-9622976D01*
X10678333Y-9622976D01*
X10849762Y-9422976D02*
X10811667Y-9422976D01*
X10792619Y-9432500D01*
X10783095Y-9442024D01*
X10764048Y-9470595D01*
X10754524Y-9508690D01*
X10754524Y-9584881D01*
X10764048Y-9603929D01*
X10773571Y-9613452D01*
X10792619Y-9622976D01*
X10830714Y-9622976D01*
X10849762Y-9613452D01*
X10859286Y-9603929D01*
X10868810Y-9584881D01*
X10868810Y-9537262D01*
X10859286Y-9518214D01*
X10849762Y-9508690D01*
X10830714Y-9499167D01*
X10792619Y-9499167D01*
X10773571Y-9508690D01*
X10764048Y-9518214D01*
X10754524Y-9537262D01*
X10992619Y-9422976D02*
X11011667Y-9422976D01*
X11030714Y-9432500D01*
X11040238Y-9442024D01*
X11049762Y-9461071D01*
X11059286Y-9499167D01*
X11059286Y-9546786D01*
X11049762Y-9584881D01*
X11040238Y-9603929D01*
X11030714Y-9613452D01*
X11011667Y-9622976D01*
X10992619Y-9622976D01*
X10973571Y-9613452D01*
X10964048Y-9603929D01*
X10954524Y-9584881D01*
X10945000Y-9546786D01*
X10945000Y-9499167D01*
X10954524Y-9461071D01*
X10964048Y-9442024D01*
X10973571Y-9432500D01*
X10992619Y-9422976D01*
X11135476Y-9422976D02*
X11135476Y-9461071D01*
X11211667Y-9422976D02*
X11211667Y-9461071D01*
X11506905Y-9699167D02*
X11497381Y-9689643D01*
X11478333Y-9661071D01*
X11468809Y-9642024D01*
X11459286Y-9613452D01*
X11449762Y-9565833D01*
X11449762Y-9527738D01*
X11459286Y-9480119D01*
X11468809Y-9451548D01*
X11478333Y-9432500D01*
X11497381Y-9403929D01*
X11506905Y-9394405D01*
X11573571Y-9442024D02*
X11583095Y-9432500D01*
X11602143Y-9422976D01*
X11649762Y-9422976D01*
X11668809Y-9432500D01*
X11678333Y-9442024D01*
X11687857Y-9461071D01*
X11687857Y-9480119D01*
X11678333Y-9508690D01*
X11564048Y-9622976D01*
X11687857Y-9622976D01*
X11925952Y-9622976D02*
X11925952Y-9422976D01*
X12011667Y-9622976D02*
X12011667Y-9518214D01*
X12002143Y-9499167D01*
X11983095Y-9489643D01*
X11954524Y-9489643D01*
X11935476Y-9499167D01*
X11925952Y-9508690D01*
X12135476Y-9622976D02*
X12116428Y-9613452D01*
X12106905Y-9603929D01*
X12097381Y-9584881D01*
X12097381Y-9527738D01*
X12106905Y-9508690D01*
X12116428Y-9499167D01*
X12135476Y-9489643D01*
X12164048Y-9489643D01*
X12183095Y-9499167D01*
X12192619Y-9508690D01*
X12202143Y-9527738D01*
X12202143Y-9584881D01*
X12192619Y-9603929D01*
X12183095Y-9613452D01*
X12164048Y-9622976D01*
X12135476Y-9622976D01*
X12316428Y-9622976D02*
X12297381Y-9613452D01*
X12287857Y-9594405D01*
X12287857Y-9422976D01*
X12468809Y-9613452D02*
X12449762Y-9622976D01*
X12411667Y-9622976D01*
X12392619Y-9613452D01*
X12383095Y-9594405D01*
X12383095Y-9518214D01*
X12392619Y-9499167D01*
X12411667Y-9489643D01*
X12449762Y-9489643D01*
X12468809Y-9499167D01*
X12478333Y-9518214D01*
X12478333Y-9537262D01*
X12383095Y-9556310D01*
X12554524Y-9613452D02*
X12573571Y-9622976D01*
X12611667Y-9622976D01*
X12630714Y-9613452D01*
X12640238Y-9594405D01*
X12640238Y-9584881D01*
X12630714Y-9565833D01*
X12611667Y-9556310D01*
X12583095Y-9556310D01*
X12564048Y-9546786D01*
X12554524Y-9527738D01*
X12554524Y-9518214D01*
X12564048Y-9499167D01*
X12583095Y-9489643D01*
X12611667Y-9489643D01*
X12630714Y-9499167D01*
X12706905Y-9699167D02*
X12716428Y-9689643D01*
X12735476Y-9661071D01*
X12745000Y-9642024D01*
X12754524Y-9613452D01*
X12764048Y-9565833D01*
X12764048Y-9527738D01*
X12754524Y-9480119D01*
X12745000Y-9451548D01*
X12735476Y-9432500D01*
X12716428Y-9403929D01*
X12706905Y-9394405D01*
X13068809Y-9699167D02*
X13059286Y-9689643D01*
X13040238Y-9661071D01*
X13030714Y-9642024D01*
X13021190Y-9613452D01*
X13011667Y-9565833D01*
X13011667Y-9527738D01*
X13021190Y-9480119D01*
X13030714Y-9451548D01*
X13040238Y-9432500D01*
X13059286Y-9403929D01*
X13068809Y-9394405D01*
X13145000Y-9489643D02*
X13145000Y-9622976D01*
X13145000Y-9508690D02*
X13154524Y-9499167D01*
X13173571Y-9489643D01*
X13202143Y-9489643D01*
X13221190Y-9499167D01*
X13230714Y-9518214D01*
X13230714Y-9622976D01*
X13354524Y-9622976D02*
X13335476Y-9613452D01*
X13325952Y-9603929D01*
X13316428Y-9584881D01*
X13316428Y-9527738D01*
X13325952Y-9508690D01*
X13335476Y-9499167D01*
X13354524Y-9489643D01*
X13383095Y-9489643D01*
X13402143Y-9499167D01*
X13411667Y-9508690D01*
X13421190Y-9527738D01*
X13421190Y-9584881D01*
X13411667Y-9603929D01*
X13402143Y-9613452D01*
X13383095Y-9622976D01*
X13354524Y-9622976D01*
X13478333Y-9489643D02*
X13554524Y-9489643D01*
X13506905Y-9422976D02*
X13506905Y-9594405D01*
X13516428Y-9613452D01*
X13535476Y-9622976D01*
X13554524Y-9622976D01*
X13773571Y-9489643D02*
X13773571Y-9689643D01*
X13773571Y-9499167D02*
X13792619Y-9489643D01*
X13830714Y-9489643D01*
X13849762Y-9499167D01*
X13859286Y-9508690D01*
X13868809Y-9527738D01*
X13868809Y-9584881D01*
X13859286Y-9603929D01*
X13849762Y-9613452D01*
X13830714Y-9622976D01*
X13792619Y-9622976D01*
X13773571Y-9613452D01*
X13983095Y-9622976D02*
X13964048Y-9613452D01*
X13954524Y-9594405D01*
X13954524Y-9422976D01*
X14145000Y-9622976D02*
X14145000Y-9518214D01*
X14135476Y-9499167D01*
X14116428Y-9489643D01*
X14078333Y-9489643D01*
X14059286Y-9499167D01*
X14145000Y-9613452D02*
X14125952Y-9622976D01*
X14078333Y-9622976D01*
X14059286Y-9613452D01*
X14049762Y-9594405D01*
X14049762Y-9575357D01*
X14059286Y-9556310D01*
X14078333Y-9546786D01*
X14125952Y-9546786D01*
X14145000Y-9537262D01*
X14211667Y-9489643D02*
X14287857Y-9489643D01*
X14240238Y-9422976D02*
X14240238Y-9594405D01*
X14249762Y-9613452D01*
X14268809Y-9622976D01*
X14287857Y-9622976D01*
X14430714Y-9613452D02*
X14411667Y-9622976D01*
X14373571Y-9622976D01*
X14354524Y-9613452D01*
X14345000Y-9594405D01*
X14345000Y-9518214D01*
X14354524Y-9499167D01*
X14373571Y-9489643D01*
X14411667Y-9489643D01*
X14430714Y-9499167D01*
X14440238Y-9518214D01*
X14440238Y-9537262D01*
X14345000Y-9556310D01*
X14611667Y-9622976D02*
X14611667Y-9422976D01*
X14611667Y-9613452D02*
X14592619Y-9622976D01*
X14554524Y-9622976D01*
X14535476Y-9613452D01*
X14525952Y-9603929D01*
X14516428Y-9584881D01*
X14516428Y-9527738D01*
X14525952Y-9508690D01*
X14535476Y-9499167D01*
X14554524Y-9489643D01*
X14592619Y-9489643D01*
X14611667Y-9499167D01*
X14687857Y-9699167D02*
X14697381Y-9689643D01*
X14716428Y-9661071D01*
X14725952Y-9642024D01*
X14735476Y-9613452D01*
X14745000Y-9565833D01*
X14745000Y-9527738D01*
X14735476Y-9480119D01*
X14725952Y-9451548D01*
X14716428Y-9432500D01*
X14697381Y-9403929D01*
X14687857Y-9394405D01*
M02*
