%FSLAX45Y45*%
G04 Gerber Fmt 4.5, Leading zero omitted, Abs format (unit mm)*
G04 Created by KiCad (PCBNEW 6.0.5-a6ca702e91~116~ubuntu20.04.1) date 2022-05-31 08:03:51*
%MOMM*%
%LPD*%
G01*
G04 APERTURE LIST*
%TA.AperFunction,Profile*%
%ADD10C,0.100000*%
%TD*%
%ADD11C,0.200000*%
G04 APERTURE END LIST*
D10*
X12050000Y-14650000D02*
G75*
G03*
X12400000Y-15000000I350000J0D01*
G01*
X23400000Y-15000000D02*
G75*
G03*
X23750000Y-14650000I0J350000D01*
G01*
X23750000Y-4350000D02*
G75*
G03*
X23400000Y-4000000I-350000J0D01*
G01*
X12400000Y-4000000D02*
G75*
G03*
X12050000Y-4350000I0J-350000D01*
G01*
X23400000Y-4000000D02*
X12400000Y-4000000D01*
X23750000Y-14650000D02*
X23750000Y-4350000D01*
X12400000Y-15000000D02*
X23400000Y-15000000D01*
X12050000Y-4350000D02*
X12050000Y-14650000D01*
D11*
X15060000Y-10745000D02*
X15260000Y-10945000D01*
X15260000Y-10745000D02*
X15060000Y-10945000D01*
X15940000Y-10745000D02*
X16140000Y-10945000D01*
X16140000Y-10745000D02*
X15940000Y-10945000D01*
X12302619Y-15315476D02*
X12302619Y-15115476D01*
X12350238Y-15115476D01*
X12378809Y-15125000D01*
X12397857Y-15144048D01*
X12407381Y-15163095D01*
X12416905Y-15201190D01*
X12416905Y-15229762D01*
X12407381Y-15267857D01*
X12397857Y-15286905D01*
X12378809Y-15305952D01*
X12350238Y-15315476D01*
X12302619Y-15315476D01*
X12502619Y-15315476D02*
X12502619Y-15182143D01*
X12502619Y-15220238D02*
X12512143Y-15201190D01*
X12521667Y-15191667D01*
X12540714Y-15182143D01*
X12559762Y-15182143D01*
X12626428Y-15315476D02*
X12626428Y-15182143D01*
X12626428Y-15115476D02*
X12616905Y-15125000D01*
X12626428Y-15134524D01*
X12635952Y-15125000D01*
X12626428Y-15115476D01*
X12626428Y-15134524D01*
X12750238Y-15315476D02*
X12731190Y-15305952D01*
X12721667Y-15286905D01*
X12721667Y-15115476D01*
X12855000Y-15315476D02*
X12835952Y-15305952D01*
X12826428Y-15286905D01*
X12826428Y-15115476D01*
X13083571Y-15315476D02*
X13083571Y-15115476D01*
X13150238Y-15258333D01*
X13216905Y-15115476D01*
X13216905Y-15315476D01*
X13397857Y-15315476D02*
X13397857Y-15210714D01*
X13388333Y-15191667D01*
X13369286Y-15182143D01*
X13331190Y-15182143D01*
X13312143Y-15191667D01*
X13397857Y-15305952D02*
X13378809Y-15315476D01*
X13331190Y-15315476D01*
X13312143Y-15305952D01*
X13302619Y-15286905D01*
X13302619Y-15267857D01*
X13312143Y-15248809D01*
X13331190Y-15239286D01*
X13378809Y-15239286D01*
X13397857Y-15229762D01*
X13493095Y-15182143D02*
X13493095Y-15382143D01*
X13493095Y-15191667D02*
X13512143Y-15182143D01*
X13550238Y-15182143D01*
X13569286Y-15191667D01*
X13578809Y-15201190D01*
X13588333Y-15220238D01*
X13588333Y-15277381D01*
X13578809Y-15296428D01*
X13569286Y-15305952D01*
X13550238Y-15315476D01*
X13512143Y-15315476D01*
X13493095Y-15305952D01*
X13674048Y-15296428D02*
X13683571Y-15305952D01*
X13674048Y-15315476D01*
X13664524Y-15305952D01*
X13674048Y-15296428D01*
X13674048Y-15315476D01*
X13674048Y-15191667D02*
X13683571Y-15201190D01*
X13674048Y-15210714D01*
X13664524Y-15201190D01*
X13674048Y-15191667D01*
X13674048Y-15210714D01*
X11845000Y-15545000D02*
X12045000Y-15745000D01*
X12045000Y-15545000D02*
X11845000Y-15745000D01*
X12293095Y-15554524D02*
X12302619Y-15545000D01*
X12321667Y-15535476D01*
X12369286Y-15535476D01*
X12388333Y-15545000D01*
X12397857Y-15554524D01*
X12407381Y-15573571D01*
X12407381Y-15592619D01*
X12397857Y-15621190D01*
X12283571Y-15735476D01*
X12407381Y-15735476D01*
X12493095Y-15716428D02*
X12502619Y-15725952D01*
X12493095Y-15735476D01*
X12483571Y-15725952D01*
X12493095Y-15716428D01*
X12493095Y-15735476D01*
X12626428Y-15535476D02*
X12645476Y-15535476D01*
X12664524Y-15545000D01*
X12674048Y-15554524D01*
X12683571Y-15573571D01*
X12693095Y-15611667D01*
X12693095Y-15659286D01*
X12683571Y-15697381D01*
X12674048Y-15716428D01*
X12664524Y-15725952D01*
X12645476Y-15735476D01*
X12626428Y-15735476D01*
X12607381Y-15725952D01*
X12597857Y-15716428D01*
X12588333Y-15697381D01*
X12578809Y-15659286D01*
X12578809Y-15611667D01*
X12588333Y-15573571D01*
X12597857Y-15554524D01*
X12607381Y-15545000D01*
X12626428Y-15535476D01*
X12816905Y-15535476D02*
X12835952Y-15535476D01*
X12855000Y-15545000D01*
X12864524Y-15554524D01*
X12874048Y-15573571D01*
X12883571Y-15611667D01*
X12883571Y-15659286D01*
X12874048Y-15697381D01*
X12864524Y-15716428D01*
X12855000Y-15725952D01*
X12835952Y-15735476D01*
X12816905Y-15735476D01*
X12797857Y-15725952D01*
X12788333Y-15716428D01*
X12778809Y-15697381D01*
X12769286Y-15659286D01*
X12769286Y-15611667D01*
X12778809Y-15573571D01*
X12788333Y-15554524D01*
X12797857Y-15545000D01*
X12816905Y-15535476D01*
X13007381Y-15535476D02*
X13026428Y-15535476D01*
X13045476Y-15545000D01*
X13055000Y-15554524D01*
X13064524Y-15573571D01*
X13074048Y-15611667D01*
X13074048Y-15659286D01*
X13064524Y-15697381D01*
X13055000Y-15716428D01*
X13045476Y-15725952D01*
X13026428Y-15735476D01*
X13007381Y-15735476D01*
X12988333Y-15725952D01*
X12978809Y-15716428D01*
X12969286Y-15697381D01*
X12959762Y-15659286D01*
X12959762Y-15611667D01*
X12969286Y-15573571D01*
X12978809Y-15554524D01*
X12988333Y-15545000D01*
X13007381Y-15535476D01*
X13159762Y-15735476D02*
X13159762Y-15602143D01*
X13159762Y-15621190D02*
X13169286Y-15611667D01*
X13188333Y-15602143D01*
X13216905Y-15602143D01*
X13235952Y-15611667D01*
X13245476Y-15630714D01*
X13245476Y-15735476D01*
X13245476Y-15630714D02*
X13255000Y-15611667D01*
X13274048Y-15602143D01*
X13302619Y-15602143D01*
X13321667Y-15611667D01*
X13331190Y-15630714D01*
X13331190Y-15735476D01*
X13426428Y-15735476D02*
X13426428Y-15602143D01*
X13426428Y-15621190D02*
X13435952Y-15611667D01*
X13455000Y-15602143D01*
X13483571Y-15602143D01*
X13502619Y-15611667D01*
X13512143Y-15630714D01*
X13512143Y-15735476D01*
X13512143Y-15630714D02*
X13521667Y-15611667D01*
X13540714Y-15602143D01*
X13569286Y-15602143D01*
X13588333Y-15611667D01*
X13597857Y-15630714D01*
X13597857Y-15735476D01*
X13988333Y-15525952D02*
X13816905Y-15783095D01*
X14245476Y-15535476D02*
X14264524Y-15535476D01*
X14283571Y-15545000D01*
X14293095Y-15554524D01*
X14302619Y-15573571D01*
X14312143Y-15611667D01*
X14312143Y-15659286D01*
X14302619Y-15697381D01*
X14293095Y-15716428D01*
X14283571Y-15725952D01*
X14264524Y-15735476D01*
X14245476Y-15735476D01*
X14226428Y-15725952D01*
X14216905Y-15716428D01*
X14207381Y-15697381D01*
X14197857Y-15659286D01*
X14197857Y-15611667D01*
X14207381Y-15573571D01*
X14216905Y-15554524D01*
X14226428Y-15545000D01*
X14245476Y-15535476D01*
X14397857Y-15716428D02*
X14407381Y-15725952D01*
X14397857Y-15735476D01*
X14388333Y-15725952D01*
X14397857Y-15716428D01*
X14397857Y-15735476D01*
X14531190Y-15535476D02*
X14550238Y-15535476D01*
X14569286Y-15545000D01*
X14578809Y-15554524D01*
X14588333Y-15573571D01*
X14597857Y-15611667D01*
X14597857Y-15659286D01*
X14588333Y-15697381D01*
X14578809Y-15716428D01*
X14569286Y-15725952D01*
X14550238Y-15735476D01*
X14531190Y-15735476D01*
X14512143Y-15725952D01*
X14502619Y-15716428D01*
X14493095Y-15697381D01*
X14483571Y-15659286D01*
X14483571Y-15611667D01*
X14493095Y-15573571D01*
X14502619Y-15554524D01*
X14512143Y-15545000D01*
X14531190Y-15535476D01*
X14664524Y-15535476D02*
X14797857Y-15535476D01*
X14712143Y-15735476D01*
X14902619Y-15621190D02*
X14883571Y-15611667D01*
X14874048Y-15602143D01*
X14864524Y-15583095D01*
X14864524Y-15573571D01*
X14874048Y-15554524D01*
X14883571Y-15545000D01*
X14902619Y-15535476D01*
X14940714Y-15535476D01*
X14959762Y-15545000D01*
X14969286Y-15554524D01*
X14978809Y-15573571D01*
X14978809Y-15583095D01*
X14969286Y-15602143D01*
X14959762Y-15611667D01*
X14940714Y-15621190D01*
X14902619Y-15621190D01*
X14883571Y-15630714D01*
X14874048Y-15640238D01*
X14864524Y-15659286D01*
X14864524Y-15697381D01*
X14874048Y-15716428D01*
X14883571Y-15725952D01*
X14902619Y-15735476D01*
X14940714Y-15735476D01*
X14959762Y-15725952D01*
X14969286Y-15716428D01*
X14978809Y-15697381D01*
X14978809Y-15659286D01*
X14969286Y-15640238D01*
X14959762Y-15630714D01*
X14940714Y-15621190D01*
X15045476Y-15535476D02*
X15178809Y-15535476D01*
X15093095Y-15735476D01*
X15245476Y-15535476D02*
X15245476Y-15573571D01*
X15321667Y-15535476D02*
X15321667Y-15573571D01*
X15616905Y-15811667D02*
X15607381Y-15802143D01*
X15588333Y-15773571D01*
X15578809Y-15754524D01*
X15569286Y-15725952D01*
X15559762Y-15678333D01*
X15559762Y-15640238D01*
X15569286Y-15592619D01*
X15578809Y-15564048D01*
X15588333Y-15545000D01*
X15607381Y-15516428D01*
X15616905Y-15506905D01*
X15683571Y-15554524D02*
X15693095Y-15545000D01*
X15712143Y-15535476D01*
X15759762Y-15535476D01*
X15778809Y-15545000D01*
X15788333Y-15554524D01*
X15797857Y-15573571D01*
X15797857Y-15592619D01*
X15788333Y-15621190D01*
X15674048Y-15735476D01*
X15797857Y-15735476D01*
X16035952Y-15735476D02*
X16035952Y-15535476D01*
X16121667Y-15735476D02*
X16121667Y-15630714D01*
X16112143Y-15611667D01*
X16093095Y-15602143D01*
X16064524Y-15602143D01*
X16045476Y-15611667D01*
X16035952Y-15621190D01*
X16245476Y-15735476D02*
X16226428Y-15725952D01*
X16216905Y-15716428D01*
X16207381Y-15697381D01*
X16207381Y-15640238D01*
X16216905Y-15621190D01*
X16226428Y-15611667D01*
X16245476Y-15602143D01*
X16274048Y-15602143D01*
X16293095Y-15611667D01*
X16302619Y-15621190D01*
X16312143Y-15640238D01*
X16312143Y-15697381D01*
X16302619Y-15716428D01*
X16293095Y-15725952D01*
X16274048Y-15735476D01*
X16245476Y-15735476D01*
X16426428Y-15735476D02*
X16407381Y-15725952D01*
X16397857Y-15706905D01*
X16397857Y-15535476D01*
X16578809Y-15725952D02*
X16559762Y-15735476D01*
X16521667Y-15735476D01*
X16502619Y-15725952D01*
X16493095Y-15706905D01*
X16493095Y-15630714D01*
X16502619Y-15611667D01*
X16521667Y-15602143D01*
X16559762Y-15602143D01*
X16578809Y-15611667D01*
X16588333Y-15630714D01*
X16588333Y-15649762D01*
X16493095Y-15668809D01*
X16664524Y-15725952D02*
X16683571Y-15735476D01*
X16721667Y-15735476D01*
X16740714Y-15725952D01*
X16750238Y-15706905D01*
X16750238Y-15697381D01*
X16740714Y-15678333D01*
X16721667Y-15668809D01*
X16693095Y-15668809D01*
X16674048Y-15659286D01*
X16664524Y-15640238D01*
X16664524Y-15630714D01*
X16674048Y-15611667D01*
X16693095Y-15602143D01*
X16721667Y-15602143D01*
X16740714Y-15611667D01*
X16816905Y-15811667D02*
X16826429Y-15802143D01*
X16845476Y-15773571D01*
X16855000Y-15754524D01*
X16864524Y-15725952D01*
X16874048Y-15678333D01*
X16874048Y-15640238D01*
X16864524Y-15592619D01*
X16855000Y-15564048D01*
X16845476Y-15545000D01*
X16826429Y-15516428D01*
X16816905Y-15506905D01*
X17178810Y-15811667D02*
X17169286Y-15802143D01*
X17150238Y-15773571D01*
X17140714Y-15754524D01*
X17131190Y-15725952D01*
X17121667Y-15678333D01*
X17121667Y-15640238D01*
X17131190Y-15592619D01*
X17140714Y-15564048D01*
X17150238Y-15545000D01*
X17169286Y-15516428D01*
X17178810Y-15506905D01*
X17255000Y-15602143D02*
X17255000Y-15735476D01*
X17255000Y-15621190D02*
X17264524Y-15611667D01*
X17283571Y-15602143D01*
X17312143Y-15602143D01*
X17331190Y-15611667D01*
X17340714Y-15630714D01*
X17340714Y-15735476D01*
X17464524Y-15735476D02*
X17445476Y-15725952D01*
X17435952Y-15716428D01*
X17426429Y-15697381D01*
X17426429Y-15640238D01*
X17435952Y-15621190D01*
X17445476Y-15611667D01*
X17464524Y-15602143D01*
X17493095Y-15602143D01*
X17512143Y-15611667D01*
X17521667Y-15621190D01*
X17531190Y-15640238D01*
X17531190Y-15697381D01*
X17521667Y-15716428D01*
X17512143Y-15725952D01*
X17493095Y-15735476D01*
X17464524Y-15735476D01*
X17588333Y-15602143D02*
X17664524Y-15602143D01*
X17616905Y-15535476D02*
X17616905Y-15706905D01*
X17626429Y-15725952D01*
X17645476Y-15735476D01*
X17664524Y-15735476D01*
X17883571Y-15602143D02*
X17883571Y-15802143D01*
X17883571Y-15611667D02*
X17902619Y-15602143D01*
X17940714Y-15602143D01*
X17959762Y-15611667D01*
X17969286Y-15621190D01*
X17978810Y-15640238D01*
X17978810Y-15697381D01*
X17969286Y-15716428D01*
X17959762Y-15725952D01*
X17940714Y-15735476D01*
X17902619Y-15735476D01*
X17883571Y-15725952D01*
X18093095Y-15735476D02*
X18074048Y-15725952D01*
X18064524Y-15706905D01*
X18064524Y-15535476D01*
X18255000Y-15735476D02*
X18255000Y-15630714D01*
X18245476Y-15611667D01*
X18226429Y-15602143D01*
X18188333Y-15602143D01*
X18169286Y-15611667D01*
X18255000Y-15725952D02*
X18235952Y-15735476D01*
X18188333Y-15735476D01*
X18169286Y-15725952D01*
X18159762Y-15706905D01*
X18159762Y-15687857D01*
X18169286Y-15668809D01*
X18188333Y-15659286D01*
X18235952Y-15659286D01*
X18255000Y-15649762D01*
X18321667Y-15602143D02*
X18397857Y-15602143D01*
X18350238Y-15535476D02*
X18350238Y-15706905D01*
X18359762Y-15725952D01*
X18378810Y-15735476D01*
X18397857Y-15735476D01*
X18540714Y-15725952D02*
X18521667Y-15735476D01*
X18483571Y-15735476D01*
X18464524Y-15725952D01*
X18455000Y-15706905D01*
X18455000Y-15630714D01*
X18464524Y-15611667D01*
X18483571Y-15602143D01*
X18521667Y-15602143D01*
X18540714Y-15611667D01*
X18550238Y-15630714D01*
X18550238Y-15649762D01*
X18455000Y-15668809D01*
X18721667Y-15735476D02*
X18721667Y-15535476D01*
X18721667Y-15725952D02*
X18702619Y-15735476D01*
X18664524Y-15735476D01*
X18645476Y-15725952D01*
X18635952Y-15716428D01*
X18626429Y-15697381D01*
X18626429Y-15640238D01*
X18635952Y-15621190D01*
X18645476Y-15611667D01*
X18664524Y-15602143D01*
X18702619Y-15602143D01*
X18721667Y-15611667D01*
X18797857Y-15811667D02*
X18807381Y-15802143D01*
X18826429Y-15773571D01*
X18835952Y-15754524D01*
X18845476Y-15725952D01*
X18855000Y-15678333D01*
X18855000Y-15640238D01*
X18845476Y-15592619D01*
X18835952Y-15564048D01*
X18826429Y-15545000D01*
X18807381Y-15516428D01*
X18797857Y-15506905D01*
M02*
