%TF.GenerationSoftware,KiCad,Pcbnew,6.0.5-a6ca702e91~116~ubuntu20.04.1*%
%TF.CreationDate,2022-05-31T08:03:47-06:00*%
%TF.ProjectId,mainboard,6d61696e-626f-4617-9264-2e6b69636164,rev?*%
%TF.SameCoordinates,Original*%
%TF.FileFunction,Soldermask,Top*%
%TF.FilePolarity,Negative*%
%FSLAX46Y46*%
G04 Gerber Fmt 4.6, Leading zero omitted, Abs format (unit mm)*
G04 Created by KiCad (PCBNEW 6.0.5-a6ca702e91~116~ubuntu20.04.1) date 2022-05-31 08:03:47*
%MOMM*%
%LPD*%
G01*
G04 APERTURE LIST*
G04 Aperture macros list*
%AMRoundRect*
0 Rectangle with rounded corners*
0 $1 Rounding radius*
0 $2 $3 $4 $5 $6 $7 $8 $9 X,Y pos of 4 corners*
0 Add a 4 corners polygon primitive as box body*
4,1,4,$2,$3,$4,$5,$6,$7,$8,$9,$2,$3,0*
0 Add four circle primitives for the rounded corners*
1,1,$1+$1,$2,$3*
1,1,$1+$1,$4,$5*
1,1,$1+$1,$6,$7*
1,1,$1+$1,$8,$9*
0 Add four rect primitives between the rounded corners*
20,1,$1+$1,$2,$3,$4,$5,0*
20,1,$1+$1,$4,$5,$6,$7,0*
20,1,$1+$1,$6,$7,$8,$9,0*
20,1,$1+$1,$8,$9,$2,$3,0*%
G04 Aperture macros list end*
%ADD10R,1.524000X1.524000*%
%ADD11C,1.524000*%
%ADD12R,1.350000X1.350000*%
%ADD13C,1.350000*%
%ADD14C,1.803400*%
%ADD15R,1.600200X1.600200*%
%ADD16C,1.600200*%
%ADD17C,1.400000*%
%ADD18O,1.400000X1.400000*%
%ADD19R,1.800000X1.800000*%
%ADD20C,1.800000*%
%ADD21R,2.000000X1.905000*%
%ADD22O,2.000000X1.905000*%
%ADD23O,1.905000X2.000000*%
%ADD24R,1.905000X2.000000*%
%ADD25C,1.600000*%
%ADD26R,1.600000X1.600000*%
%ADD27RoundRect,0.250000X-0.750000X0.600000X-0.750000X-0.600000X0.750000X-0.600000X0.750000X0.600000X0*%
%ADD28O,2.000000X1.700000*%
%ADD29O,1.700000X1.950000*%
%ADD30RoundRect,0.250000X-0.600000X-0.725000X0.600000X-0.725000X0.600000X0.725000X-0.600000X0.725000X0*%
%ADD31R,2.200000X2.200000*%
%ADD32O,2.200000X2.200000*%
%ADD33RoundRect,0.250000X-0.600000X-0.750000X0.600000X-0.750000X0.600000X0.750000X-0.600000X0.750000X0*%
%ADD34O,1.700000X2.000000*%
%ADD35RoundRect,0.250000X0.600000X0.725000X-0.600000X0.725000X-0.600000X-0.725000X0.600000X-0.725000X0*%
%ADD36C,6.400000*%
%ADD37C,3.600000*%
%ADD38O,1.950000X1.700000*%
%ADD39RoundRect,0.250000X0.725000X-0.600000X0.725000X0.600000X-0.725000X0.600000X-0.725000X-0.600000X0*%
%ADD40C,4.000000*%
G04 APERTURE END LIST*
D10*
%TO.C,U5*%
X131750003Y-134120001D03*
D11*
X134290003Y-134120001D03*
X136830003Y-134120001D03*
X139370003Y-134120001D03*
X141910003Y-134120001D03*
X144450003Y-134120001D03*
X146990003Y-134120001D03*
X149530003Y-134120001D03*
X131750003Y-118880001D03*
X134290003Y-118880001D03*
X136830003Y-118880001D03*
X139370003Y-118880001D03*
X141910003Y-118880001D03*
X144450003Y-118880001D03*
X146990003Y-118880001D03*
X149530003Y-118880001D03*
%TD*%
D12*
%TO.C,J20*%
X125459998Y-98388500D03*
D13*
X127999998Y-98388500D03*
X125459998Y-95848500D03*
X127999998Y-95848500D03*
X125459998Y-93308500D03*
X127999998Y-93308500D03*
X125459998Y-90768500D03*
X127999998Y-90768500D03*
X125459998Y-88228500D03*
X127999998Y-88228500D03*
X125459998Y-85688500D03*
X127999998Y-85688500D03*
X125459998Y-83148500D03*
X127999998Y-83148500D03*
X125459998Y-80608500D03*
X127999998Y-80608500D03*
X125459998Y-78068500D03*
X127999998Y-78068500D03*
%TD*%
D12*
%TO.C,J21*%
X141230002Y-98388500D03*
D13*
X143770002Y-98388500D03*
X141230002Y-95848500D03*
X143770002Y-95848500D03*
X141230002Y-93308500D03*
X143770002Y-93308500D03*
X141230002Y-90768500D03*
X143770002Y-90768500D03*
X141230002Y-88228500D03*
X143770002Y-88228500D03*
X141230002Y-85688500D03*
X143770002Y-85688500D03*
X141230002Y-83148500D03*
X143770002Y-83148500D03*
X141230002Y-80608500D03*
X143770002Y-80608500D03*
X141230002Y-78068500D03*
X143770002Y-78068500D03*
%TD*%
D14*
%TO.C,J25*%
X146500012Y-145499988D03*
X151500012Y-145499988D03*
%TD*%
%TO.C,J19*%
X188563000Y-44500000D03*
X183563000Y-44500000D03*
%TD*%
%TO.C,J24*%
X133500000Y-145500000D03*
X138500000Y-145500000D03*
%TD*%
D15*
%TO.C,Q4*%
X133485204Y-66999993D03*
D16*
X135771204Y-66999993D03*
X138057204Y-66999993D03*
%TD*%
D15*
%TO.C,Q5*%
X150091400Y-67000000D03*
D16*
X152377400Y-67000000D03*
X154663400Y-67000000D03*
%TD*%
D15*
%TO.C,Q1*%
X133485200Y-50806200D03*
D16*
X135771200Y-50806200D03*
X138057200Y-50806200D03*
%TD*%
D15*
%TO.C,Q3*%
X166697600Y-50806193D03*
D16*
X168983600Y-50806193D03*
X171269600Y-50806193D03*
%TD*%
D15*
%TO.C,Q6*%
X166697600Y-67000000D03*
D16*
X168983600Y-67000000D03*
X171269600Y-67000000D03*
%TD*%
D15*
%TO.C,Q2*%
X150091400Y-50806200D03*
D16*
X152377400Y-50806200D03*
X154663400Y-50806200D03*
%TD*%
D17*
%TO.C,R6*%
X217780000Y-97500000D03*
D18*
X220320000Y-97500000D03*
%TD*%
D17*
%TO.C,R5*%
X124750000Y-72720000D03*
D18*
X124750000Y-70180000D03*
%TD*%
D17*
%TO.C,R4*%
X198280000Y-52750000D03*
D18*
X200820000Y-52750000D03*
%TD*%
D17*
%TO.C,R3*%
X209470000Y-65750000D03*
D18*
X206930000Y-65750000D03*
%TD*%
D19*
%TO.C,D10*%
X225275000Y-97500000D03*
D20*
X222735000Y-97500000D03*
%TD*%
D19*
%TO.C,D9*%
X124750000Y-65475000D03*
D20*
X124750000Y-68015000D03*
%TD*%
D19*
%TO.C,D8*%
X206025000Y-52750000D03*
D20*
X203485000Y-52750000D03*
%TD*%
D19*
%TO.C,D7*%
X209525000Y-62000000D03*
D20*
X206985000Y-62000000D03*
%TD*%
D21*
%TO.C,U4*%
X226445000Y-88290000D03*
D22*
X226445000Y-85750000D03*
X226445000Y-83210000D03*
%TD*%
%TO.C,U2*%
X192305000Y-66043000D03*
X192305000Y-63503000D03*
D21*
X192305000Y-60963000D03*
%TD*%
D23*
%TO.C,U3*%
X157960000Y-85051000D03*
X160500000Y-85051000D03*
D24*
X163040000Y-85051000D03*
%TD*%
D25*
%TO.C,U1*%
X172380000Y-147210000D03*
X172380000Y-144670000D03*
X172380000Y-142130000D03*
X172380000Y-139590000D03*
X172380000Y-137050000D03*
X172380000Y-134510000D03*
X172380000Y-131970000D03*
X172380000Y-129430000D03*
X172380000Y-126890000D03*
X172380000Y-124350000D03*
X172380000Y-121810000D03*
X172380000Y-119270000D03*
X172380000Y-116730000D03*
X172380000Y-114190000D03*
X172380000Y-111650000D03*
X172380000Y-109110000D03*
X172380000Y-106570000D03*
X172380000Y-104030000D03*
X172380000Y-101490000D03*
X172380000Y-98950000D03*
X172380000Y-96410000D03*
X172380000Y-93870000D03*
X172380000Y-91330000D03*
X172380000Y-88790000D03*
X187620000Y-88790000D03*
X187620000Y-91330000D03*
X187620000Y-93870000D03*
X187620000Y-96410000D03*
X187620000Y-98950000D03*
X187620000Y-101490000D03*
X187620000Y-104030000D03*
X187620000Y-106570000D03*
X187620000Y-109110000D03*
X187620000Y-111650000D03*
X187620000Y-114190000D03*
X187620000Y-116730000D03*
X187620000Y-119270000D03*
X187620000Y-121810000D03*
X187620000Y-124350000D03*
X187620000Y-126890000D03*
X187620000Y-129430000D03*
X187620000Y-131970000D03*
X187620000Y-134510000D03*
X187620000Y-137050000D03*
X187620000Y-139590000D03*
X187620000Y-142130000D03*
X187620000Y-144670000D03*
D26*
X187620000Y-147210000D03*
%TD*%
D27*
%TO.C,J18*%
X217750000Y-64750000D03*
D28*
X217750000Y-67250000D03*
%TD*%
D29*
%TO.C,J5*%
X214000000Y-145975000D03*
X211500000Y-145975000D03*
D30*
X209000000Y-145975000D03*
%TD*%
D31*
%TO.C,D4*%
X143037600Y-69193800D03*
D32*
X143037600Y-59033800D03*
%TD*%
D33*
%TO.C,J11*%
X150143800Y-59193800D03*
D34*
X152643800Y-59193800D03*
%TD*%
%TO.C,J9*%
X169250000Y-42999993D03*
D33*
X166750000Y-42999993D03*
%TD*%
D26*
%TO.C,C7*%
X229500000Y-95000000D03*
D25*
X234500000Y-95000000D03*
%TD*%
D31*
%TO.C,D2*%
X159643800Y-53000000D03*
D32*
X159643800Y-42840000D03*
%TD*%
D25*
%TO.C,C4*%
X153300000Y-79000000D03*
D26*
X158300000Y-79000000D03*
%TD*%
D29*
%TO.C,J23*%
X204000000Y-113550000D03*
X206500000Y-113550000D03*
X209000000Y-113550000D03*
X211500000Y-113550000D03*
D35*
X214000000Y-113550000D03*
%TD*%
D30*
%TO.C,SW1*%
X222000000Y-112500000D03*
D29*
X224500000Y-112500000D03*
X227000000Y-112500000D03*
%TD*%
D28*
%TO.C,J13*%
X227025000Y-46449991D03*
D27*
X227025000Y-43949991D03*
%TD*%
D29*
%TO.C,SW4*%
X227000000Y-123658333D03*
X224500000Y-123658333D03*
D30*
X222000000Y-123658333D03*
%TD*%
D26*
%TO.C,C9*%
X204100000Y-42100000D03*
D25*
X204100000Y-47100000D03*
%TD*%
D30*
%TO.C,J3*%
X222000000Y-134816666D03*
D29*
X224500000Y-134816666D03*
X227000000Y-134816666D03*
%TD*%
D27*
%TO.C,J17*%
X217750000Y-54340000D03*
D28*
X217750000Y-56840000D03*
%TD*%
D36*
%TO.C,H2*%
X124000006Y-43499989D03*
D37*
X124000006Y-43499989D03*
%TD*%
D36*
%TO.C,H1*%
X233999989Y-43499989D03*
D37*
X233999989Y-43499989D03*
%TD*%
D26*
%TO.C,C8*%
X196856200Y-43317621D03*
D25*
X196856200Y-45817621D03*
%TD*%
D27*
%TO.C,J15*%
X227025000Y-64770000D03*
D28*
X227025000Y-67270000D03*
%TD*%
D30*
%TO.C,J1*%
X196000000Y-134816666D03*
D29*
X198500000Y-134816666D03*
X201000000Y-134816666D03*
%TD*%
D36*
%TO.C,H4*%
X233999989Y-146500012D03*
D37*
X233999989Y-146500012D03*
%TD*%
D30*
%TO.C,J4*%
X196000000Y-145975000D03*
D29*
X198500000Y-145975000D03*
X201000000Y-145975000D03*
%TD*%
D31*
%TO.C,D3*%
X176250000Y-52999993D03*
D32*
X176250000Y-42839993D03*
%TD*%
D28*
%TO.C,J16*%
X217750000Y-46430000D03*
D27*
X217750000Y-43930000D03*
%TD*%
D33*
%TO.C,J12*%
X166750000Y-59193800D03*
D34*
X169250000Y-59193800D03*
%TD*%
D31*
%TO.C,D5*%
X159643800Y-69193800D03*
D32*
X159643800Y-59033800D03*
%TD*%
D26*
%TO.C,C10*%
X133825721Y-107400000D03*
D25*
X136325721Y-107400000D03*
%TD*%
%TO.C,C3*%
X167403631Y-79000000D03*
D26*
X164903631Y-79000000D03*
%TD*%
D33*
%TO.C,J8*%
X150143800Y-43000000D03*
D34*
X152643800Y-43000000D03*
%TD*%
D38*
%TO.C,J22*%
X123750000Y-106500000D03*
X123750000Y-109000000D03*
D39*
X123750000Y-111500000D03*
%TD*%
D26*
%TO.C,C6*%
X230803631Y-88250000D03*
D25*
X233303631Y-88250000D03*
%TD*%
D33*
%TO.C,J10*%
X133537600Y-59193800D03*
D34*
X136037600Y-59193800D03*
%TD*%
D26*
%TO.C,C1*%
X186615000Y-60933369D03*
D25*
X186615000Y-58433369D03*
%TD*%
D29*
%TO.C,J2*%
X214000000Y-134816666D03*
X211500000Y-134816666D03*
D30*
X209000000Y-134816666D03*
%TD*%
D31*
%TO.C,D6*%
X176250000Y-69193800D03*
D32*
X176250000Y-59033800D03*
%TD*%
D33*
%TO.C,J7*%
X133537600Y-43000000D03*
D34*
X136037600Y-43000000D03*
%TD*%
D26*
%TO.C,C2*%
X186615000Y-66000000D03*
D25*
X186615000Y-71000000D03*
%TD*%
D31*
%TO.C,D1*%
X143037600Y-53000000D03*
D32*
X143037600Y-42840000D03*
%TD*%
D27*
%TO.C,J14*%
X227025000Y-54360000D03*
D28*
X227025000Y-56860000D03*
%TD*%
D29*
%TO.C,J6*%
X227000000Y-145975000D03*
X224500000Y-145975000D03*
D30*
X222000000Y-145975000D03*
%TD*%
D37*
%TO.C,H3*%
X124000006Y-146500012D03*
D36*
X124000006Y-146500012D03*
%TD*%
D20*
%TO.C,RV1*%
X158500000Y-101450000D03*
X156000000Y-101450000D03*
X153500000Y-101450000D03*
D40*
X151600000Y-108450000D03*
X160400000Y-108450000D03*
%TD*%
D29*
%TO.C,SW3*%
X214000000Y-123658333D03*
X211500000Y-123658333D03*
D30*
X209000000Y-123658333D03*
%TD*%
D26*
%TO.C,C5*%
X230803631Y-82196369D03*
D25*
X233303631Y-82196369D03*
%TD*%
D29*
%TO.C,SW2*%
X201000000Y-123658333D03*
X198500000Y-123658333D03*
D30*
X196000000Y-123658333D03*
%TD*%
M02*
