%FSLAX45Y45*%
G04 Gerber Fmt 4.5, Leading zero omitted, Abs format (unit mm)*
G04 Created by KiCad (PCBNEW 6.0.5-a6ca702e91~116~ubuntu20.04.1) date 2022-05-31 08:03:51*
%MOMM*%
%LPD*%
G01*
G04 APERTURE LIST*
%TA.AperFunction,Profile*%
%ADD10C,0.100000*%
%TD*%
%ADD11C,0.200000*%
%ADD12C,0.050800*%
%ADD13C,0.070000*%
%ADD14C,0.080000*%
%ADD15C,0.090000*%
%ADD16C,0.095000*%
%ADD17C,0.100000*%
%ADD18C,0.109220*%
%ADD19C,0.110000*%
%ADD20C,0.129540*%
%ADD21C,0.320000*%
G04 APERTURE END LIST*
D10*
X12050000Y-14650000D02*
G75*
G03*
X12400000Y-15000000I350000J0D01*
G01*
X23400000Y-15000000D02*
G75*
G03*
X23750000Y-14650000I0J350000D01*
G01*
X23750000Y-4350000D02*
G75*
G03*
X23400000Y-4000000I-350000J0D01*
G01*
X12400000Y-4000000D02*
G75*
G03*
X12050000Y-4350000I0J-350000D01*
G01*
X23400000Y-4000000D02*
X12400000Y-4000000D01*
X23750000Y-14650000D02*
X23750000Y-4350000D01*
X12400000Y-15000000D02*
X23400000Y-15000000D01*
X12050000Y-4350000D02*
X12050000Y-14650000D01*
D11*
D12*
X13794600Y-9684601D02*
X13845400Y-9735401D01*
X13845400Y-9684601D02*
X13794600Y-9735401D01*
X15274600Y-12864600D02*
X15325400Y-12915400D01*
X15325400Y-12864600D02*
X15274600Y-12915400D01*
X15334600Y-7294601D02*
X15385400Y-7345401D01*
X15385400Y-7294601D02*
X15334600Y-7345401D01*
X15914601Y-13504601D02*
X15965401Y-13555401D01*
X15965401Y-13504601D02*
X15914601Y-13555401D01*
X16434600Y-10504599D02*
X16485400Y-10555399D01*
X16485400Y-10504599D02*
X16434600Y-10555399D01*
X17294601Y-7294601D02*
X17345401Y-7345401D01*
X17345401Y-7294601D02*
X17294601Y-7345401D01*
X17794600Y-7794600D02*
X17845400Y-7845400D01*
X17845400Y-7794600D02*
X17794600Y-7845400D01*
X17794600Y-8974600D02*
X17845400Y-9025400D01*
X17845400Y-8974600D02*
X17794600Y-9025400D01*
X20414600Y-10744599D02*
X20465400Y-10795399D01*
X20465400Y-10744599D02*
X20414600Y-10795399D01*
D13*
X12510000Y-7018000D02*
G75*
G03*
X12510000Y-7018000I-35000J0D01*
G01*
X12510000Y-7272000D02*
G75*
G03*
X12510000Y-7272000I-35000J0D01*
G01*
X19863000Y-5275000D02*
G75*
G03*
X19863000Y-5275000I-35000J0D01*
G01*
X20117000Y-5275000D02*
G75*
G03*
X20117000Y-5275000I-35000J0D01*
G01*
X20728000Y-6575000D02*
G75*
G03*
X20728000Y-6575000I-35000J0D01*
G01*
X20982000Y-6575000D02*
G75*
G03*
X20982000Y-6575000I-35000J0D01*
G01*
X21813000Y-9750000D02*
G75*
G03*
X21813000Y-9750000I-35000J0D01*
G01*
X22067000Y-9750000D02*
G75*
G03*
X22067000Y-9750000I-35000J0D01*
G01*
D14*
X13382572Y-10700000D02*
X13382572Y-10780000D01*
X13342572Y-10740000D02*
X13422572Y-10740000D01*
X13632572Y-10700000D02*
X13632572Y-10780000D01*
X13592572Y-10740000D02*
X13672572Y-10740000D01*
X15330000Y-7860000D02*
X15330000Y-7940000D01*
X15290000Y-7900000D02*
X15370000Y-7900000D01*
X15830000Y-7860000D02*
X15830000Y-7940000D01*
X15790000Y-7900000D02*
X15870000Y-7900000D01*
X16490363Y-7860000D02*
X16490363Y-7940000D01*
X16450363Y-7900000D02*
X16530363Y-7900000D01*
X16740363Y-7860000D02*
X16740363Y-7940000D01*
X16700363Y-7900000D02*
X16780363Y-7900000D01*
X18661500Y-5803337D02*
X18661500Y-5883337D01*
X18621500Y-5843337D02*
X18701500Y-5843337D01*
X18661500Y-6053337D02*
X18661500Y-6133337D01*
X18621500Y-6093337D02*
X18701500Y-6093337D01*
X18661500Y-6560000D02*
X18661500Y-6640000D01*
X18621500Y-6600000D02*
X18701500Y-6600000D01*
X18661500Y-7060000D02*
X18661500Y-7140000D01*
X18621500Y-7100000D02*
X18701500Y-7100000D01*
X19685620Y-4291762D02*
X19685620Y-4371762D01*
X19645620Y-4331762D02*
X19725620Y-4331762D01*
X19685620Y-4541762D02*
X19685620Y-4621762D01*
X19645620Y-4581762D02*
X19725620Y-4581762D01*
X20410000Y-4170000D02*
X20410000Y-4250000D01*
X20370000Y-4210000D02*
X20450000Y-4210000D01*
X20410000Y-4670000D02*
X20410000Y-4750000D01*
X20370000Y-4710000D02*
X20450000Y-4710000D01*
X22950000Y-9460000D02*
X22950000Y-9540000D01*
X22910000Y-9500000D02*
X22990000Y-9500000D01*
X23080363Y-8179637D02*
X23080363Y-8259637D01*
X23040363Y-8219637D02*
X23120363Y-8219637D01*
X23080363Y-8785000D02*
X23080363Y-8865000D01*
X23040363Y-8825000D02*
X23120363Y-8825000D01*
X23330363Y-8179637D02*
X23330363Y-8259637D01*
X23290363Y-8219637D02*
X23370363Y-8219637D01*
X23330363Y-8785000D02*
X23330363Y-8865000D01*
X23290363Y-8825000D02*
X23370363Y-8825000D01*
X23450000Y-9460000D02*
X23450000Y-9540000D01*
X23410000Y-9500000D02*
X23490000Y-9500000D01*
D15*
X12506820Y-6579320D02*
X12506820Y-6515680D01*
X12443180Y-6515680D01*
X12443180Y-6579320D01*
X12506820Y-6579320D01*
X12506820Y-6833320D02*
X12506820Y-6769680D01*
X12443180Y-6769680D01*
X12443180Y-6833320D01*
X12506820Y-6833320D01*
X20380320Y-5306820D02*
X20380320Y-5243180D01*
X20316680Y-5243180D01*
X20316680Y-5306820D01*
X20380320Y-5306820D01*
X20634320Y-5306820D02*
X20634320Y-5243180D01*
X20570680Y-5243180D01*
X20570680Y-5306820D01*
X20634320Y-5306820D01*
X20730320Y-6231820D02*
X20730320Y-6168180D01*
X20666680Y-6168180D01*
X20666680Y-6231820D01*
X20730320Y-6231820D01*
X20984320Y-6231820D02*
X20984320Y-6168180D01*
X20920680Y-6168180D01*
X20920680Y-6231820D01*
X20984320Y-6231820D01*
X22305320Y-9781820D02*
X22305320Y-9718180D01*
X22241680Y-9718180D01*
X22241680Y-9781820D01*
X22305320Y-9781820D01*
X22559320Y-9781820D02*
X22559320Y-9718180D01*
X22495680Y-9718180D01*
X22495680Y-9781820D01*
X22559320Y-9781820D01*
D16*
X12375000Y-10697500D02*
X12422500Y-10650000D01*
X12375000Y-10602500D01*
X12327500Y-10650000D01*
X12375000Y-10697500D01*
X12375000Y-10947500D02*
X12422500Y-10900000D01*
X12375000Y-10852500D01*
X12327500Y-10900000D01*
X12375000Y-10947500D01*
X12375000Y-11197500D02*
X12422500Y-11150000D01*
X12375000Y-11102500D01*
X12327500Y-11150000D01*
X12375000Y-11197500D01*
X19600000Y-12413333D02*
X19647500Y-12365833D01*
X19600000Y-12318333D01*
X19552500Y-12365833D01*
X19600000Y-12413333D01*
X19600000Y-13529167D02*
X19647500Y-13481667D01*
X19600000Y-13434167D01*
X19552500Y-13481667D01*
X19600000Y-13529167D01*
X19600000Y-14645000D02*
X19647500Y-14597500D01*
X19600000Y-14550000D01*
X19552500Y-14597500D01*
X19600000Y-14645000D01*
X19850000Y-12413333D02*
X19897500Y-12365833D01*
X19850000Y-12318333D01*
X19802500Y-12365833D01*
X19850000Y-12413333D01*
X19850000Y-13529167D02*
X19897500Y-13481667D01*
X19850000Y-13434167D01*
X19802500Y-13481667D01*
X19850000Y-13529167D01*
X19850000Y-14645000D02*
X19897500Y-14597500D01*
X19850000Y-14550000D01*
X19802500Y-14597500D01*
X19850000Y-14645000D01*
X20100000Y-12413333D02*
X20147500Y-12365833D01*
X20100000Y-12318333D01*
X20052500Y-12365833D01*
X20100000Y-12413333D01*
X20100000Y-13529167D02*
X20147500Y-13481667D01*
X20100000Y-13434167D01*
X20052500Y-13481667D01*
X20100000Y-13529167D01*
X20100000Y-14645000D02*
X20147500Y-14597500D01*
X20100000Y-14550000D01*
X20052500Y-14597500D01*
X20100000Y-14645000D01*
X20400000Y-11402500D02*
X20447500Y-11355000D01*
X20400000Y-11307500D01*
X20352500Y-11355000D01*
X20400000Y-11402500D01*
X20650000Y-11402500D02*
X20697500Y-11355000D01*
X20650000Y-11307500D01*
X20602500Y-11355000D01*
X20650000Y-11402500D01*
X20900000Y-11402500D02*
X20947500Y-11355000D01*
X20900000Y-11307500D01*
X20852500Y-11355000D01*
X20900000Y-11402500D01*
X20900000Y-12413333D02*
X20947500Y-12365833D01*
X20900000Y-12318333D01*
X20852500Y-12365833D01*
X20900000Y-12413333D01*
X20900000Y-13529167D02*
X20947500Y-13481667D01*
X20900000Y-13434167D01*
X20852500Y-13481667D01*
X20900000Y-13529167D01*
X20900000Y-14645000D02*
X20947500Y-14597500D01*
X20900000Y-14550000D01*
X20852500Y-14597500D01*
X20900000Y-14645000D01*
X21150000Y-11402500D02*
X21197500Y-11355000D01*
X21150000Y-11307500D01*
X21102500Y-11355000D01*
X21150000Y-11402500D01*
X21150000Y-12413333D02*
X21197500Y-12365833D01*
X21150000Y-12318333D01*
X21102500Y-12365833D01*
X21150000Y-12413333D01*
X21150000Y-13529167D02*
X21197500Y-13481667D01*
X21150000Y-13434167D01*
X21102500Y-13481667D01*
X21150000Y-13529167D01*
X21150000Y-14645000D02*
X21197500Y-14597500D01*
X21150000Y-14550000D01*
X21102500Y-14597500D01*
X21150000Y-14645000D01*
X21400000Y-11402500D02*
X21447500Y-11355000D01*
X21400000Y-11307500D01*
X21352500Y-11355000D01*
X21400000Y-11402500D01*
X21400000Y-12413333D02*
X21447500Y-12365833D01*
X21400000Y-12318333D01*
X21352500Y-12365833D01*
X21400000Y-12413333D01*
X21400000Y-13529167D02*
X21447500Y-13481667D01*
X21400000Y-13434167D01*
X21352500Y-13481667D01*
X21400000Y-13529167D01*
X21400000Y-14645000D02*
X21447500Y-14597500D01*
X21400000Y-14550000D01*
X21352500Y-14597500D01*
X21400000Y-14645000D01*
X22200000Y-11297500D02*
X22247500Y-11250000D01*
X22200000Y-11202500D01*
X22152500Y-11250000D01*
X22200000Y-11297500D01*
X22200000Y-12413333D02*
X22247500Y-12365833D01*
X22200000Y-12318333D01*
X22152500Y-12365833D01*
X22200000Y-12413333D01*
X22200000Y-13529167D02*
X22247500Y-13481667D01*
X22200000Y-13434167D01*
X22152500Y-13481667D01*
X22200000Y-13529167D01*
X22200000Y-14645000D02*
X22247500Y-14597500D01*
X22200000Y-14550000D01*
X22152500Y-14597500D01*
X22200000Y-14645000D01*
X22450000Y-11297500D02*
X22497500Y-11250000D01*
X22450000Y-11202500D01*
X22402500Y-11250000D01*
X22450000Y-11297500D01*
X22450000Y-12413333D02*
X22497500Y-12365833D01*
X22450000Y-12318333D01*
X22402500Y-12365833D01*
X22450000Y-12413333D01*
X22450000Y-13529167D02*
X22497500Y-13481667D01*
X22450000Y-13434167D01*
X22402500Y-13481667D01*
X22450000Y-13529167D01*
X22450000Y-14645000D02*
X22497500Y-14597500D01*
X22450000Y-14550000D01*
X22402500Y-14597500D01*
X22450000Y-14645000D01*
X22700000Y-11297500D02*
X22747500Y-11250000D01*
X22700000Y-11202500D01*
X22652500Y-11250000D01*
X22700000Y-11297500D01*
X22700000Y-12413333D02*
X22747500Y-12365833D01*
X22700000Y-12318333D01*
X22652500Y-12365833D01*
X22700000Y-12413333D01*
X22700000Y-13529167D02*
X22747500Y-13481667D01*
X22700000Y-13434167D01*
X22652500Y-13481667D01*
X22700000Y-13529167D01*
X22700000Y-14645000D02*
X22747500Y-14597500D01*
X22700000Y-14550000D01*
X22652500Y-14597500D01*
X22700000Y-14645000D01*
D17*
X12496000Y-7756850D02*
X12596000Y-7856850D01*
X12596000Y-7756850D02*
X12496000Y-7856850D01*
X12596000Y-7806850D02*
G75*
G03*
X12596000Y-7806850I-50000J0D01*
G01*
X12496000Y-8010850D02*
X12596000Y-8110850D01*
X12596000Y-8010850D02*
X12496000Y-8110850D01*
X12596000Y-8060850D02*
G75*
G03*
X12596000Y-8060850I-50000J0D01*
G01*
X12496000Y-8264850D02*
X12596000Y-8364850D01*
X12596000Y-8264850D02*
X12496000Y-8364850D01*
X12596000Y-8314850D02*
G75*
G03*
X12596000Y-8314850I-50000J0D01*
G01*
X12496000Y-8518850D02*
X12596000Y-8618850D01*
X12596000Y-8518850D02*
X12496000Y-8618850D01*
X12596000Y-8568850D02*
G75*
G03*
X12596000Y-8568850I-50000J0D01*
G01*
X12496000Y-8772850D02*
X12596000Y-8872850D01*
X12596000Y-8772850D02*
X12496000Y-8872850D01*
X12596000Y-8822850D02*
G75*
G03*
X12596000Y-8822850I-50000J0D01*
G01*
X12496000Y-9026850D02*
X12596000Y-9126850D01*
X12596000Y-9026850D02*
X12496000Y-9126850D01*
X12596000Y-9076850D02*
G75*
G03*
X12596000Y-9076850I-50000J0D01*
G01*
X12496000Y-9280850D02*
X12596000Y-9380850D01*
X12596000Y-9280850D02*
X12496000Y-9380850D01*
X12596000Y-9330850D02*
G75*
G03*
X12596000Y-9330850I-50000J0D01*
G01*
X12496000Y-9534850D02*
X12596000Y-9634850D01*
X12596000Y-9534850D02*
X12496000Y-9634850D01*
X12596000Y-9584850D02*
G75*
G03*
X12596000Y-9584850I-50000J0D01*
G01*
X12496000Y-9788850D02*
X12596000Y-9888850D01*
X12596000Y-9788850D02*
X12496000Y-9888850D01*
X12596000Y-9838850D02*
G75*
G03*
X12596000Y-9838850I-50000J0D01*
G01*
X12750000Y-7756850D02*
X12850000Y-7856850D01*
X12850000Y-7756850D02*
X12750000Y-7856850D01*
X12850000Y-7806850D02*
G75*
G03*
X12850000Y-7806850I-50000J0D01*
G01*
X12750000Y-8010850D02*
X12850000Y-8110850D01*
X12850000Y-8010850D02*
X12750000Y-8110850D01*
X12850000Y-8060850D02*
G75*
G03*
X12850000Y-8060850I-50000J0D01*
G01*
X12750000Y-8264850D02*
X12850000Y-8364850D01*
X12850000Y-8264850D02*
X12750000Y-8364850D01*
X12850000Y-8314850D02*
G75*
G03*
X12850000Y-8314850I-50000J0D01*
G01*
X12750000Y-8518850D02*
X12850000Y-8618850D01*
X12850000Y-8518850D02*
X12750000Y-8618850D01*
X12850000Y-8568850D02*
G75*
G03*
X12850000Y-8568850I-50000J0D01*
G01*
X12750000Y-8772850D02*
X12850000Y-8872850D01*
X12850000Y-8772850D02*
X12750000Y-8872850D01*
X12850000Y-8822850D02*
G75*
G03*
X12850000Y-8822850I-50000J0D01*
G01*
X12750000Y-9026850D02*
X12850000Y-9126850D01*
X12850000Y-9026850D02*
X12750000Y-9126850D01*
X12850000Y-9076850D02*
G75*
G03*
X12850000Y-9076850I-50000J0D01*
G01*
X12750000Y-9280850D02*
X12850000Y-9380850D01*
X12850000Y-9280850D02*
X12750000Y-9380850D01*
X12850000Y-9330850D02*
G75*
G03*
X12850000Y-9330850I-50000J0D01*
G01*
X12750000Y-9534850D02*
X12850000Y-9634850D01*
X12850000Y-9534850D02*
X12750000Y-9634850D01*
X12850000Y-9584850D02*
G75*
G03*
X12850000Y-9584850I-50000J0D01*
G01*
X12750000Y-9788850D02*
X12850000Y-9888850D01*
X12850000Y-9788850D02*
X12750000Y-9888850D01*
X12850000Y-9838850D02*
G75*
G03*
X12850000Y-9838850I-50000J0D01*
G01*
X13125000Y-11838000D02*
X13225000Y-11938000D01*
X13225000Y-11838000D02*
X13125000Y-11938000D01*
X13225000Y-11888000D02*
G75*
G03*
X13225000Y-11888000I-50000J0D01*
G01*
X13125000Y-13362000D02*
X13225000Y-13462000D01*
X13225000Y-13362000D02*
X13125000Y-13462000D01*
X13225000Y-13412000D02*
G75*
G03*
X13225000Y-13412000I-50000J0D01*
G01*
X13303760Y-4250000D02*
X13403760Y-4350000D01*
X13403760Y-4250000D02*
X13303760Y-4350000D01*
X13403760Y-4300000D02*
G75*
G03*
X13403760Y-4300000I-50000J0D01*
G01*
X13303760Y-5869380D02*
X13403760Y-5969380D01*
X13403760Y-5869380D02*
X13303760Y-5969380D01*
X13403760Y-5919380D02*
G75*
G03*
X13403760Y-5919380I-50000J0D01*
G01*
X13379000Y-11838000D02*
X13479000Y-11938000D01*
X13479000Y-11838000D02*
X13379000Y-11938000D01*
X13479000Y-11888000D02*
G75*
G03*
X13479000Y-11888000I-50000J0D01*
G01*
X13379000Y-13362000D02*
X13479000Y-13462000D01*
X13479000Y-13362000D02*
X13379000Y-13462000D01*
X13479000Y-13412000D02*
G75*
G03*
X13479000Y-13412000I-50000J0D01*
G01*
X13553760Y-4250000D02*
X13653760Y-4350000D01*
X13653760Y-4250000D02*
X13553760Y-4350000D01*
X13653760Y-4300000D02*
G75*
G03*
X13653760Y-4300000I-50000J0D01*
G01*
X13553760Y-5869380D02*
X13653760Y-5969380D01*
X13653760Y-5869380D02*
X13553760Y-5969380D01*
X13653760Y-5919380D02*
G75*
G03*
X13653760Y-5919380I-50000J0D01*
G01*
X13633000Y-11838000D02*
X13733000Y-11938000D01*
X13733000Y-11838000D02*
X13633000Y-11938000D01*
X13733000Y-11888000D02*
G75*
G03*
X13733000Y-11888000I-50000J0D01*
G01*
X13633000Y-13362000D02*
X13733000Y-13462000D01*
X13733000Y-13362000D02*
X13633000Y-13462000D01*
X13733000Y-13412000D02*
G75*
G03*
X13733000Y-13412000I-50000J0D01*
G01*
X13887000Y-11838000D02*
X13987000Y-11938000D01*
X13987000Y-11838000D02*
X13887000Y-11938000D01*
X13987000Y-11888000D02*
G75*
G03*
X13987000Y-11888000I-50000J0D01*
G01*
X13887000Y-13362000D02*
X13987000Y-13462000D01*
X13987000Y-13362000D02*
X13887000Y-13462000D01*
X13987000Y-13412000D02*
G75*
G03*
X13987000Y-13412000I-50000J0D01*
G01*
X14073000Y-7756850D02*
X14173000Y-7856850D01*
X14173000Y-7756850D02*
X14073000Y-7856850D01*
X14173000Y-7806850D02*
G75*
G03*
X14173000Y-7806850I-50000J0D01*
G01*
X14073000Y-8010850D02*
X14173000Y-8110850D01*
X14173000Y-8010850D02*
X14073000Y-8110850D01*
X14173000Y-8060850D02*
G75*
G03*
X14173000Y-8060850I-50000J0D01*
G01*
X14073000Y-8264850D02*
X14173000Y-8364850D01*
X14173000Y-8264850D02*
X14073000Y-8364850D01*
X14173000Y-8314850D02*
G75*
G03*
X14173000Y-8314850I-50000J0D01*
G01*
X14073000Y-8518850D02*
X14173000Y-8618850D01*
X14173000Y-8518850D02*
X14073000Y-8618850D01*
X14173000Y-8568850D02*
G75*
G03*
X14173000Y-8568850I-50000J0D01*
G01*
X14073000Y-8772850D02*
X14173000Y-8872850D01*
X14173000Y-8772850D02*
X14073000Y-8872850D01*
X14173000Y-8822850D02*
G75*
G03*
X14173000Y-8822850I-50000J0D01*
G01*
X14073000Y-9026850D02*
X14173000Y-9126850D01*
X14173000Y-9026850D02*
X14073000Y-9126850D01*
X14173000Y-9076850D02*
G75*
G03*
X14173000Y-9076850I-50000J0D01*
G01*
X14073000Y-9280850D02*
X14173000Y-9380850D01*
X14173000Y-9280850D02*
X14073000Y-9380850D01*
X14173000Y-9330850D02*
G75*
G03*
X14173000Y-9330850I-50000J0D01*
G01*
X14073000Y-9534850D02*
X14173000Y-9634850D01*
X14173000Y-9534850D02*
X14073000Y-9634850D01*
X14173000Y-9584850D02*
G75*
G03*
X14173000Y-9584850I-50000J0D01*
G01*
X14073000Y-9788850D02*
X14173000Y-9888850D01*
X14173000Y-9788850D02*
X14073000Y-9888850D01*
X14173000Y-9838850D02*
G75*
G03*
X14173000Y-9838850I-50000J0D01*
G01*
X14141000Y-11838000D02*
X14241000Y-11938000D01*
X14241000Y-11838000D02*
X14141000Y-11938000D01*
X14241000Y-11888000D02*
G75*
G03*
X14241000Y-11888000I-50000J0D01*
G01*
X14141000Y-13362000D02*
X14241000Y-13462000D01*
X14241000Y-13362000D02*
X14141000Y-13462000D01*
X14241000Y-13412000D02*
G75*
G03*
X14241000Y-13412000I-50000J0D01*
G01*
X14327000Y-7756850D02*
X14427000Y-7856850D01*
X14427000Y-7756850D02*
X14327000Y-7856850D01*
X14427000Y-7806850D02*
G75*
G03*
X14427000Y-7806850I-50000J0D01*
G01*
X14327000Y-8010850D02*
X14427000Y-8110850D01*
X14427000Y-8010850D02*
X14327000Y-8110850D01*
X14427000Y-8060850D02*
G75*
G03*
X14427000Y-8060850I-50000J0D01*
G01*
X14327000Y-8264850D02*
X14427000Y-8364850D01*
X14427000Y-8264850D02*
X14327000Y-8364850D01*
X14427000Y-8314850D02*
G75*
G03*
X14427000Y-8314850I-50000J0D01*
G01*
X14327000Y-8518850D02*
X14427000Y-8618850D01*
X14427000Y-8518850D02*
X14327000Y-8618850D01*
X14427000Y-8568850D02*
G75*
G03*
X14427000Y-8568850I-50000J0D01*
G01*
X14327000Y-8772850D02*
X14427000Y-8872850D01*
X14427000Y-8772850D02*
X14327000Y-8872850D01*
X14427000Y-8822850D02*
G75*
G03*
X14427000Y-8822850I-50000J0D01*
G01*
X14327000Y-9026850D02*
X14427000Y-9126850D01*
X14427000Y-9026850D02*
X14327000Y-9126850D01*
X14427000Y-9076850D02*
G75*
G03*
X14427000Y-9076850I-50000J0D01*
G01*
X14327000Y-9280850D02*
X14427000Y-9380850D01*
X14427000Y-9280850D02*
X14327000Y-9380850D01*
X14427000Y-9330850D02*
G75*
G03*
X14427000Y-9330850I-50000J0D01*
G01*
X14327000Y-9534850D02*
X14427000Y-9634850D01*
X14427000Y-9534850D02*
X14327000Y-9634850D01*
X14427000Y-9584850D02*
G75*
G03*
X14427000Y-9584850I-50000J0D01*
G01*
X14327000Y-9788850D02*
X14427000Y-9888850D01*
X14427000Y-9788850D02*
X14327000Y-9888850D01*
X14427000Y-9838850D02*
G75*
G03*
X14427000Y-9838850I-50000J0D01*
G01*
X14395000Y-11838000D02*
X14495000Y-11938000D01*
X14495000Y-11838000D02*
X14395000Y-11938000D01*
X14495000Y-11888000D02*
G75*
G03*
X14495000Y-11888000I-50000J0D01*
G01*
X14395000Y-13362000D02*
X14495000Y-13462000D01*
X14495000Y-13362000D02*
X14395000Y-13462000D01*
X14495000Y-13412000D02*
G75*
G03*
X14495000Y-13412000I-50000J0D01*
G01*
X14649000Y-11838000D02*
X14749000Y-11938000D01*
X14749000Y-11838000D02*
X14649000Y-11938000D01*
X14749000Y-11888000D02*
G75*
G03*
X14749000Y-11888000I-50000J0D01*
G01*
X14649000Y-13362000D02*
X14749000Y-13462000D01*
X14749000Y-13362000D02*
X14649000Y-13462000D01*
X14749000Y-13412000D02*
G75*
G03*
X14749000Y-13412000I-50000J0D01*
G01*
X14903000Y-11838000D02*
X15003000Y-11938000D01*
X15003000Y-11838000D02*
X14903000Y-11938000D01*
X15003000Y-11888000D02*
G75*
G03*
X15003000Y-11888000I-50000J0D01*
G01*
X14903000Y-13362000D02*
X15003000Y-13462000D01*
X15003000Y-13362000D02*
X14903000Y-13462000D01*
X15003000Y-13412000D02*
G75*
G03*
X15003000Y-13412000I-50000J0D01*
G01*
X14964380Y-4250000D02*
X15064380Y-4350000D01*
X15064380Y-4250000D02*
X14964380Y-4350000D01*
X15064380Y-4300000D02*
G75*
G03*
X15064380Y-4300000I-50000J0D01*
G01*
X14964380Y-5869380D02*
X15064380Y-5969380D01*
X15064380Y-5869380D02*
X14964380Y-5969380D01*
X15064380Y-5919380D02*
G75*
G03*
X15064380Y-5919380I-50000J0D01*
G01*
X15214380Y-4250000D02*
X15314380Y-4350000D01*
X15314380Y-4250000D02*
X15214380Y-4350000D01*
X15314380Y-4300000D02*
G75*
G03*
X15314380Y-4300000I-50000J0D01*
G01*
X15214380Y-5869380D02*
X15314380Y-5969380D01*
X15314380Y-5869380D02*
X15214380Y-5969380D01*
X15314380Y-5919380D02*
G75*
G03*
X15314380Y-5919380I-50000J0D01*
G01*
X15300000Y-10095000D02*
X15400000Y-10195000D01*
X15400000Y-10095000D02*
X15300000Y-10195000D01*
X15400000Y-10145000D02*
G75*
G03*
X15400000Y-10145000I-50000J0D01*
G01*
X15550000Y-10095000D02*
X15650000Y-10195000D01*
X15650000Y-10095000D02*
X15550000Y-10195000D01*
X15650000Y-10145000D02*
G75*
G03*
X15650000Y-10145000I-50000J0D01*
G01*
X15800000Y-10095000D02*
X15900000Y-10195000D01*
X15900000Y-10095000D02*
X15800000Y-10195000D01*
X15900000Y-10145000D02*
G75*
G03*
X15900000Y-10145000I-50000J0D01*
G01*
X16625000Y-4249999D02*
X16725000Y-4349999D01*
X16725000Y-4249999D02*
X16625000Y-4349999D01*
X16725000Y-4299999D02*
G75*
G03*
X16725000Y-4299999I-50000J0D01*
G01*
X16625000Y-5869380D02*
X16725000Y-5969380D01*
X16725000Y-5869380D02*
X16625000Y-5969380D01*
X16725000Y-5919380D02*
G75*
G03*
X16725000Y-5919380I-50000J0D01*
G01*
X16875000Y-4249999D02*
X16975000Y-4349999D01*
X16975000Y-4249999D02*
X16875000Y-4349999D01*
X16975000Y-4299999D02*
G75*
G03*
X16975000Y-4299999I-50000J0D01*
G01*
X16875000Y-5869380D02*
X16975000Y-5969380D01*
X16975000Y-5869380D02*
X16875000Y-5969380D01*
X16975000Y-5919380D02*
G75*
G03*
X16975000Y-5919380I-50000J0D01*
G01*
X21725000Y-4343000D02*
X21825000Y-4443000D01*
X21825000Y-4343000D02*
X21725000Y-4443000D01*
X21825000Y-4393000D02*
G75*
G03*
X21825000Y-4393000I-50000J0D01*
G01*
X21725000Y-4593000D02*
X21825000Y-4693000D01*
X21825000Y-4593000D02*
X21725000Y-4693000D01*
X21825000Y-4643000D02*
G75*
G03*
X21825000Y-4643000I-50000J0D01*
G01*
X21725000Y-5384000D02*
X21825000Y-5484000D01*
X21825000Y-5384000D02*
X21725000Y-5484000D01*
X21825000Y-5434000D02*
G75*
G03*
X21825000Y-5434000I-50000J0D01*
G01*
X21725000Y-5634000D02*
X21825000Y-5734000D01*
X21825000Y-5634000D02*
X21725000Y-5734000D01*
X21825000Y-5684000D02*
G75*
G03*
X21825000Y-5684000I-50000J0D01*
G01*
X21725000Y-6425000D02*
X21825000Y-6525000D01*
X21825000Y-6425000D02*
X21725000Y-6525000D01*
X21825000Y-6475000D02*
G75*
G03*
X21825000Y-6475000I-50000J0D01*
G01*
X21725000Y-6675000D02*
X21825000Y-6775000D01*
X21825000Y-6675000D02*
X21725000Y-6775000D01*
X21825000Y-6725000D02*
G75*
G03*
X21825000Y-6725000I-50000J0D01*
G01*
X22652500Y-4344999D02*
X22752500Y-4444999D01*
X22752500Y-4344999D02*
X22652500Y-4444999D01*
X22752500Y-4394999D02*
G75*
G03*
X22752500Y-4394999I-50000J0D01*
G01*
X22652500Y-4594999D02*
X22752500Y-4694999D01*
X22752500Y-4594999D02*
X22652500Y-4694999D01*
X22752500Y-4644999D02*
G75*
G03*
X22752500Y-4644999I-50000J0D01*
G01*
X22652500Y-5386000D02*
X22752500Y-5486000D01*
X22752500Y-5386000D02*
X22652500Y-5486000D01*
X22752500Y-5436000D02*
G75*
G03*
X22752500Y-5436000I-50000J0D01*
G01*
X22652500Y-5636000D02*
X22752500Y-5736000D01*
X22752500Y-5636000D02*
X22652500Y-5736000D01*
X22752500Y-5686000D02*
G75*
G03*
X22752500Y-5686000I-50000J0D01*
G01*
X22652500Y-6427000D02*
X22752500Y-6527000D01*
X22752500Y-6427000D02*
X22652500Y-6527000D01*
X22752500Y-6477000D02*
G75*
G03*
X22752500Y-6477000I-50000J0D01*
G01*
X22652500Y-6677000D02*
X22752500Y-6777000D01*
X22752500Y-6677000D02*
X22652500Y-6777000D01*
X22752500Y-6727000D02*
G75*
G03*
X22752500Y-6727000I-50000J0D01*
G01*
D18*
X13293910Y-5026010D02*
X13403130Y-5135230D01*
X13403130Y-5026010D02*
X13293910Y-5135230D01*
X13348520Y-5026010D02*
X13348520Y-5135230D01*
X13293910Y-5080620D02*
X13403130Y-5080620D01*
X13293910Y-6645389D02*
X13403130Y-6754609D01*
X13403130Y-6645389D02*
X13293910Y-6754609D01*
X13348520Y-6645389D02*
X13348520Y-6754609D01*
X13293910Y-6699999D02*
X13403130Y-6699999D01*
X13522510Y-5026010D02*
X13631730Y-5135230D01*
X13631730Y-5026010D02*
X13522510Y-5135230D01*
X13577120Y-5026010D02*
X13577120Y-5135230D01*
X13522510Y-5080620D02*
X13631730Y-5080620D01*
X13522510Y-6645389D02*
X13631730Y-6754609D01*
X13631730Y-6645389D02*
X13522510Y-6754609D01*
X13577120Y-6645389D02*
X13577120Y-6754609D01*
X13522510Y-6699999D02*
X13631730Y-6699999D01*
X13751110Y-5026010D02*
X13860330Y-5135230D01*
X13860330Y-5026010D02*
X13751110Y-5135230D01*
X13805720Y-5026010D02*
X13805720Y-5135230D01*
X13751110Y-5080620D02*
X13860330Y-5080620D01*
X13751110Y-6645389D02*
X13860330Y-6754609D01*
X13860330Y-6645389D02*
X13751110Y-6754609D01*
X13805720Y-6645389D02*
X13805720Y-6754609D01*
X13751110Y-6699999D02*
X13860330Y-6699999D01*
X14954530Y-5026010D02*
X15063750Y-5135230D01*
X15063750Y-5026010D02*
X14954530Y-5135230D01*
X15009140Y-5026010D02*
X15009140Y-5135230D01*
X14954530Y-5080620D02*
X15063750Y-5080620D01*
X14954530Y-6645390D02*
X15063750Y-6754610D01*
X15063750Y-6645390D02*
X14954530Y-6754610D01*
X15009140Y-6645390D02*
X15009140Y-6754610D01*
X14954530Y-6700000D02*
X15063750Y-6700000D01*
X15183130Y-5026010D02*
X15292350Y-5135230D01*
X15292350Y-5026010D02*
X15183130Y-5135230D01*
X15237740Y-5026010D02*
X15237740Y-5135230D01*
X15183130Y-5080620D02*
X15292350Y-5080620D01*
X15183130Y-6645390D02*
X15292350Y-6754610D01*
X15292350Y-6645390D02*
X15183130Y-6754610D01*
X15237740Y-6645390D02*
X15237740Y-6754610D01*
X15183130Y-6700000D02*
X15292350Y-6700000D01*
X15411730Y-5026010D02*
X15520950Y-5135230D01*
X15520950Y-5026010D02*
X15411730Y-5135230D01*
X15466340Y-5026010D02*
X15466340Y-5135230D01*
X15411730Y-5080620D02*
X15520950Y-5080620D01*
X15411730Y-6645390D02*
X15520950Y-6754610D01*
X15520950Y-6645390D02*
X15411730Y-6754610D01*
X15466340Y-6645390D02*
X15466340Y-6754610D01*
X15411730Y-6700000D02*
X15520950Y-6700000D01*
X16615150Y-5026009D02*
X16724370Y-5135229D01*
X16724370Y-5026009D02*
X16615150Y-5135229D01*
X16669760Y-5026009D02*
X16669760Y-5135229D01*
X16615150Y-5080619D02*
X16724370Y-5080619D01*
X16615150Y-6645390D02*
X16724370Y-6754610D01*
X16724370Y-6645390D02*
X16615150Y-6754610D01*
X16669760Y-6645390D02*
X16669760Y-6754610D01*
X16615150Y-6700000D02*
X16724370Y-6700000D01*
X16843750Y-5026009D02*
X16952970Y-5135229D01*
X16952970Y-5026009D02*
X16843750Y-5135229D01*
X16898360Y-5026009D02*
X16898360Y-5135229D01*
X16843750Y-5080619D02*
X16952970Y-5080619D01*
X16843750Y-6645390D02*
X16952970Y-6754610D01*
X16952970Y-6645390D02*
X16843750Y-6754610D01*
X16898360Y-6645390D02*
X16898360Y-6754610D01*
X16843750Y-6700000D02*
X16952970Y-6700000D01*
X17072350Y-5026009D02*
X17181570Y-5135229D01*
X17181570Y-5026009D02*
X17072350Y-5135229D01*
X17126960Y-5026009D02*
X17126960Y-5135229D01*
X17072350Y-5080619D02*
X17181570Y-5080619D01*
X17072350Y-6645390D02*
X17181570Y-6754610D01*
X17181570Y-6645390D02*
X17072350Y-6754610D01*
X17126960Y-6645390D02*
X17126960Y-6754610D01*
X17072350Y-6700000D02*
X17181570Y-6700000D01*
D19*
X14248760Y-4229000D02*
X14358760Y-4339000D01*
X14358760Y-4229000D02*
X14248760Y-4339000D01*
X14342651Y-4322891D02*
X14342651Y-4245109D01*
X14264869Y-4245109D01*
X14264869Y-4322891D01*
X14342651Y-4322891D01*
X14248760Y-5245000D02*
X14358760Y-5355000D01*
X14358760Y-5245000D02*
X14248760Y-5355000D01*
X14342651Y-5338891D02*
X14342651Y-5261109D01*
X14264869Y-5261109D01*
X14264869Y-5338891D01*
X14342651Y-5338891D01*
X14248760Y-5848380D02*
X14358760Y-5958380D01*
X14358760Y-5848380D02*
X14248760Y-5958380D01*
X14342651Y-5942271D02*
X14342651Y-5864489D01*
X14264869Y-5864489D01*
X14264869Y-5942271D01*
X14342651Y-5942271D01*
X14248760Y-6864380D02*
X14358760Y-6974380D01*
X14358760Y-6864380D02*
X14248760Y-6974380D01*
X14342651Y-6958271D02*
X14342651Y-6880489D01*
X14264869Y-6880489D01*
X14264869Y-6958271D01*
X14342651Y-6958271D01*
X15741000Y-8450100D02*
X15851000Y-8560100D01*
X15851000Y-8450100D02*
X15741000Y-8560100D01*
X15834891Y-8543991D02*
X15834891Y-8466209D01*
X15757109Y-8466209D01*
X15757109Y-8543991D01*
X15834891Y-8543991D01*
X15909380Y-4229000D02*
X16019380Y-4339000D01*
X16019380Y-4229000D02*
X15909380Y-4339000D01*
X16003271Y-4322891D02*
X16003271Y-4245109D01*
X15925489Y-4245109D01*
X15925489Y-4322891D01*
X16003271Y-4322891D01*
X15909380Y-5245000D02*
X16019380Y-5355000D01*
X16019380Y-5245000D02*
X15909380Y-5355000D01*
X16003271Y-5338891D02*
X16003271Y-5261109D01*
X15925489Y-5261109D01*
X15925489Y-5338891D01*
X16003271Y-5338891D01*
X15909380Y-5848380D02*
X16019380Y-5958380D01*
X16019380Y-5848380D02*
X15909380Y-5958380D01*
X16003271Y-5942271D02*
X16003271Y-5864489D01*
X15925489Y-5864489D01*
X15925489Y-5942271D01*
X16003271Y-5942271D01*
X15909380Y-6864380D02*
X16019380Y-6974380D01*
X16019380Y-6864380D02*
X15909380Y-6974380D01*
X16003271Y-6958271D02*
X16003271Y-6880489D01*
X15925489Y-6880489D01*
X15925489Y-6958271D01*
X16003271Y-6958271D01*
X15995000Y-8450100D02*
X16105000Y-8560100D01*
X16105000Y-8450100D02*
X15995000Y-8560100D01*
X16088891Y-8543991D02*
X16088891Y-8466209D01*
X16011109Y-8466209D01*
X16011109Y-8543991D01*
X16088891Y-8543991D01*
X16249000Y-8450100D02*
X16359000Y-8560100D01*
X16359000Y-8450100D02*
X16249000Y-8560100D01*
X16342891Y-8543991D02*
X16342891Y-8466209D01*
X16265109Y-8466209D01*
X16265109Y-8543991D01*
X16342891Y-8543991D01*
X17183000Y-8824000D02*
X17293000Y-8934000D01*
X17293000Y-8824000D02*
X17183000Y-8934000D01*
X17276891Y-8917891D02*
X17276891Y-8840109D01*
X17199109Y-8840109D01*
X17199109Y-8917891D01*
X17276891Y-8917891D01*
X17183000Y-9078000D02*
X17293000Y-9188000D01*
X17293000Y-9078000D02*
X17183000Y-9188000D01*
X17276891Y-9171891D02*
X17276891Y-9094109D01*
X17199109Y-9094109D01*
X17199109Y-9171891D01*
X17276891Y-9171891D01*
X17183000Y-9332000D02*
X17293000Y-9442000D01*
X17293000Y-9332000D02*
X17183000Y-9442000D01*
X17276891Y-9425891D02*
X17276891Y-9348109D01*
X17199109Y-9348109D01*
X17199109Y-9425891D01*
X17276891Y-9425891D01*
X17183000Y-9586000D02*
X17293000Y-9696000D01*
X17293000Y-9586000D02*
X17183000Y-9696000D01*
X17276891Y-9679891D02*
X17276891Y-9602109D01*
X17199109Y-9602109D01*
X17199109Y-9679891D01*
X17276891Y-9679891D01*
X17183000Y-9840000D02*
X17293000Y-9950000D01*
X17293000Y-9840000D02*
X17183000Y-9950000D01*
X17276891Y-9933891D02*
X17276891Y-9856109D01*
X17199109Y-9856109D01*
X17199109Y-9933891D01*
X17276891Y-9933891D01*
X17183000Y-10094000D02*
X17293000Y-10204000D01*
X17293000Y-10094000D02*
X17183000Y-10204000D01*
X17276891Y-10187891D02*
X17276891Y-10110109D01*
X17199109Y-10110109D01*
X17199109Y-10187891D01*
X17276891Y-10187891D01*
X17183000Y-10348000D02*
X17293000Y-10458000D01*
X17293000Y-10348000D02*
X17183000Y-10458000D01*
X17276891Y-10441891D02*
X17276891Y-10364109D01*
X17199109Y-10364109D01*
X17199109Y-10441891D01*
X17276891Y-10441891D01*
X17183000Y-10602000D02*
X17293000Y-10712000D01*
X17293000Y-10602000D02*
X17183000Y-10712000D01*
X17276891Y-10695891D02*
X17276891Y-10618109D01*
X17199109Y-10618109D01*
X17199109Y-10695891D01*
X17276891Y-10695891D01*
X17183000Y-10856000D02*
X17293000Y-10966000D01*
X17293000Y-10856000D02*
X17183000Y-10966000D01*
X17276891Y-10949891D02*
X17276891Y-10872109D01*
X17199109Y-10872109D01*
X17199109Y-10949891D01*
X17276891Y-10949891D01*
X17183000Y-11110000D02*
X17293000Y-11220000D01*
X17293000Y-11110000D02*
X17183000Y-11220000D01*
X17276891Y-11203891D02*
X17276891Y-11126109D01*
X17199109Y-11126109D01*
X17199109Y-11203891D01*
X17276891Y-11203891D01*
X17183000Y-11364000D02*
X17293000Y-11474000D01*
X17293000Y-11364000D02*
X17183000Y-11474000D01*
X17276891Y-11457891D02*
X17276891Y-11380109D01*
X17199109Y-11380109D01*
X17199109Y-11457891D01*
X17276891Y-11457891D01*
X17183000Y-11618000D02*
X17293000Y-11728000D01*
X17293000Y-11618000D02*
X17183000Y-11728000D01*
X17276891Y-11711891D02*
X17276891Y-11634109D01*
X17199109Y-11634109D01*
X17199109Y-11711891D01*
X17276891Y-11711891D01*
X17183000Y-11872000D02*
X17293000Y-11982000D01*
X17293000Y-11872000D02*
X17183000Y-11982000D01*
X17276891Y-11965891D02*
X17276891Y-11888109D01*
X17199109Y-11888109D01*
X17199109Y-11965891D01*
X17276891Y-11965891D01*
X17183000Y-12126000D02*
X17293000Y-12236000D01*
X17293000Y-12126000D02*
X17183000Y-12236000D01*
X17276891Y-12219891D02*
X17276891Y-12142109D01*
X17199109Y-12142109D01*
X17199109Y-12219891D01*
X17276891Y-12219891D01*
X17183000Y-12380000D02*
X17293000Y-12490000D01*
X17293000Y-12380000D02*
X17183000Y-12490000D01*
X17276891Y-12473891D02*
X17276891Y-12396109D01*
X17199109Y-12396109D01*
X17199109Y-12473891D01*
X17276891Y-12473891D01*
X17183000Y-12634000D02*
X17293000Y-12744000D01*
X17293000Y-12634000D02*
X17183000Y-12744000D01*
X17276891Y-12727891D02*
X17276891Y-12650109D01*
X17199109Y-12650109D01*
X17199109Y-12727891D01*
X17276891Y-12727891D01*
X17183000Y-12888000D02*
X17293000Y-12998000D01*
X17293000Y-12888000D02*
X17183000Y-12998000D01*
X17276891Y-12981891D02*
X17276891Y-12904109D01*
X17199109Y-12904109D01*
X17199109Y-12981891D01*
X17276891Y-12981891D01*
X17183000Y-13142000D02*
X17293000Y-13252000D01*
X17293000Y-13142000D02*
X17183000Y-13252000D01*
X17276891Y-13235891D02*
X17276891Y-13158109D01*
X17199109Y-13158109D01*
X17199109Y-13235891D01*
X17276891Y-13235891D01*
X17183000Y-13396000D02*
X17293000Y-13506000D01*
X17293000Y-13396000D02*
X17183000Y-13506000D01*
X17276891Y-13489891D02*
X17276891Y-13412109D01*
X17199109Y-13412109D01*
X17199109Y-13489891D01*
X17276891Y-13489891D01*
X17183000Y-13650000D02*
X17293000Y-13760000D01*
X17293000Y-13650000D02*
X17183000Y-13760000D01*
X17276891Y-13743891D02*
X17276891Y-13666109D01*
X17199109Y-13666109D01*
X17199109Y-13743891D01*
X17276891Y-13743891D01*
X17183000Y-13904000D02*
X17293000Y-14014000D01*
X17293000Y-13904000D02*
X17183000Y-14014000D01*
X17276891Y-13997891D02*
X17276891Y-13920109D01*
X17199109Y-13920109D01*
X17199109Y-13997891D01*
X17276891Y-13997891D01*
X17183000Y-14158000D02*
X17293000Y-14268000D01*
X17293000Y-14158000D02*
X17183000Y-14268000D01*
X17276891Y-14251891D02*
X17276891Y-14174109D01*
X17199109Y-14174109D01*
X17199109Y-14251891D01*
X17276891Y-14251891D01*
X17183000Y-14412000D02*
X17293000Y-14522000D01*
X17293000Y-14412000D02*
X17183000Y-14522000D01*
X17276891Y-14505891D02*
X17276891Y-14428109D01*
X17199109Y-14428109D01*
X17199109Y-14505891D01*
X17276891Y-14505891D01*
X17183000Y-14666000D02*
X17293000Y-14776000D01*
X17293000Y-14666000D02*
X17183000Y-14776000D01*
X17276891Y-14759891D02*
X17276891Y-14682109D01*
X17199109Y-14682109D01*
X17199109Y-14759891D01*
X17276891Y-14759891D01*
X17570000Y-4228999D02*
X17680000Y-4338999D01*
X17680000Y-4228999D02*
X17570000Y-4338999D01*
X17663891Y-4322891D02*
X17663891Y-4245108D01*
X17586109Y-4245108D01*
X17586109Y-4322891D01*
X17663891Y-4322891D01*
X17570000Y-5244999D02*
X17680000Y-5354999D01*
X17680000Y-5244999D02*
X17570000Y-5354999D01*
X17663891Y-5338891D02*
X17663891Y-5261108D01*
X17586109Y-5261108D01*
X17586109Y-5338891D01*
X17663891Y-5338891D01*
X17570000Y-5848380D02*
X17680000Y-5958380D01*
X17680000Y-5848380D02*
X17570000Y-5958380D01*
X17663891Y-5942271D02*
X17663891Y-5864489D01*
X17586109Y-5864489D01*
X17586109Y-5942271D01*
X17663891Y-5942271D01*
X17570000Y-6864380D02*
X17680000Y-6974380D01*
X17680000Y-6864380D02*
X17570000Y-6974380D01*
X17663891Y-6958271D02*
X17663891Y-6880489D01*
X17586109Y-6880489D01*
X17586109Y-6958271D01*
X17663891Y-6958271D01*
X18707000Y-8824000D02*
X18817000Y-8934000D01*
X18817000Y-8824000D02*
X18707000Y-8934000D01*
X18800891Y-8917891D02*
X18800891Y-8840109D01*
X18723109Y-8840109D01*
X18723109Y-8917891D01*
X18800891Y-8917891D01*
X18707000Y-9078000D02*
X18817000Y-9188000D01*
X18817000Y-9078000D02*
X18707000Y-9188000D01*
X18800891Y-9171891D02*
X18800891Y-9094109D01*
X18723109Y-9094109D01*
X18723109Y-9171891D01*
X18800891Y-9171891D01*
X18707000Y-9332000D02*
X18817000Y-9442000D01*
X18817000Y-9332000D02*
X18707000Y-9442000D01*
X18800891Y-9425891D02*
X18800891Y-9348109D01*
X18723109Y-9348109D01*
X18723109Y-9425891D01*
X18800891Y-9425891D01*
X18707000Y-9586000D02*
X18817000Y-9696000D01*
X18817000Y-9586000D02*
X18707000Y-9696000D01*
X18800891Y-9679891D02*
X18800891Y-9602109D01*
X18723109Y-9602109D01*
X18723109Y-9679891D01*
X18800891Y-9679891D01*
X18707000Y-9840000D02*
X18817000Y-9950000D01*
X18817000Y-9840000D02*
X18707000Y-9950000D01*
X18800891Y-9933891D02*
X18800891Y-9856109D01*
X18723109Y-9856109D01*
X18723109Y-9933891D01*
X18800891Y-9933891D01*
X18707000Y-10094000D02*
X18817000Y-10204000D01*
X18817000Y-10094000D02*
X18707000Y-10204000D01*
X18800891Y-10187891D02*
X18800891Y-10110109D01*
X18723109Y-10110109D01*
X18723109Y-10187891D01*
X18800891Y-10187891D01*
X18707000Y-10348000D02*
X18817000Y-10458000D01*
X18817000Y-10348000D02*
X18707000Y-10458000D01*
X18800891Y-10441891D02*
X18800891Y-10364109D01*
X18723109Y-10364109D01*
X18723109Y-10441891D01*
X18800891Y-10441891D01*
X18707000Y-10602000D02*
X18817000Y-10712000D01*
X18817000Y-10602000D02*
X18707000Y-10712000D01*
X18800891Y-10695891D02*
X18800891Y-10618109D01*
X18723109Y-10618109D01*
X18723109Y-10695891D01*
X18800891Y-10695891D01*
X18707000Y-10856000D02*
X18817000Y-10966000D01*
X18817000Y-10856000D02*
X18707000Y-10966000D01*
X18800891Y-10949891D02*
X18800891Y-10872109D01*
X18723109Y-10872109D01*
X18723109Y-10949891D01*
X18800891Y-10949891D01*
X18707000Y-11110000D02*
X18817000Y-11220000D01*
X18817000Y-11110000D02*
X18707000Y-11220000D01*
X18800891Y-11203891D02*
X18800891Y-11126109D01*
X18723109Y-11126109D01*
X18723109Y-11203891D01*
X18800891Y-11203891D01*
X18707000Y-11364000D02*
X18817000Y-11474000D01*
X18817000Y-11364000D02*
X18707000Y-11474000D01*
X18800891Y-11457891D02*
X18800891Y-11380109D01*
X18723109Y-11380109D01*
X18723109Y-11457891D01*
X18800891Y-11457891D01*
X18707000Y-11618000D02*
X18817000Y-11728000D01*
X18817000Y-11618000D02*
X18707000Y-11728000D01*
X18800891Y-11711891D02*
X18800891Y-11634109D01*
X18723109Y-11634109D01*
X18723109Y-11711891D01*
X18800891Y-11711891D01*
X18707000Y-11872000D02*
X18817000Y-11982000D01*
X18817000Y-11872000D02*
X18707000Y-11982000D01*
X18800891Y-11965891D02*
X18800891Y-11888109D01*
X18723109Y-11888109D01*
X18723109Y-11965891D01*
X18800891Y-11965891D01*
X18707000Y-12126000D02*
X18817000Y-12236000D01*
X18817000Y-12126000D02*
X18707000Y-12236000D01*
X18800891Y-12219891D02*
X18800891Y-12142109D01*
X18723109Y-12142109D01*
X18723109Y-12219891D01*
X18800891Y-12219891D01*
X18707000Y-12380000D02*
X18817000Y-12490000D01*
X18817000Y-12380000D02*
X18707000Y-12490000D01*
X18800891Y-12473891D02*
X18800891Y-12396109D01*
X18723109Y-12396109D01*
X18723109Y-12473891D01*
X18800891Y-12473891D01*
X18707000Y-12634000D02*
X18817000Y-12744000D01*
X18817000Y-12634000D02*
X18707000Y-12744000D01*
X18800891Y-12727891D02*
X18800891Y-12650109D01*
X18723109Y-12650109D01*
X18723109Y-12727891D01*
X18800891Y-12727891D01*
X18707000Y-12888000D02*
X18817000Y-12998000D01*
X18817000Y-12888000D02*
X18707000Y-12998000D01*
X18800891Y-12981891D02*
X18800891Y-12904109D01*
X18723109Y-12904109D01*
X18723109Y-12981891D01*
X18800891Y-12981891D01*
X18707000Y-13142000D02*
X18817000Y-13252000D01*
X18817000Y-13142000D02*
X18707000Y-13252000D01*
X18800891Y-13235891D02*
X18800891Y-13158109D01*
X18723109Y-13158109D01*
X18723109Y-13235891D01*
X18800891Y-13235891D01*
X18707000Y-13396000D02*
X18817000Y-13506000D01*
X18817000Y-13396000D02*
X18707000Y-13506000D01*
X18800891Y-13489891D02*
X18800891Y-13412109D01*
X18723109Y-13412109D01*
X18723109Y-13489891D01*
X18800891Y-13489891D01*
X18707000Y-13650000D02*
X18817000Y-13760000D01*
X18817000Y-13650000D02*
X18707000Y-13760000D01*
X18800891Y-13743891D02*
X18800891Y-13666109D01*
X18723109Y-13666109D01*
X18723109Y-13743891D01*
X18800891Y-13743891D01*
X18707000Y-13904000D02*
X18817000Y-14014000D01*
X18817000Y-13904000D02*
X18707000Y-14014000D01*
X18800891Y-13997891D02*
X18800891Y-13920109D01*
X18723109Y-13920109D01*
X18723109Y-13997891D01*
X18800891Y-13997891D01*
X18707000Y-14158000D02*
X18817000Y-14268000D01*
X18817000Y-14158000D02*
X18707000Y-14268000D01*
X18800891Y-14251891D02*
X18800891Y-14174109D01*
X18723109Y-14174109D01*
X18723109Y-14251891D01*
X18800891Y-14251891D01*
X18707000Y-14412000D02*
X18817000Y-14522000D01*
X18817000Y-14412000D02*
X18707000Y-14522000D01*
X18800891Y-14505891D02*
X18800891Y-14428109D01*
X18723109Y-14428109D01*
X18723109Y-14505891D01*
X18800891Y-14505891D01*
X18707000Y-14666000D02*
X18817000Y-14776000D01*
X18817000Y-14666000D02*
X18707000Y-14776000D01*
X18800891Y-14759891D02*
X18800891Y-14682109D01*
X18723109Y-14682109D01*
X18723109Y-14759891D01*
X18800891Y-14759891D01*
X19175500Y-6041300D02*
X19285500Y-6151300D01*
X19285500Y-6041300D02*
X19175500Y-6151300D01*
X19269391Y-6135191D02*
X19269391Y-6057409D01*
X19191609Y-6057409D01*
X19191609Y-6135191D01*
X19269391Y-6135191D01*
X19175500Y-6295300D02*
X19285500Y-6405300D01*
X19285500Y-6295300D02*
X19175500Y-6405300D01*
X19269391Y-6389191D02*
X19269391Y-6311409D01*
X19191609Y-6311409D01*
X19191609Y-6389191D01*
X19269391Y-6389191D01*
X19175500Y-6549300D02*
X19285500Y-6659300D01*
X19285500Y-6549300D02*
X19175500Y-6659300D01*
X19269391Y-6643191D02*
X19269391Y-6565409D01*
X19191609Y-6565409D01*
X19191609Y-6643191D01*
X19269391Y-6643191D01*
X22589500Y-8266000D02*
X22699500Y-8376000D01*
X22699500Y-8266000D02*
X22589500Y-8376000D01*
X22683391Y-8359891D02*
X22683391Y-8282109D01*
X22605609Y-8282109D01*
X22605609Y-8359891D01*
X22683391Y-8359891D01*
X22589500Y-8520000D02*
X22699500Y-8630000D01*
X22699500Y-8520000D02*
X22589500Y-8630000D01*
X22683391Y-8613891D02*
X22683391Y-8536109D01*
X22605609Y-8536109D01*
X22605609Y-8613891D01*
X22683391Y-8613891D01*
X22589500Y-8774000D02*
X22699500Y-8884000D01*
X22699500Y-8774000D02*
X22589500Y-8884000D01*
X22683391Y-8867891D02*
X22683391Y-8790109D01*
X22605609Y-8790109D01*
X22605609Y-8867891D01*
X22683391Y-8867891D01*
D20*
X13285230Y-14485230D02*
X13414770Y-14614770D01*
X13414770Y-14485230D02*
X13285230Y-14614770D01*
X13350000Y-14614770D02*
X13414770Y-14550000D01*
X13350000Y-14485230D01*
X13285230Y-14550000D01*
X13350000Y-14614770D01*
X13785230Y-14485230D02*
X13914770Y-14614770D01*
X13914770Y-14485230D02*
X13785230Y-14614770D01*
X13850000Y-14614770D02*
X13914770Y-14550000D01*
X13850000Y-14485230D01*
X13785230Y-14550000D01*
X13850000Y-14614770D01*
X14585231Y-14485229D02*
X14714771Y-14614769D01*
X14714771Y-14485229D02*
X14585231Y-14614769D01*
X14650001Y-14614769D02*
X14714771Y-14549999D01*
X14650001Y-14485229D01*
X14585231Y-14549999D01*
X14650001Y-14614769D01*
X15085231Y-14485229D02*
X15214771Y-14614769D01*
X15214771Y-14485229D02*
X15085231Y-14614769D01*
X15150001Y-14614769D02*
X15214771Y-14549999D01*
X15150001Y-14485229D01*
X15085231Y-14549999D01*
X15150001Y-14614769D01*
X18291530Y-4385230D02*
X18421070Y-4514770D01*
X18421070Y-4385230D02*
X18291530Y-4514770D01*
X18356300Y-4514770D02*
X18421070Y-4450000D01*
X18356300Y-4385230D01*
X18291530Y-4450000D01*
X18356300Y-4514770D01*
X18791530Y-4385230D02*
X18921070Y-4514770D01*
X18921070Y-4385230D02*
X18791530Y-4514770D01*
X18856300Y-4514770D02*
X18921070Y-4450000D01*
X18856300Y-4385230D01*
X18791530Y-4450000D01*
X18856300Y-4514770D01*
D21*
X12400001Y-4189999D02*
X12400001Y-4509999D01*
X12240001Y-4349999D02*
X12560001Y-4349999D01*
X12560001Y-4349999D02*
G75*
G03*
X12560001Y-4349999I-160000J0D01*
G01*
X12400001Y-14490001D02*
X12400001Y-14810001D01*
X12240001Y-14650001D02*
X12560001Y-14650001D01*
X12560001Y-14650001D02*
G75*
G03*
X12560001Y-14650001I-160000J0D01*
G01*
X23399999Y-4189999D02*
X23399999Y-4509999D01*
X23239999Y-4349999D02*
X23559999Y-4349999D01*
X23559999Y-4349999D02*
G75*
G03*
X23559999Y-4349999I-160000J0D01*
G01*
X23399999Y-14490001D02*
X23399999Y-14810001D01*
X23239999Y-14650001D02*
X23559999Y-14650001D01*
X23559999Y-14650001D02*
G75*
G03*
X23559999Y-14650001I-160000J0D01*
G01*
D11*
X12302619Y-15315476D02*
X12302619Y-15115476D01*
X12350238Y-15115476D01*
X12378809Y-15125000D01*
X12397857Y-15144048D01*
X12407381Y-15163095D01*
X12416905Y-15201190D01*
X12416905Y-15229762D01*
X12407381Y-15267857D01*
X12397857Y-15286905D01*
X12378809Y-15305952D01*
X12350238Y-15315476D01*
X12302619Y-15315476D01*
X12502619Y-15315476D02*
X12502619Y-15182143D01*
X12502619Y-15220238D02*
X12512143Y-15201190D01*
X12521667Y-15191667D01*
X12540714Y-15182143D01*
X12559762Y-15182143D01*
X12626428Y-15315476D02*
X12626428Y-15182143D01*
X12626428Y-15115476D02*
X12616905Y-15125000D01*
X12626428Y-15134524D01*
X12635952Y-15125000D01*
X12626428Y-15115476D01*
X12626428Y-15134524D01*
X12750238Y-15315476D02*
X12731190Y-15305952D01*
X12721667Y-15286905D01*
X12721667Y-15115476D01*
X12855000Y-15315476D02*
X12835952Y-15305952D01*
X12826428Y-15286905D01*
X12826428Y-15115476D01*
X13083571Y-15315476D02*
X13083571Y-15115476D01*
X13150238Y-15258333D01*
X13216905Y-15115476D01*
X13216905Y-15315476D01*
X13397857Y-15315476D02*
X13397857Y-15210714D01*
X13388333Y-15191667D01*
X13369286Y-15182143D01*
X13331190Y-15182143D01*
X13312143Y-15191667D01*
X13397857Y-15305952D02*
X13378809Y-15315476D01*
X13331190Y-15315476D01*
X13312143Y-15305952D01*
X13302619Y-15286905D01*
X13302619Y-15267857D01*
X13312143Y-15248809D01*
X13331190Y-15239286D01*
X13378809Y-15239286D01*
X13397857Y-15229762D01*
X13493095Y-15182143D02*
X13493095Y-15382143D01*
X13493095Y-15191667D02*
X13512143Y-15182143D01*
X13550238Y-15182143D01*
X13569286Y-15191667D01*
X13578809Y-15201190D01*
X13588333Y-15220238D01*
X13588333Y-15277381D01*
X13578809Y-15296428D01*
X13569286Y-15305952D01*
X13550238Y-15315476D01*
X13512143Y-15315476D01*
X13493095Y-15305952D01*
X13674048Y-15296428D02*
X13683571Y-15305952D01*
X13674048Y-15315476D01*
X13664524Y-15305952D01*
X13674048Y-15296428D01*
X13674048Y-15315476D01*
X13674048Y-15191667D02*
X13683571Y-15201190D01*
X13674048Y-15210714D01*
X13664524Y-15201190D01*
X13674048Y-15191667D01*
X13674048Y-15210714D01*
D12*
X11994200Y-15619600D02*
X12045000Y-15670400D01*
X12045000Y-15619600D02*
X11994200Y-15670400D01*
D11*
X12340714Y-15535476D02*
X12359762Y-15535476D01*
X12378809Y-15545000D01*
X12388333Y-15554524D01*
X12397857Y-15573571D01*
X12407381Y-15611667D01*
X12407381Y-15659286D01*
X12397857Y-15697381D01*
X12388333Y-15716428D01*
X12378809Y-15725952D01*
X12359762Y-15735476D01*
X12340714Y-15735476D01*
X12321667Y-15725952D01*
X12312143Y-15716428D01*
X12302619Y-15697381D01*
X12293095Y-15659286D01*
X12293095Y-15611667D01*
X12302619Y-15573571D01*
X12312143Y-15554524D01*
X12321667Y-15545000D01*
X12340714Y-15535476D01*
X12493095Y-15716428D02*
X12502619Y-15725952D01*
X12493095Y-15735476D01*
X12483571Y-15725952D01*
X12493095Y-15716428D01*
X12493095Y-15735476D01*
X12683571Y-15535476D02*
X12588333Y-15535476D01*
X12578809Y-15630714D01*
X12588333Y-15621190D01*
X12607381Y-15611667D01*
X12655000Y-15611667D01*
X12674048Y-15621190D01*
X12683571Y-15630714D01*
X12693095Y-15649762D01*
X12693095Y-15697381D01*
X12683571Y-15716428D01*
X12674048Y-15725952D01*
X12655000Y-15735476D01*
X12607381Y-15735476D01*
X12588333Y-15725952D01*
X12578809Y-15716428D01*
X12816905Y-15535476D02*
X12835952Y-15535476D01*
X12855000Y-15545000D01*
X12864524Y-15554524D01*
X12874048Y-15573571D01*
X12883571Y-15611667D01*
X12883571Y-15659286D01*
X12874048Y-15697381D01*
X12864524Y-15716428D01*
X12855000Y-15725952D01*
X12835952Y-15735476D01*
X12816905Y-15735476D01*
X12797857Y-15725952D01*
X12788333Y-15716428D01*
X12778809Y-15697381D01*
X12769286Y-15659286D01*
X12769286Y-15611667D01*
X12778809Y-15573571D01*
X12788333Y-15554524D01*
X12797857Y-15545000D01*
X12816905Y-15535476D01*
X12997857Y-15621190D02*
X12978809Y-15611667D01*
X12969286Y-15602143D01*
X12959762Y-15583095D01*
X12959762Y-15573571D01*
X12969286Y-15554524D01*
X12978809Y-15545000D01*
X12997857Y-15535476D01*
X13035952Y-15535476D01*
X13055000Y-15545000D01*
X13064524Y-15554524D01*
X13074048Y-15573571D01*
X13074048Y-15583095D01*
X13064524Y-15602143D01*
X13055000Y-15611667D01*
X13035952Y-15621190D01*
X12997857Y-15621190D01*
X12978809Y-15630714D01*
X12969286Y-15640238D01*
X12959762Y-15659286D01*
X12959762Y-15697381D01*
X12969286Y-15716428D01*
X12978809Y-15725952D01*
X12997857Y-15735476D01*
X13035952Y-15735476D01*
X13055000Y-15725952D01*
X13064524Y-15716428D01*
X13074048Y-15697381D01*
X13074048Y-15659286D01*
X13064524Y-15640238D01*
X13055000Y-15630714D01*
X13035952Y-15621190D01*
X13159762Y-15735476D02*
X13159762Y-15602143D01*
X13159762Y-15621190D02*
X13169286Y-15611667D01*
X13188333Y-15602143D01*
X13216905Y-15602143D01*
X13235952Y-15611667D01*
X13245476Y-15630714D01*
X13245476Y-15735476D01*
X13245476Y-15630714D02*
X13255000Y-15611667D01*
X13274048Y-15602143D01*
X13302619Y-15602143D01*
X13321667Y-15611667D01*
X13331190Y-15630714D01*
X13331190Y-15735476D01*
X13426428Y-15735476D02*
X13426428Y-15602143D01*
X13426428Y-15621190D02*
X13435952Y-15611667D01*
X13455000Y-15602143D01*
X13483571Y-15602143D01*
X13502619Y-15611667D01*
X13512143Y-15630714D01*
X13512143Y-15735476D01*
X13512143Y-15630714D02*
X13521667Y-15611667D01*
X13540714Y-15602143D01*
X13569286Y-15602143D01*
X13588333Y-15611667D01*
X13597857Y-15630714D01*
X13597857Y-15735476D01*
X13988333Y-15525952D02*
X13816905Y-15783095D01*
X14245476Y-15535476D02*
X14264524Y-15535476D01*
X14283571Y-15545000D01*
X14293095Y-15554524D01*
X14302619Y-15573571D01*
X14312143Y-15611667D01*
X14312143Y-15659286D01*
X14302619Y-15697381D01*
X14293095Y-15716428D01*
X14283571Y-15725952D01*
X14264524Y-15735476D01*
X14245476Y-15735476D01*
X14226428Y-15725952D01*
X14216905Y-15716428D01*
X14207381Y-15697381D01*
X14197857Y-15659286D01*
X14197857Y-15611667D01*
X14207381Y-15573571D01*
X14216905Y-15554524D01*
X14226428Y-15545000D01*
X14245476Y-15535476D01*
X14397857Y-15716428D02*
X14407381Y-15725952D01*
X14397857Y-15735476D01*
X14388333Y-15725952D01*
X14397857Y-15716428D01*
X14397857Y-15735476D01*
X14531190Y-15535476D02*
X14550238Y-15535476D01*
X14569286Y-15545000D01*
X14578809Y-15554524D01*
X14588333Y-15573571D01*
X14597857Y-15611667D01*
X14597857Y-15659286D01*
X14588333Y-15697381D01*
X14578809Y-15716428D01*
X14569286Y-15725952D01*
X14550238Y-15735476D01*
X14531190Y-15735476D01*
X14512143Y-15725952D01*
X14502619Y-15716428D01*
X14493095Y-15697381D01*
X14483571Y-15659286D01*
X14483571Y-15611667D01*
X14493095Y-15573571D01*
X14502619Y-15554524D01*
X14512143Y-15545000D01*
X14531190Y-15535476D01*
X14674048Y-15554524D02*
X14683571Y-15545000D01*
X14702619Y-15535476D01*
X14750238Y-15535476D01*
X14769286Y-15545000D01*
X14778809Y-15554524D01*
X14788333Y-15573571D01*
X14788333Y-15592619D01*
X14778809Y-15621190D01*
X14664524Y-15735476D01*
X14788333Y-15735476D01*
X14912143Y-15535476D02*
X14931190Y-15535476D01*
X14950238Y-15545000D01*
X14959762Y-15554524D01*
X14969286Y-15573571D01*
X14978809Y-15611667D01*
X14978809Y-15659286D01*
X14969286Y-15697381D01*
X14959762Y-15716428D01*
X14950238Y-15725952D01*
X14931190Y-15735476D01*
X14912143Y-15735476D01*
X14893095Y-15725952D01*
X14883571Y-15716428D01*
X14874048Y-15697381D01*
X14864524Y-15659286D01*
X14864524Y-15611667D01*
X14874048Y-15573571D01*
X14883571Y-15554524D01*
X14893095Y-15545000D01*
X14912143Y-15535476D01*
X15102619Y-15535476D02*
X15121667Y-15535476D01*
X15140714Y-15545000D01*
X15150238Y-15554524D01*
X15159762Y-15573571D01*
X15169286Y-15611667D01*
X15169286Y-15659286D01*
X15159762Y-15697381D01*
X15150238Y-15716428D01*
X15140714Y-15725952D01*
X15121667Y-15735476D01*
X15102619Y-15735476D01*
X15083571Y-15725952D01*
X15074048Y-15716428D01*
X15064524Y-15697381D01*
X15055000Y-15659286D01*
X15055000Y-15611667D01*
X15064524Y-15573571D01*
X15074048Y-15554524D01*
X15083571Y-15545000D01*
X15102619Y-15535476D01*
X15245476Y-15535476D02*
X15245476Y-15573571D01*
X15321667Y-15535476D02*
X15321667Y-15573571D01*
X15616905Y-15811667D02*
X15607381Y-15802143D01*
X15588333Y-15773571D01*
X15578809Y-15754524D01*
X15569286Y-15725952D01*
X15559762Y-15678333D01*
X15559762Y-15640238D01*
X15569286Y-15592619D01*
X15578809Y-15564048D01*
X15588333Y-15545000D01*
X15607381Y-15516428D01*
X15616905Y-15506905D01*
X15702619Y-15735476D02*
X15740714Y-15735476D01*
X15759762Y-15725952D01*
X15769286Y-15716428D01*
X15788333Y-15687857D01*
X15797857Y-15649762D01*
X15797857Y-15573571D01*
X15788333Y-15554524D01*
X15778809Y-15545000D01*
X15759762Y-15535476D01*
X15721667Y-15535476D01*
X15702619Y-15545000D01*
X15693095Y-15554524D01*
X15683571Y-15573571D01*
X15683571Y-15621190D01*
X15693095Y-15640238D01*
X15702619Y-15649762D01*
X15721667Y-15659286D01*
X15759762Y-15659286D01*
X15778809Y-15649762D01*
X15788333Y-15640238D01*
X15797857Y-15621190D01*
X16035952Y-15735476D02*
X16035952Y-15535476D01*
X16121667Y-15735476D02*
X16121667Y-15630714D01*
X16112143Y-15611667D01*
X16093095Y-15602143D01*
X16064524Y-15602143D01*
X16045476Y-15611667D01*
X16035952Y-15621190D01*
X16245476Y-15735476D02*
X16226428Y-15725952D01*
X16216905Y-15716428D01*
X16207381Y-15697381D01*
X16207381Y-15640238D01*
X16216905Y-15621190D01*
X16226428Y-15611667D01*
X16245476Y-15602143D01*
X16274048Y-15602143D01*
X16293095Y-15611667D01*
X16302619Y-15621190D01*
X16312143Y-15640238D01*
X16312143Y-15697381D01*
X16302619Y-15716428D01*
X16293095Y-15725952D01*
X16274048Y-15735476D01*
X16245476Y-15735476D01*
X16426428Y-15735476D02*
X16407381Y-15725952D01*
X16397857Y-15706905D01*
X16397857Y-15535476D01*
X16578809Y-15725952D02*
X16559762Y-15735476D01*
X16521667Y-15735476D01*
X16502619Y-15725952D01*
X16493095Y-15706905D01*
X16493095Y-15630714D01*
X16502619Y-15611667D01*
X16521667Y-15602143D01*
X16559762Y-15602143D01*
X16578809Y-15611667D01*
X16588333Y-15630714D01*
X16588333Y-15649762D01*
X16493095Y-15668809D01*
X16664524Y-15725952D02*
X16683571Y-15735476D01*
X16721667Y-15735476D01*
X16740714Y-15725952D01*
X16750238Y-15706905D01*
X16750238Y-15697381D01*
X16740714Y-15678333D01*
X16721667Y-15668809D01*
X16693095Y-15668809D01*
X16674048Y-15659286D01*
X16664524Y-15640238D01*
X16664524Y-15630714D01*
X16674048Y-15611667D01*
X16693095Y-15602143D01*
X16721667Y-15602143D01*
X16740714Y-15611667D01*
X16816905Y-15811667D02*
X16826429Y-15802143D01*
X16845476Y-15773571D01*
X16855000Y-15754524D01*
X16864524Y-15725952D01*
X16874048Y-15678333D01*
X16874048Y-15640238D01*
X16864524Y-15592619D01*
X16855000Y-15564048D01*
X16845476Y-15545000D01*
X16826429Y-15516428D01*
X16816905Y-15506905D01*
D13*
X12045000Y-15909000D02*
G75*
G03*
X12045000Y-15909000I-35000J0D01*
G01*
D11*
X12340714Y-15799476D02*
X12359762Y-15799476D01*
X12378809Y-15809000D01*
X12388333Y-15818524D01*
X12397857Y-15837571D01*
X12407381Y-15875667D01*
X12407381Y-15923286D01*
X12397857Y-15961381D01*
X12388333Y-15980428D01*
X12378809Y-15989952D01*
X12359762Y-15999476D01*
X12340714Y-15999476D01*
X12321667Y-15989952D01*
X12312143Y-15980428D01*
X12302619Y-15961381D01*
X12293095Y-15923286D01*
X12293095Y-15875667D01*
X12302619Y-15837571D01*
X12312143Y-15818524D01*
X12321667Y-15809000D01*
X12340714Y-15799476D01*
X12493095Y-15980428D02*
X12502619Y-15989952D01*
X12493095Y-15999476D01*
X12483571Y-15989952D01*
X12493095Y-15980428D01*
X12493095Y-15999476D01*
X12569286Y-15799476D02*
X12702619Y-15799476D01*
X12616905Y-15999476D01*
X12816905Y-15799476D02*
X12835952Y-15799476D01*
X12855000Y-15809000D01*
X12864524Y-15818524D01*
X12874048Y-15837571D01*
X12883571Y-15875667D01*
X12883571Y-15923286D01*
X12874048Y-15961381D01*
X12864524Y-15980428D01*
X12855000Y-15989952D01*
X12835952Y-15999476D01*
X12816905Y-15999476D01*
X12797857Y-15989952D01*
X12788333Y-15980428D01*
X12778809Y-15961381D01*
X12769286Y-15923286D01*
X12769286Y-15875667D01*
X12778809Y-15837571D01*
X12788333Y-15818524D01*
X12797857Y-15809000D01*
X12816905Y-15799476D01*
X13007381Y-15799476D02*
X13026428Y-15799476D01*
X13045476Y-15809000D01*
X13055000Y-15818524D01*
X13064524Y-15837571D01*
X13074048Y-15875667D01*
X13074048Y-15923286D01*
X13064524Y-15961381D01*
X13055000Y-15980428D01*
X13045476Y-15989952D01*
X13026428Y-15999476D01*
X13007381Y-15999476D01*
X12988333Y-15989952D01*
X12978809Y-15980428D01*
X12969286Y-15961381D01*
X12959762Y-15923286D01*
X12959762Y-15875667D01*
X12969286Y-15837571D01*
X12978809Y-15818524D01*
X12988333Y-15809000D01*
X13007381Y-15799476D01*
X13159762Y-15999476D02*
X13159762Y-15866143D01*
X13159762Y-15885190D02*
X13169286Y-15875667D01*
X13188333Y-15866143D01*
X13216905Y-15866143D01*
X13235952Y-15875667D01*
X13245476Y-15894714D01*
X13245476Y-15999476D01*
X13245476Y-15894714D02*
X13255000Y-15875667D01*
X13274048Y-15866143D01*
X13302619Y-15866143D01*
X13321667Y-15875667D01*
X13331190Y-15894714D01*
X13331190Y-15999476D01*
X13426428Y-15999476D02*
X13426428Y-15866143D01*
X13426428Y-15885190D02*
X13435952Y-15875667D01*
X13455000Y-15866143D01*
X13483571Y-15866143D01*
X13502619Y-15875667D01*
X13512143Y-15894714D01*
X13512143Y-15999476D01*
X13512143Y-15894714D02*
X13521667Y-15875667D01*
X13540714Y-15866143D01*
X13569286Y-15866143D01*
X13588333Y-15875667D01*
X13597857Y-15894714D01*
X13597857Y-15999476D01*
X13988333Y-15789952D02*
X13816905Y-16047095D01*
X14245476Y-15799476D02*
X14264524Y-15799476D01*
X14283571Y-15809000D01*
X14293095Y-15818524D01*
X14302619Y-15837571D01*
X14312143Y-15875667D01*
X14312143Y-15923286D01*
X14302619Y-15961381D01*
X14293095Y-15980428D01*
X14283571Y-15989952D01*
X14264524Y-15999476D01*
X14245476Y-15999476D01*
X14226428Y-15989952D01*
X14216905Y-15980428D01*
X14207381Y-15961381D01*
X14197857Y-15923286D01*
X14197857Y-15875667D01*
X14207381Y-15837571D01*
X14216905Y-15818524D01*
X14226428Y-15809000D01*
X14245476Y-15799476D01*
X14397857Y-15980428D02*
X14407381Y-15989952D01*
X14397857Y-15999476D01*
X14388333Y-15989952D01*
X14397857Y-15980428D01*
X14397857Y-15999476D01*
X14531190Y-15799476D02*
X14550238Y-15799476D01*
X14569286Y-15809000D01*
X14578809Y-15818524D01*
X14588333Y-15837571D01*
X14597857Y-15875667D01*
X14597857Y-15923286D01*
X14588333Y-15961381D01*
X14578809Y-15980428D01*
X14569286Y-15989952D01*
X14550238Y-15999476D01*
X14531190Y-15999476D01*
X14512143Y-15989952D01*
X14502619Y-15980428D01*
X14493095Y-15961381D01*
X14483571Y-15923286D01*
X14483571Y-15875667D01*
X14493095Y-15837571D01*
X14502619Y-15818524D01*
X14512143Y-15809000D01*
X14531190Y-15799476D01*
X14674048Y-15818524D02*
X14683571Y-15809000D01*
X14702619Y-15799476D01*
X14750238Y-15799476D01*
X14769286Y-15809000D01*
X14778809Y-15818524D01*
X14788333Y-15837571D01*
X14788333Y-15856619D01*
X14778809Y-15885190D01*
X14664524Y-15999476D01*
X14788333Y-15999476D01*
X14855000Y-15799476D02*
X14988333Y-15799476D01*
X14902619Y-15999476D01*
X15150238Y-15799476D02*
X15112143Y-15799476D01*
X15093095Y-15809000D01*
X15083571Y-15818524D01*
X15064524Y-15847095D01*
X15055000Y-15885190D01*
X15055000Y-15961381D01*
X15064524Y-15980428D01*
X15074048Y-15989952D01*
X15093095Y-15999476D01*
X15131190Y-15999476D01*
X15150238Y-15989952D01*
X15159762Y-15980428D01*
X15169286Y-15961381D01*
X15169286Y-15913762D01*
X15159762Y-15894714D01*
X15150238Y-15885190D01*
X15131190Y-15875667D01*
X15093095Y-15875667D01*
X15074048Y-15885190D01*
X15064524Y-15894714D01*
X15055000Y-15913762D01*
X15245476Y-15799476D02*
X15245476Y-15837571D01*
X15321667Y-15799476D02*
X15321667Y-15837571D01*
X15616905Y-16075667D02*
X15607381Y-16066143D01*
X15588333Y-16037571D01*
X15578809Y-16018524D01*
X15569286Y-15989952D01*
X15559762Y-15942333D01*
X15559762Y-15904238D01*
X15569286Y-15856619D01*
X15578809Y-15828048D01*
X15588333Y-15809000D01*
X15607381Y-15780428D01*
X15616905Y-15770905D01*
X15721667Y-15885190D02*
X15702619Y-15875667D01*
X15693095Y-15866143D01*
X15683571Y-15847095D01*
X15683571Y-15837571D01*
X15693095Y-15818524D01*
X15702619Y-15809000D01*
X15721667Y-15799476D01*
X15759762Y-15799476D01*
X15778809Y-15809000D01*
X15788333Y-15818524D01*
X15797857Y-15837571D01*
X15797857Y-15847095D01*
X15788333Y-15866143D01*
X15778809Y-15875667D01*
X15759762Y-15885190D01*
X15721667Y-15885190D01*
X15702619Y-15894714D01*
X15693095Y-15904238D01*
X15683571Y-15923286D01*
X15683571Y-15961381D01*
X15693095Y-15980428D01*
X15702619Y-15989952D01*
X15721667Y-15999476D01*
X15759762Y-15999476D01*
X15778809Y-15989952D01*
X15788333Y-15980428D01*
X15797857Y-15961381D01*
X15797857Y-15923286D01*
X15788333Y-15904238D01*
X15778809Y-15894714D01*
X15759762Y-15885190D01*
X16035952Y-15999476D02*
X16035952Y-15799476D01*
X16121667Y-15999476D02*
X16121667Y-15894714D01*
X16112143Y-15875667D01*
X16093095Y-15866143D01*
X16064524Y-15866143D01*
X16045476Y-15875667D01*
X16035952Y-15885190D01*
X16245476Y-15999476D02*
X16226428Y-15989952D01*
X16216905Y-15980428D01*
X16207381Y-15961381D01*
X16207381Y-15904238D01*
X16216905Y-15885190D01*
X16226428Y-15875667D01*
X16245476Y-15866143D01*
X16274048Y-15866143D01*
X16293095Y-15875667D01*
X16302619Y-15885190D01*
X16312143Y-15904238D01*
X16312143Y-15961381D01*
X16302619Y-15980428D01*
X16293095Y-15989952D01*
X16274048Y-15999476D01*
X16245476Y-15999476D01*
X16426428Y-15999476D02*
X16407381Y-15989952D01*
X16397857Y-15970905D01*
X16397857Y-15799476D01*
X16578809Y-15989952D02*
X16559762Y-15999476D01*
X16521667Y-15999476D01*
X16502619Y-15989952D01*
X16493095Y-15970905D01*
X16493095Y-15894714D01*
X16502619Y-15875667D01*
X16521667Y-15866143D01*
X16559762Y-15866143D01*
X16578809Y-15875667D01*
X16588333Y-15894714D01*
X16588333Y-15913762D01*
X16493095Y-15932809D01*
X16664524Y-15989952D02*
X16683571Y-15999476D01*
X16721667Y-15999476D01*
X16740714Y-15989952D01*
X16750238Y-15970905D01*
X16750238Y-15961381D01*
X16740714Y-15942333D01*
X16721667Y-15932809D01*
X16693095Y-15932809D01*
X16674048Y-15923286D01*
X16664524Y-15904238D01*
X16664524Y-15894714D01*
X16674048Y-15875667D01*
X16693095Y-15866143D01*
X16721667Y-15866143D01*
X16740714Y-15875667D01*
X16816905Y-16075667D02*
X16826429Y-16066143D01*
X16845476Y-16037571D01*
X16855000Y-16018524D01*
X16864524Y-15989952D01*
X16874048Y-15942333D01*
X16874048Y-15904238D01*
X16864524Y-15856619D01*
X16855000Y-15828048D01*
X16845476Y-15809000D01*
X16826429Y-15780428D01*
X16816905Y-15770905D01*
D14*
X12005000Y-16133000D02*
X12005000Y-16213000D01*
X11965000Y-16173000D02*
X12045000Y-16173000D01*
D11*
X12340714Y-16063476D02*
X12359762Y-16063476D01*
X12378809Y-16073000D01*
X12388333Y-16082524D01*
X12397857Y-16101571D01*
X12407381Y-16139667D01*
X12407381Y-16187286D01*
X12397857Y-16225381D01*
X12388333Y-16244428D01*
X12378809Y-16253952D01*
X12359762Y-16263476D01*
X12340714Y-16263476D01*
X12321667Y-16253952D01*
X12312143Y-16244428D01*
X12302619Y-16225381D01*
X12293095Y-16187286D01*
X12293095Y-16139667D01*
X12302619Y-16101571D01*
X12312143Y-16082524D01*
X12321667Y-16073000D01*
X12340714Y-16063476D01*
X12493095Y-16244428D02*
X12502619Y-16253952D01*
X12493095Y-16263476D01*
X12483571Y-16253952D01*
X12493095Y-16244428D01*
X12493095Y-16263476D01*
X12616905Y-16149190D02*
X12597857Y-16139667D01*
X12588333Y-16130143D01*
X12578809Y-16111095D01*
X12578809Y-16101571D01*
X12588333Y-16082524D01*
X12597857Y-16073000D01*
X12616905Y-16063476D01*
X12655000Y-16063476D01*
X12674048Y-16073000D01*
X12683571Y-16082524D01*
X12693095Y-16101571D01*
X12693095Y-16111095D01*
X12683571Y-16130143D01*
X12674048Y-16139667D01*
X12655000Y-16149190D01*
X12616905Y-16149190D01*
X12597857Y-16158714D01*
X12588333Y-16168238D01*
X12578809Y-16187286D01*
X12578809Y-16225381D01*
X12588333Y-16244428D01*
X12597857Y-16253952D01*
X12616905Y-16263476D01*
X12655000Y-16263476D01*
X12674048Y-16253952D01*
X12683571Y-16244428D01*
X12693095Y-16225381D01*
X12693095Y-16187286D01*
X12683571Y-16168238D01*
X12674048Y-16158714D01*
X12655000Y-16149190D01*
X12816905Y-16063476D02*
X12835952Y-16063476D01*
X12855000Y-16073000D01*
X12864524Y-16082524D01*
X12874048Y-16101571D01*
X12883571Y-16139667D01*
X12883571Y-16187286D01*
X12874048Y-16225381D01*
X12864524Y-16244428D01*
X12855000Y-16253952D01*
X12835952Y-16263476D01*
X12816905Y-16263476D01*
X12797857Y-16253952D01*
X12788333Y-16244428D01*
X12778809Y-16225381D01*
X12769286Y-16187286D01*
X12769286Y-16139667D01*
X12778809Y-16101571D01*
X12788333Y-16082524D01*
X12797857Y-16073000D01*
X12816905Y-16063476D01*
X13007381Y-16063476D02*
X13026428Y-16063476D01*
X13045476Y-16073000D01*
X13055000Y-16082524D01*
X13064524Y-16101571D01*
X13074048Y-16139667D01*
X13074048Y-16187286D01*
X13064524Y-16225381D01*
X13055000Y-16244428D01*
X13045476Y-16253952D01*
X13026428Y-16263476D01*
X13007381Y-16263476D01*
X12988333Y-16253952D01*
X12978809Y-16244428D01*
X12969286Y-16225381D01*
X12959762Y-16187286D01*
X12959762Y-16139667D01*
X12969286Y-16101571D01*
X12978809Y-16082524D01*
X12988333Y-16073000D01*
X13007381Y-16063476D01*
X13159762Y-16263476D02*
X13159762Y-16130143D01*
X13159762Y-16149190D02*
X13169286Y-16139667D01*
X13188333Y-16130143D01*
X13216905Y-16130143D01*
X13235952Y-16139667D01*
X13245476Y-16158714D01*
X13245476Y-16263476D01*
X13245476Y-16158714D02*
X13255000Y-16139667D01*
X13274048Y-16130143D01*
X13302619Y-16130143D01*
X13321667Y-16139667D01*
X13331190Y-16158714D01*
X13331190Y-16263476D01*
X13426428Y-16263476D02*
X13426428Y-16130143D01*
X13426428Y-16149190D02*
X13435952Y-16139667D01*
X13455000Y-16130143D01*
X13483571Y-16130143D01*
X13502619Y-16139667D01*
X13512143Y-16158714D01*
X13512143Y-16263476D01*
X13512143Y-16158714D02*
X13521667Y-16139667D01*
X13540714Y-16130143D01*
X13569286Y-16130143D01*
X13588333Y-16139667D01*
X13597857Y-16158714D01*
X13597857Y-16263476D01*
X13988333Y-16053952D02*
X13816905Y-16311095D01*
X14245476Y-16063476D02*
X14264524Y-16063476D01*
X14283571Y-16073000D01*
X14293095Y-16082524D01*
X14302619Y-16101571D01*
X14312143Y-16139667D01*
X14312143Y-16187286D01*
X14302619Y-16225381D01*
X14293095Y-16244428D01*
X14283571Y-16253952D01*
X14264524Y-16263476D01*
X14245476Y-16263476D01*
X14226428Y-16253952D01*
X14216905Y-16244428D01*
X14207381Y-16225381D01*
X14197857Y-16187286D01*
X14197857Y-16139667D01*
X14207381Y-16101571D01*
X14216905Y-16082524D01*
X14226428Y-16073000D01*
X14245476Y-16063476D01*
X14397857Y-16244428D02*
X14407381Y-16253952D01*
X14397857Y-16263476D01*
X14388333Y-16253952D01*
X14397857Y-16244428D01*
X14397857Y-16263476D01*
X14531190Y-16063476D02*
X14550238Y-16063476D01*
X14569286Y-16073000D01*
X14578809Y-16082524D01*
X14588333Y-16101571D01*
X14597857Y-16139667D01*
X14597857Y-16187286D01*
X14588333Y-16225381D01*
X14578809Y-16244428D01*
X14569286Y-16253952D01*
X14550238Y-16263476D01*
X14531190Y-16263476D01*
X14512143Y-16253952D01*
X14502619Y-16244428D01*
X14493095Y-16225381D01*
X14483571Y-16187286D01*
X14483571Y-16139667D01*
X14493095Y-16101571D01*
X14502619Y-16082524D01*
X14512143Y-16073000D01*
X14531190Y-16063476D01*
X14664524Y-16063476D02*
X14788333Y-16063476D01*
X14721667Y-16139667D01*
X14750238Y-16139667D01*
X14769286Y-16149190D01*
X14778809Y-16158714D01*
X14788333Y-16177762D01*
X14788333Y-16225381D01*
X14778809Y-16244428D01*
X14769286Y-16253952D01*
X14750238Y-16263476D01*
X14693095Y-16263476D01*
X14674048Y-16253952D01*
X14664524Y-16244428D01*
X14978809Y-16263476D02*
X14864524Y-16263476D01*
X14921667Y-16263476D02*
X14921667Y-16063476D01*
X14902619Y-16092048D01*
X14883571Y-16111095D01*
X14864524Y-16120619D01*
X15159762Y-16063476D02*
X15064524Y-16063476D01*
X15055000Y-16158714D01*
X15064524Y-16149190D01*
X15083571Y-16139667D01*
X15131190Y-16139667D01*
X15150238Y-16149190D01*
X15159762Y-16158714D01*
X15169286Y-16177762D01*
X15169286Y-16225381D01*
X15159762Y-16244428D01*
X15150238Y-16253952D01*
X15131190Y-16263476D01*
X15083571Y-16263476D01*
X15064524Y-16253952D01*
X15055000Y-16244428D01*
X15245476Y-16063476D02*
X15245476Y-16101571D01*
X15321667Y-16063476D02*
X15321667Y-16101571D01*
X15616905Y-16339667D02*
X15607381Y-16330143D01*
X15588333Y-16301571D01*
X15578809Y-16282524D01*
X15569286Y-16253952D01*
X15559762Y-16206333D01*
X15559762Y-16168238D01*
X15569286Y-16120619D01*
X15578809Y-16092048D01*
X15588333Y-16073000D01*
X15607381Y-16044428D01*
X15616905Y-16034905D01*
X15683571Y-16082524D02*
X15693095Y-16073000D01*
X15712143Y-16063476D01*
X15759762Y-16063476D01*
X15778809Y-16073000D01*
X15788333Y-16082524D01*
X15797857Y-16101571D01*
X15797857Y-16120619D01*
X15788333Y-16149190D01*
X15674048Y-16263476D01*
X15797857Y-16263476D01*
X15921667Y-16063476D02*
X15940714Y-16063476D01*
X15959762Y-16073000D01*
X15969286Y-16082524D01*
X15978809Y-16101571D01*
X15988333Y-16139667D01*
X15988333Y-16187286D01*
X15978809Y-16225381D01*
X15969286Y-16244428D01*
X15959762Y-16253952D01*
X15940714Y-16263476D01*
X15921667Y-16263476D01*
X15902619Y-16253952D01*
X15893095Y-16244428D01*
X15883571Y-16225381D01*
X15874048Y-16187286D01*
X15874048Y-16139667D01*
X15883571Y-16101571D01*
X15893095Y-16082524D01*
X15902619Y-16073000D01*
X15921667Y-16063476D01*
X16226428Y-16263476D02*
X16226428Y-16063476D01*
X16312143Y-16263476D02*
X16312143Y-16158714D01*
X16302619Y-16139667D01*
X16283571Y-16130143D01*
X16255000Y-16130143D01*
X16235952Y-16139667D01*
X16226428Y-16149190D01*
X16435952Y-16263476D02*
X16416905Y-16253952D01*
X16407381Y-16244428D01*
X16397857Y-16225381D01*
X16397857Y-16168238D01*
X16407381Y-16149190D01*
X16416905Y-16139667D01*
X16435952Y-16130143D01*
X16464524Y-16130143D01*
X16483571Y-16139667D01*
X16493095Y-16149190D01*
X16502619Y-16168238D01*
X16502619Y-16225381D01*
X16493095Y-16244428D01*
X16483571Y-16253952D01*
X16464524Y-16263476D01*
X16435952Y-16263476D01*
X16616905Y-16263476D02*
X16597857Y-16253952D01*
X16588333Y-16234905D01*
X16588333Y-16063476D01*
X16769286Y-16253952D02*
X16750238Y-16263476D01*
X16712143Y-16263476D01*
X16693095Y-16253952D01*
X16683571Y-16234905D01*
X16683571Y-16158714D01*
X16693095Y-16139667D01*
X16712143Y-16130143D01*
X16750238Y-16130143D01*
X16769286Y-16139667D01*
X16778810Y-16158714D01*
X16778810Y-16177762D01*
X16683571Y-16196809D01*
X16855000Y-16253952D02*
X16874048Y-16263476D01*
X16912143Y-16263476D01*
X16931190Y-16253952D01*
X16940714Y-16234905D01*
X16940714Y-16225381D01*
X16931190Y-16206333D01*
X16912143Y-16196809D01*
X16883571Y-16196809D01*
X16864524Y-16187286D01*
X16855000Y-16168238D01*
X16855000Y-16158714D01*
X16864524Y-16139667D01*
X16883571Y-16130143D01*
X16912143Y-16130143D01*
X16931190Y-16139667D01*
X17007381Y-16339667D02*
X17016905Y-16330143D01*
X17035952Y-16301571D01*
X17045476Y-16282524D01*
X17055000Y-16253952D01*
X17064524Y-16206333D01*
X17064524Y-16168238D01*
X17055000Y-16120619D01*
X17045476Y-16092048D01*
X17035952Y-16073000D01*
X17016905Y-16044428D01*
X17007381Y-16034905D01*
D15*
X12031820Y-16468820D02*
X12031820Y-16405180D01*
X11968180Y-16405180D01*
X11968180Y-16468820D01*
X12031820Y-16468820D01*
D11*
X12340714Y-16327476D02*
X12359762Y-16327476D01*
X12378809Y-16337000D01*
X12388333Y-16346524D01*
X12397857Y-16365571D01*
X12407381Y-16403667D01*
X12407381Y-16451286D01*
X12397857Y-16489381D01*
X12388333Y-16508428D01*
X12378809Y-16517952D01*
X12359762Y-16527476D01*
X12340714Y-16527476D01*
X12321667Y-16517952D01*
X12312143Y-16508428D01*
X12302619Y-16489381D01*
X12293095Y-16451286D01*
X12293095Y-16403667D01*
X12302619Y-16365571D01*
X12312143Y-16346524D01*
X12321667Y-16337000D01*
X12340714Y-16327476D01*
X12493095Y-16508428D02*
X12502619Y-16517952D01*
X12493095Y-16527476D01*
X12483571Y-16517952D01*
X12493095Y-16508428D01*
X12493095Y-16527476D01*
X12597857Y-16527476D02*
X12635952Y-16527476D01*
X12655000Y-16517952D01*
X12664524Y-16508428D01*
X12683571Y-16479857D01*
X12693095Y-16441762D01*
X12693095Y-16365571D01*
X12683571Y-16346524D01*
X12674048Y-16337000D01*
X12655000Y-16327476D01*
X12616905Y-16327476D01*
X12597857Y-16337000D01*
X12588333Y-16346524D01*
X12578809Y-16365571D01*
X12578809Y-16413190D01*
X12588333Y-16432238D01*
X12597857Y-16441762D01*
X12616905Y-16451286D01*
X12655000Y-16451286D01*
X12674048Y-16441762D01*
X12683571Y-16432238D01*
X12693095Y-16413190D01*
X12816905Y-16327476D02*
X12835952Y-16327476D01*
X12855000Y-16337000D01*
X12864524Y-16346524D01*
X12874048Y-16365571D01*
X12883571Y-16403667D01*
X12883571Y-16451286D01*
X12874048Y-16489381D01*
X12864524Y-16508428D01*
X12855000Y-16517952D01*
X12835952Y-16527476D01*
X12816905Y-16527476D01*
X12797857Y-16517952D01*
X12788333Y-16508428D01*
X12778809Y-16489381D01*
X12769286Y-16451286D01*
X12769286Y-16403667D01*
X12778809Y-16365571D01*
X12788333Y-16346524D01*
X12797857Y-16337000D01*
X12816905Y-16327476D01*
X13007381Y-16327476D02*
X13026428Y-16327476D01*
X13045476Y-16337000D01*
X13055000Y-16346524D01*
X13064524Y-16365571D01*
X13074048Y-16403667D01*
X13074048Y-16451286D01*
X13064524Y-16489381D01*
X13055000Y-16508428D01*
X13045476Y-16517952D01*
X13026428Y-16527476D01*
X13007381Y-16527476D01*
X12988333Y-16517952D01*
X12978809Y-16508428D01*
X12969286Y-16489381D01*
X12959762Y-16451286D01*
X12959762Y-16403667D01*
X12969286Y-16365571D01*
X12978809Y-16346524D01*
X12988333Y-16337000D01*
X13007381Y-16327476D01*
X13159762Y-16527476D02*
X13159762Y-16394143D01*
X13159762Y-16413190D02*
X13169286Y-16403667D01*
X13188333Y-16394143D01*
X13216905Y-16394143D01*
X13235952Y-16403667D01*
X13245476Y-16422714D01*
X13245476Y-16527476D01*
X13245476Y-16422714D02*
X13255000Y-16403667D01*
X13274048Y-16394143D01*
X13302619Y-16394143D01*
X13321667Y-16403667D01*
X13331190Y-16422714D01*
X13331190Y-16527476D01*
X13426428Y-16527476D02*
X13426428Y-16394143D01*
X13426428Y-16413190D02*
X13435952Y-16403667D01*
X13455000Y-16394143D01*
X13483571Y-16394143D01*
X13502619Y-16403667D01*
X13512143Y-16422714D01*
X13512143Y-16527476D01*
X13512143Y-16422714D02*
X13521667Y-16403667D01*
X13540714Y-16394143D01*
X13569286Y-16394143D01*
X13588333Y-16403667D01*
X13597857Y-16422714D01*
X13597857Y-16527476D01*
X13988333Y-16317952D02*
X13816905Y-16575095D01*
X14245476Y-16327476D02*
X14264524Y-16327476D01*
X14283571Y-16337000D01*
X14293095Y-16346524D01*
X14302619Y-16365571D01*
X14312143Y-16403667D01*
X14312143Y-16451286D01*
X14302619Y-16489381D01*
X14293095Y-16508428D01*
X14283571Y-16517952D01*
X14264524Y-16527476D01*
X14245476Y-16527476D01*
X14226428Y-16517952D01*
X14216905Y-16508428D01*
X14207381Y-16489381D01*
X14197857Y-16451286D01*
X14197857Y-16403667D01*
X14207381Y-16365571D01*
X14216905Y-16346524D01*
X14226428Y-16337000D01*
X14245476Y-16327476D01*
X14397857Y-16508428D02*
X14407381Y-16517952D01*
X14397857Y-16527476D01*
X14388333Y-16517952D01*
X14397857Y-16508428D01*
X14397857Y-16527476D01*
X14531190Y-16327476D02*
X14550238Y-16327476D01*
X14569286Y-16337000D01*
X14578809Y-16346524D01*
X14588333Y-16365571D01*
X14597857Y-16403667D01*
X14597857Y-16451286D01*
X14588333Y-16489381D01*
X14578809Y-16508428D01*
X14569286Y-16517952D01*
X14550238Y-16527476D01*
X14531190Y-16527476D01*
X14512143Y-16517952D01*
X14502619Y-16508428D01*
X14493095Y-16489381D01*
X14483571Y-16451286D01*
X14483571Y-16403667D01*
X14493095Y-16365571D01*
X14502619Y-16346524D01*
X14512143Y-16337000D01*
X14531190Y-16327476D01*
X14664524Y-16327476D02*
X14788333Y-16327476D01*
X14721667Y-16403667D01*
X14750238Y-16403667D01*
X14769286Y-16413190D01*
X14778809Y-16422714D01*
X14788333Y-16441762D01*
X14788333Y-16489381D01*
X14778809Y-16508428D01*
X14769286Y-16517952D01*
X14750238Y-16527476D01*
X14693095Y-16527476D01*
X14674048Y-16517952D01*
X14664524Y-16508428D01*
X14969286Y-16327476D02*
X14874048Y-16327476D01*
X14864524Y-16422714D01*
X14874048Y-16413190D01*
X14893095Y-16403667D01*
X14940714Y-16403667D01*
X14959762Y-16413190D01*
X14969286Y-16422714D01*
X14978809Y-16441762D01*
X14978809Y-16489381D01*
X14969286Y-16508428D01*
X14959762Y-16517952D01*
X14940714Y-16527476D01*
X14893095Y-16527476D01*
X14874048Y-16517952D01*
X14864524Y-16508428D01*
X15150238Y-16394143D02*
X15150238Y-16527476D01*
X15102619Y-16317952D02*
X15055000Y-16460809D01*
X15178809Y-16460809D01*
X15245476Y-16327476D02*
X15245476Y-16365571D01*
X15321667Y-16327476D02*
X15321667Y-16365571D01*
X15616905Y-16603667D02*
X15607381Y-16594143D01*
X15588333Y-16565571D01*
X15578809Y-16546524D01*
X15569286Y-16517952D01*
X15559762Y-16470333D01*
X15559762Y-16432238D01*
X15569286Y-16384619D01*
X15578809Y-16356048D01*
X15588333Y-16337000D01*
X15607381Y-16308428D01*
X15616905Y-16298905D01*
X15721667Y-16413190D02*
X15702619Y-16403667D01*
X15693095Y-16394143D01*
X15683571Y-16375095D01*
X15683571Y-16365571D01*
X15693095Y-16346524D01*
X15702619Y-16337000D01*
X15721667Y-16327476D01*
X15759762Y-16327476D01*
X15778809Y-16337000D01*
X15788333Y-16346524D01*
X15797857Y-16365571D01*
X15797857Y-16375095D01*
X15788333Y-16394143D01*
X15778809Y-16403667D01*
X15759762Y-16413190D01*
X15721667Y-16413190D01*
X15702619Y-16422714D01*
X15693095Y-16432238D01*
X15683571Y-16451286D01*
X15683571Y-16489381D01*
X15693095Y-16508428D01*
X15702619Y-16517952D01*
X15721667Y-16527476D01*
X15759762Y-16527476D01*
X15778809Y-16517952D01*
X15788333Y-16508428D01*
X15797857Y-16489381D01*
X15797857Y-16451286D01*
X15788333Y-16432238D01*
X15778809Y-16422714D01*
X15759762Y-16413190D01*
X16035952Y-16527476D02*
X16035952Y-16327476D01*
X16121667Y-16527476D02*
X16121667Y-16422714D01*
X16112143Y-16403667D01*
X16093095Y-16394143D01*
X16064524Y-16394143D01*
X16045476Y-16403667D01*
X16035952Y-16413190D01*
X16245476Y-16527476D02*
X16226428Y-16517952D01*
X16216905Y-16508428D01*
X16207381Y-16489381D01*
X16207381Y-16432238D01*
X16216905Y-16413190D01*
X16226428Y-16403667D01*
X16245476Y-16394143D01*
X16274048Y-16394143D01*
X16293095Y-16403667D01*
X16302619Y-16413190D01*
X16312143Y-16432238D01*
X16312143Y-16489381D01*
X16302619Y-16508428D01*
X16293095Y-16517952D01*
X16274048Y-16527476D01*
X16245476Y-16527476D01*
X16426428Y-16527476D02*
X16407381Y-16517952D01*
X16397857Y-16498905D01*
X16397857Y-16327476D01*
X16578809Y-16517952D02*
X16559762Y-16527476D01*
X16521667Y-16527476D01*
X16502619Y-16517952D01*
X16493095Y-16498905D01*
X16493095Y-16422714D01*
X16502619Y-16403667D01*
X16521667Y-16394143D01*
X16559762Y-16394143D01*
X16578809Y-16403667D01*
X16588333Y-16422714D01*
X16588333Y-16441762D01*
X16493095Y-16460809D01*
X16664524Y-16517952D02*
X16683571Y-16527476D01*
X16721667Y-16527476D01*
X16740714Y-16517952D01*
X16750238Y-16498905D01*
X16750238Y-16489381D01*
X16740714Y-16470333D01*
X16721667Y-16460809D01*
X16693095Y-16460809D01*
X16674048Y-16451286D01*
X16664524Y-16432238D01*
X16664524Y-16422714D01*
X16674048Y-16403667D01*
X16693095Y-16394143D01*
X16721667Y-16394143D01*
X16740714Y-16403667D01*
X16816905Y-16603667D02*
X16826429Y-16594143D01*
X16845476Y-16565571D01*
X16855000Y-16546524D01*
X16864524Y-16517952D01*
X16874048Y-16470333D01*
X16874048Y-16432238D01*
X16864524Y-16384619D01*
X16855000Y-16356048D01*
X16845476Y-16337000D01*
X16826429Y-16308428D01*
X16816905Y-16298905D01*
D16*
X11997500Y-16748500D02*
X12045000Y-16701000D01*
X11997500Y-16653500D01*
X11950000Y-16701000D01*
X11997500Y-16748500D01*
D11*
X12340714Y-16591476D02*
X12359762Y-16591476D01*
X12378809Y-16601000D01*
X12388333Y-16610524D01*
X12397857Y-16629571D01*
X12407381Y-16667667D01*
X12407381Y-16715286D01*
X12397857Y-16753381D01*
X12388333Y-16772428D01*
X12378809Y-16781952D01*
X12359762Y-16791476D01*
X12340714Y-16791476D01*
X12321667Y-16781952D01*
X12312143Y-16772428D01*
X12302619Y-16753381D01*
X12293095Y-16715286D01*
X12293095Y-16667667D01*
X12302619Y-16629571D01*
X12312143Y-16610524D01*
X12321667Y-16601000D01*
X12340714Y-16591476D01*
X12493095Y-16772428D02*
X12502619Y-16781952D01*
X12493095Y-16791476D01*
X12483571Y-16781952D01*
X12493095Y-16772428D01*
X12493095Y-16791476D01*
X12597857Y-16791476D02*
X12635952Y-16791476D01*
X12655000Y-16781952D01*
X12664524Y-16772428D01*
X12683571Y-16743857D01*
X12693095Y-16705762D01*
X12693095Y-16629571D01*
X12683571Y-16610524D01*
X12674048Y-16601000D01*
X12655000Y-16591476D01*
X12616905Y-16591476D01*
X12597857Y-16601000D01*
X12588333Y-16610524D01*
X12578809Y-16629571D01*
X12578809Y-16677190D01*
X12588333Y-16696238D01*
X12597857Y-16705762D01*
X12616905Y-16715286D01*
X12655000Y-16715286D01*
X12674048Y-16705762D01*
X12683571Y-16696238D01*
X12693095Y-16677190D01*
X12874048Y-16591476D02*
X12778809Y-16591476D01*
X12769286Y-16686714D01*
X12778809Y-16677190D01*
X12797857Y-16667667D01*
X12845476Y-16667667D01*
X12864524Y-16677190D01*
X12874048Y-16686714D01*
X12883571Y-16705762D01*
X12883571Y-16753381D01*
X12874048Y-16772428D01*
X12864524Y-16781952D01*
X12845476Y-16791476D01*
X12797857Y-16791476D01*
X12778809Y-16781952D01*
X12769286Y-16772428D01*
X13007381Y-16591476D02*
X13026428Y-16591476D01*
X13045476Y-16601000D01*
X13055000Y-16610524D01*
X13064524Y-16629571D01*
X13074048Y-16667667D01*
X13074048Y-16715286D01*
X13064524Y-16753381D01*
X13055000Y-16772428D01*
X13045476Y-16781952D01*
X13026428Y-16791476D01*
X13007381Y-16791476D01*
X12988333Y-16781952D01*
X12978809Y-16772428D01*
X12969286Y-16753381D01*
X12959762Y-16715286D01*
X12959762Y-16667667D01*
X12969286Y-16629571D01*
X12978809Y-16610524D01*
X12988333Y-16601000D01*
X13007381Y-16591476D01*
X13159762Y-16791476D02*
X13159762Y-16658143D01*
X13159762Y-16677190D02*
X13169286Y-16667667D01*
X13188333Y-16658143D01*
X13216905Y-16658143D01*
X13235952Y-16667667D01*
X13245476Y-16686714D01*
X13245476Y-16791476D01*
X13245476Y-16686714D02*
X13255000Y-16667667D01*
X13274048Y-16658143D01*
X13302619Y-16658143D01*
X13321667Y-16667667D01*
X13331190Y-16686714D01*
X13331190Y-16791476D01*
X13426428Y-16791476D02*
X13426428Y-16658143D01*
X13426428Y-16677190D02*
X13435952Y-16667667D01*
X13455000Y-16658143D01*
X13483571Y-16658143D01*
X13502619Y-16667667D01*
X13512143Y-16686714D01*
X13512143Y-16791476D01*
X13512143Y-16686714D02*
X13521667Y-16667667D01*
X13540714Y-16658143D01*
X13569286Y-16658143D01*
X13588333Y-16667667D01*
X13597857Y-16686714D01*
X13597857Y-16791476D01*
X13988333Y-16581952D02*
X13816905Y-16839095D01*
X14245476Y-16591476D02*
X14264524Y-16591476D01*
X14283571Y-16601000D01*
X14293095Y-16610524D01*
X14302619Y-16629571D01*
X14312143Y-16667667D01*
X14312143Y-16715286D01*
X14302619Y-16753381D01*
X14293095Y-16772428D01*
X14283571Y-16781952D01*
X14264524Y-16791476D01*
X14245476Y-16791476D01*
X14226428Y-16781952D01*
X14216905Y-16772428D01*
X14207381Y-16753381D01*
X14197857Y-16715286D01*
X14197857Y-16667667D01*
X14207381Y-16629571D01*
X14216905Y-16610524D01*
X14226428Y-16601000D01*
X14245476Y-16591476D01*
X14397857Y-16772428D02*
X14407381Y-16781952D01*
X14397857Y-16791476D01*
X14388333Y-16781952D01*
X14397857Y-16772428D01*
X14397857Y-16791476D01*
X14531190Y-16591476D02*
X14550238Y-16591476D01*
X14569286Y-16601000D01*
X14578809Y-16610524D01*
X14588333Y-16629571D01*
X14597857Y-16667667D01*
X14597857Y-16715286D01*
X14588333Y-16753381D01*
X14578809Y-16772428D01*
X14569286Y-16781952D01*
X14550238Y-16791476D01*
X14531190Y-16791476D01*
X14512143Y-16781952D01*
X14502619Y-16772428D01*
X14493095Y-16753381D01*
X14483571Y-16715286D01*
X14483571Y-16667667D01*
X14493095Y-16629571D01*
X14502619Y-16610524D01*
X14512143Y-16601000D01*
X14531190Y-16591476D01*
X14664524Y-16591476D02*
X14788333Y-16591476D01*
X14721667Y-16667667D01*
X14750238Y-16667667D01*
X14769286Y-16677190D01*
X14778809Y-16686714D01*
X14788333Y-16705762D01*
X14788333Y-16753381D01*
X14778809Y-16772428D01*
X14769286Y-16781952D01*
X14750238Y-16791476D01*
X14693095Y-16791476D01*
X14674048Y-16781952D01*
X14664524Y-16772428D01*
X14855000Y-16591476D02*
X14988333Y-16591476D01*
X14902619Y-16791476D01*
X15150238Y-16658143D02*
X15150238Y-16791476D01*
X15102619Y-16581952D02*
X15055000Y-16724809D01*
X15178809Y-16724809D01*
X15245476Y-16591476D02*
X15245476Y-16629571D01*
X15321667Y-16591476D02*
X15321667Y-16629571D01*
X15616905Y-16867667D02*
X15607381Y-16858143D01*
X15588333Y-16829571D01*
X15578809Y-16810524D01*
X15569286Y-16781952D01*
X15559762Y-16734333D01*
X15559762Y-16696238D01*
X15569286Y-16648619D01*
X15578809Y-16620048D01*
X15588333Y-16601000D01*
X15607381Y-16572428D01*
X15616905Y-16562905D01*
X15674048Y-16591476D02*
X15797857Y-16591476D01*
X15731190Y-16667667D01*
X15759762Y-16667667D01*
X15778809Y-16677190D01*
X15788333Y-16686714D01*
X15797857Y-16705762D01*
X15797857Y-16753381D01*
X15788333Y-16772428D01*
X15778809Y-16781952D01*
X15759762Y-16791476D01*
X15702619Y-16791476D01*
X15683571Y-16781952D01*
X15674048Y-16772428D01*
X15912143Y-16677190D02*
X15893095Y-16667667D01*
X15883571Y-16658143D01*
X15874048Y-16639095D01*
X15874048Y-16629571D01*
X15883571Y-16610524D01*
X15893095Y-16601000D01*
X15912143Y-16591476D01*
X15950238Y-16591476D01*
X15969286Y-16601000D01*
X15978809Y-16610524D01*
X15988333Y-16629571D01*
X15988333Y-16639095D01*
X15978809Y-16658143D01*
X15969286Y-16667667D01*
X15950238Y-16677190D01*
X15912143Y-16677190D01*
X15893095Y-16686714D01*
X15883571Y-16696238D01*
X15874048Y-16715286D01*
X15874048Y-16753381D01*
X15883571Y-16772428D01*
X15893095Y-16781952D01*
X15912143Y-16791476D01*
X15950238Y-16791476D01*
X15969286Y-16781952D01*
X15978809Y-16772428D01*
X15988333Y-16753381D01*
X15988333Y-16715286D01*
X15978809Y-16696238D01*
X15969286Y-16686714D01*
X15950238Y-16677190D01*
X16226428Y-16791476D02*
X16226428Y-16591476D01*
X16312143Y-16791476D02*
X16312143Y-16686714D01*
X16302619Y-16667667D01*
X16283571Y-16658143D01*
X16255000Y-16658143D01*
X16235952Y-16667667D01*
X16226428Y-16677190D01*
X16435952Y-16791476D02*
X16416905Y-16781952D01*
X16407381Y-16772428D01*
X16397857Y-16753381D01*
X16397857Y-16696238D01*
X16407381Y-16677190D01*
X16416905Y-16667667D01*
X16435952Y-16658143D01*
X16464524Y-16658143D01*
X16483571Y-16667667D01*
X16493095Y-16677190D01*
X16502619Y-16696238D01*
X16502619Y-16753381D01*
X16493095Y-16772428D01*
X16483571Y-16781952D01*
X16464524Y-16791476D01*
X16435952Y-16791476D01*
X16616905Y-16791476D02*
X16597857Y-16781952D01*
X16588333Y-16762905D01*
X16588333Y-16591476D01*
X16769286Y-16781952D02*
X16750238Y-16791476D01*
X16712143Y-16791476D01*
X16693095Y-16781952D01*
X16683571Y-16762905D01*
X16683571Y-16686714D01*
X16693095Y-16667667D01*
X16712143Y-16658143D01*
X16750238Y-16658143D01*
X16769286Y-16667667D01*
X16778810Y-16686714D01*
X16778810Y-16705762D01*
X16683571Y-16724809D01*
X16855000Y-16781952D02*
X16874048Y-16791476D01*
X16912143Y-16791476D01*
X16931190Y-16781952D01*
X16940714Y-16762905D01*
X16940714Y-16753381D01*
X16931190Y-16734333D01*
X16912143Y-16724809D01*
X16883571Y-16724809D01*
X16864524Y-16715286D01*
X16855000Y-16696238D01*
X16855000Y-16686714D01*
X16864524Y-16667667D01*
X16883571Y-16658143D01*
X16912143Y-16658143D01*
X16931190Y-16667667D01*
X17007381Y-16867667D02*
X17016905Y-16858143D01*
X17035952Y-16829571D01*
X17045476Y-16810524D01*
X17055000Y-16781952D01*
X17064524Y-16734333D01*
X17064524Y-16696238D01*
X17055000Y-16648619D01*
X17045476Y-16620048D01*
X17035952Y-16601000D01*
X17016905Y-16572428D01*
X17007381Y-16562905D01*
D17*
X11945000Y-16915000D02*
X12045000Y-17015000D01*
X12045000Y-16915000D02*
X11945000Y-17015000D01*
X12045000Y-16965000D02*
G75*
G03*
X12045000Y-16965000I-50000J0D01*
G01*
D11*
X12407381Y-17055476D02*
X12293095Y-17055476D01*
X12350238Y-17055476D02*
X12350238Y-16855476D01*
X12331190Y-16884048D01*
X12312143Y-16903095D01*
X12293095Y-16912619D01*
X12493095Y-17036429D02*
X12502619Y-17045952D01*
X12493095Y-17055476D01*
X12483571Y-17045952D01*
X12493095Y-17036429D01*
X12493095Y-17055476D01*
X12626428Y-16855476D02*
X12645476Y-16855476D01*
X12664524Y-16865000D01*
X12674048Y-16874524D01*
X12683571Y-16893571D01*
X12693095Y-16931667D01*
X12693095Y-16979286D01*
X12683571Y-17017381D01*
X12674048Y-17036429D01*
X12664524Y-17045952D01*
X12645476Y-17055476D01*
X12626428Y-17055476D01*
X12607381Y-17045952D01*
X12597857Y-17036429D01*
X12588333Y-17017381D01*
X12578809Y-16979286D01*
X12578809Y-16931667D01*
X12588333Y-16893571D01*
X12597857Y-16874524D01*
X12607381Y-16865000D01*
X12626428Y-16855476D01*
X12816905Y-16855476D02*
X12835952Y-16855476D01*
X12855000Y-16865000D01*
X12864524Y-16874524D01*
X12874048Y-16893571D01*
X12883571Y-16931667D01*
X12883571Y-16979286D01*
X12874048Y-17017381D01*
X12864524Y-17036429D01*
X12855000Y-17045952D01*
X12835952Y-17055476D01*
X12816905Y-17055476D01*
X12797857Y-17045952D01*
X12788333Y-17036429D01*
X12778809Y-17017381D01*
X12769286Y-16979286D01*
X12769286Y-16931667D01*
X12778809Y-16893571D01*
X12788333Y-16874524D01*
X12797857Y-16865000D01*
X12816905Y-16855476D01*
X13007381Y-16855476D02*
X13026428Y-16855476D01*
X13045476Y-16865000D01*
X13055000Y-16874524D01*
X13064524Y-16893571D01*
X13074048Y-16931667D01*
X13074048Y-16979286D01*
X13064524Y-17017381D01*
X13055000Y-17036429D01*
X13045476Y-17045952D01*
X13026428Y-17055476D01*
X13007381Y-17055476D01*
X12988333Y-17045952D01*
X12978809Y-17036429D01*
X12969286Y-17017381D01*
X12959762Y-16979286D01*
X12959762Y-16931667D01*
X12969286Y-16893571D01*
X12978809Y-16874524D01*
X12988333Y-16865000D01*
X13007381Y-16855476D01*
X13159762Y-17055476D02*
X13159762Y-16922143D01*
X13159762Y-16941190D02*
X13169286Y-16931667D01*
X13188333Y-16922143D01*
X13216905Y-16922143D01*
X13235952Y-16931667D01*
X13245476Y-16950714D01*
X13245476Y-17055476D01*
X13245476Y-16950714D02*
X13255000Y-16931667D01*
X13274048Y-16922143D01*
X13302619Y-16922143D01*
X13321667Y-16931667D01*
X13331190Y-16950714D01*
X13331190Y-17055476D01*
X13426428Y-17055476D02*
X13426428Y-16922143D01*
X13426428Y-16941190D02*
X13435952Y-16931667D01*
X13455000Y-16922143D01*
X13483571Y-16922143D01*
X13502619Y-16931667D01*
X13512143Y-16950714D01*
X13512143Y-17055476D01*
X13512143Y-16950714D02*
X13521667Y-16931667D01*
X13540714Y-16922143D01*
X13569286Y-16922143D01*
X13588333Y-16931667D01*
X13597857Y-16950714D01*
X13597857Y-17055476D01*
X13988333Y-16845952D02*
X13816905Y-17103095D01*
X14245476Y-16855476D02*
X14264524Y-16855476D01*
X14283571Y-16865000D01*
X14293095Y-16874524D01*
X14302619Y-16893571D01*
X14312143Y-16931667D01*
X14312143Y-16979286D01*
X14302619Y-17017381D01*
X14293095Y-17036429D01*
X14283571Y-17045952D01*
X14264524Y-17055476D01*
X14245476Y-17055476D01*
X14226428Y-17045952D01*
X14216905Y-17036429D01*
X14207381Y-17017381D01*
X14197857Y-16979286D01*
X14197857Y-16931667D01*
X14207381Y-16893571D01*
X14216905Y-16874524D01*
X14226428Y-16865000D01*
X14245476Y-16855476D01*
X14397857Y-17036429D02*
X14407381Y-17045952D01*
X14397857Y-17055476D01*
X14388333Y-17045952D01*
X14397857Y-17036429D01*
X14397857Y-17055476D01*
X14531190Y-16855476D02*
X14550238Y-16855476D01*
X14569286Y-16865000D01*
X14578809Y-16874524D01*
X14588333Y-16893571D01*
X14597857Y-16931667D01*
X14597857Y-16979286D01*
X14588333Y-17017381D01*
X14578809Y-17036429D01*
X14569286Y-17045952D01*
X14550238Y-17055476D01*
X14531190Y-17055476D01*
X14512143Y-17045952D01*
X14502619Y-17036429D01*
X14493095Y-17017381D01*
X14483571Y-16979286D01*
X14483571Y-16931667D01*
X14493095Y-16893571D01*
X14502619Y-16874524D01*
X14512143Y-16865000D01*
X14531190Y-16855476D01*
X14664524Y-16855476D02*
X14788333Y-16855476D01*
X14721667Y-16931667D01*
X14750238Y-16931667D01*
X14769286Y-16941190D01*
X14778809Y-16950714D01*
X14788333Y-16969762D01*
X14788333Y-17017381D01*
X14778809Y-17036429D01*
X14769286Y-17045952D01*
X14750238Y-17055476D01*
X14693095Y-17055476D01*
X14674048Y-17045952D01*
X14664524Y-17036429D01*
X14883571Y-17055476D02*
X14921667Y-17055476D01*
X14940714Y-17045952D01*
X14950238Y-17036429D01*
X14969286Y-17007857D01*
X14978809Y-16969762D01*
X14978809Y-16893571D01*
X14969286Y-16874524D01*
X14959762Y-16865000D01*
X14940714Y-16855476D01*
X14902619Y-16855476D01*
X14883571Y-16865000D01*
X14874048Y-16874524D01*
X14864524Y-16893571D01*
X14864524Y-16941190D01*
X14874048Y-16960238D01*
X14883571Y-16969762D01*
X14902619Y-16979286D01*
X14940714Y-16979286D01*
X14959762Y-16969762D01*
X14969286Y-16960238D01*
X14978809Y-16941190D01*
X15150238Y-16922143D02*
X15150238Y-17055476D01*
X15102619Y-16845952D02*
X15055000Y-16988810D01*
X15178809Y-16988810D01*
X15245476Y-16855476D02*
X15245476Y-16893571D01*
X15321667Y-16855476D02*
X15321667Y-16893571D01*
X15616905Y-17131667D02*
X15607381Y-17122143D01*
X15588333Y-17093571D01*
X15578809Y-17074524D01*
X15569286Y-17045952D01*
X15559762Y-16998333D01*
X15559762Y-16960238D01*
X15569286Y-16912619D01*
X15578809Y-16884048D01*
X15588333Y-16865000D01*
X15607381Y-16836429D01*
X15616905Y-16826905D01*
X15674048Y-16855476D02*
X15807381Y-16855476D01*
X15721667Y-17055476D01*
X15893095Y-17055476D02*
X15931190Y-17055476D01*
X15950238Y-17045952D01*
X15959762Y-17036429D01*
X15978809Y-17007857D01*
X15988333Y-16969762D01*
X15988333Y-16893571D01*
X15978809Y-16874524D01*
X15969286Y-16865000D01*
X15950238Y-16855476D01*
X15912143Y-16855476D01*
X15893095Y-16865000D01*
X15883571Y-16874524D01*
X15874048Y-16893571D01*
X15874048Y-16941190D01*
X15883571Y-16960238D01*
X15893095Y-16969762D01*
X15912143Y-16979286D01*
X15950238Y-16979286D01*
X15969286Y-16969762D01*
X15978809Y-16960238D01*
X15988333Y-16941190D01*
X16226428Y-17055476D02*
X16226428Y-16855476D01*
X16312143Y-17055476D02*
X16312143Y-16950714D01*
X16302619Y-16931667D01*
X16283571Y-16922143D01*
X16255000Y-16922143D01*
X16235952Y-16931667D01*
X16226428Y-16941190D01*
X16435952Y-17055476D02*
X16416905Y-17045952D01*
X16407381Y-17036429D01*
X16397857Y-17017381D01*
X16397857Y-16960238D01*
X16407381Y-16941190D01*
X16416905Y-16931667D01*
X16435952Y-16922143D01*
X16464524Y-16922143D01*
X16483571Y-16931667D01*
X16493095Y-16941190D01*
X16502619Y-16960238D01*
X16502619Y-17017381D01*
X16493095Y-17036429D01*
X16483571Y-17045952D01*
X16464524Y-17055476D01*
X16435952Y-17055476D01*
X16616905Y-17055476D02*
X16597857Y-17045952D01*
X16588333Y-17026905D01*
X16588333Y-16855476D01*
X16769286Y-17045952D02*
X16750238Y-17055476D01*
X16712143Y-17055476D01*
X16693095Y-17045952D01*
X16683571Y-17026905D01*
X16683571Y-16950714D01*
X16693095Y-16931667D01*
X16712143Y-16922143D01*
X16750238Y-16922143D01*
X16769286Y-16931667D01*
X16778810Y-16950714D01*
X16778810Y-16969762D01*
X16683571Y-16988810D01*
X16855000Y-17045952D02*
X16874048Y-17055476D01*
X16912143Y-17055476D01*
X16931190Y-17045952D01*
X16940714Y-17026905D01*
X16940714Y-17017381D01*
X16931190Y-16998333D01*
X16912143Y-16988810D01*
X16883571Y-16988810D01*
X16864524Y-16979286D01*
X16855000Y-16960238D01*
X16855000Y-16950714D01*
X16864524Y-16931667D01*
X16883571Y-16922143D01*
X16912143Y-16922143D01*
X16931190Y-16931667D01*
X17007381Y-17131667D02*
X17016905Y-17122143D01*
X17035952Y-17093571D01*
X17045476Y-17074524D01*
X17055000Y-17045952D01*
X17064524Y-16998333D01*
X17064524Y-16960238D01*
X17055000Y-16912619D01*
X17045476Y-16884048D01*
X17035952Y-16865000D01*
X17016905Y-16836429D01*
X17007381Y-16826905D01*
D18*
X11935780Y-17174390D02*
X12045000Y-17283610D01*
X12045000Y-17174390D02*
X11935780Y-17283610D01*
X11990390Y-17174390D02*
X11990390Y-17283610D01*
X11935780Y-17229000D02*
X12045000Y-17229000D01*
D11*
X12407381Y-17319476D02*
X12293095Y-17319476D01*
X12350238Y-17319476D02*
X12350238Y-17119476D01*
X12331190Y-17148048D01*
X12312143Y-17167095D01*
X12293095Y-17176619D01*
X12493095Y-17300429D02*
X12502619Y-17309952D01*
X12493095Y-17319476D01*
X12483571Y-17309952D01*
X12493095Y-17300429D01*
X12493095Y-17319476D01*
X12626428Y-17119476D02*
X12645476Y-17119476D01*
X12664524Y-17129000D01*
X12674048Y-17138524D01*
X12683571Y-17157571D01*
X12693095Y-17195667D01*
X12693095Y-17243286D01*
X12683571Y-17281381D01*
X12674048Y-17300429D01*
X12664524Y-17309952D01*
X12645476Y-17319476D01*
X12626428Y-17319476D01*
X12607381Y-17309952D01*
X12597857Y-17300429D01*
X12588333Y-17281381D01*
X12578809Y-17243286D01*
X12578809Y-17195667D01*
X12588333Y-17157571D01*
X12597857Y-17138524D01*
X12607381Y-17129000D01*
X12626428Y-17119476D01*
X12788333Y-17319476D02*
X12826428Y-17319476D01*
X12845476Y-17309952D01*
X12855000Y-17300429D01*
X12874048Y-17271857D01*
X12883571Y-17233762D01*
X12883571Y-17157571D01*
X12874048Y-17138524D01*
X12864524Y-17129000D01*
X12845476Y-17119476D01*
X12807381Y-17119476D01*
X12788333Y-17129000D01*
X12778809Y-17138524D01*
X12769286Y-17157571D01*
X12769286Y-17205190D01*
X12778809Y-17224238D01*
X12788333Y-17233762D01*
X12807381Y-17243286D01*
X12845476Y-17243286D01*
X12864524Y-17233762D01*
X12874048Y-17224238D01*
X12883571Y-17205190D01*
X12959762Y-17138524D02*
X12969286Y-17129000D01*
X12988333Y-17119476D01*
X13035952Y-17119476D01*
X13055000Y-17129000D01*
X13064524Y-17138524D01*
X13074048Y-17157571D01*
X13074048Y-17176619D01*
X13064524Y-17205190D01*
X12950238Y-17319476D01*
X13074048Y-17319476D01*
X13159762Y-17319476D02*
X13159762Y-17186143D01*
X13159762Y-17205190D02*
X13169286Y-17195667D01*
X13188333Y-17186143D01*
X13216905Y-17186143D01*
X13235952Y-17195667D01*
X13245476Y-17214714D01*
X13245476Y-17319476D01*
X13245476Y-17214714D02*
X13255000Y-17195667D01*
X13274048Y-17186143D01*
X13302619Y-17186143D01*
X13321667Y-17195667D01*
X13331190Y-17214714D01*
X13331190Y-17319476D01*
X13426428Y-17319476D02*
X13426428Y-17186143D01*
X13426428Y-17205190D02*
X13435952Y-17195667D01*
X13455000Y-17186143D01*
X13483571Y-17186143D01*
X13502619Y-17195667D01*
X13512143Y-17214714D01*
X13512143Y-17319476D01*
X13512143Y-17214714D02*
X13521667Y-17195667D01*
X13540714Y-17186143D01*
X13569286Y-17186143D01*
X13588333Y-17195667D01*
X13597857Y-17214714D01*
X13597857Y-17319476D01*
X13988333Y-17109952D02*
X13816905Y-17367095D01*
X14245476Y-17119476D02*
X14264524Y-17119476D01*
X14283571Y-17129000D01*
X14293095Y-17138524D01*
X14302619Y-17157571D01*
X14312143Y-17195667D01*
X14312143Y-17243286D01*
X14302619Y-17281381D01*
X14293095Y-17300429D01*
X14283571Y-17309952D01*
X14264524Y-17319476D01*
X14245476Y-17319476D01*
X14226428Y-17309952D01*
X14216905Y-17300429D01*
X14207381Y-17281381D01*
X14197857Y-17243286D01*
X14197857Y-17195667D01*
X14207381Y-17157571D01*
X14216905Y-17138524D01*
X14226428Y-17129000D01*
X14245476Y-17119476D01*
X14397857Y-17300429D02*
X14407381Y-17309952D01*
X14397857Y-17319476D01*
X14388333Y-17309952D01*
X14397857Y-17300429D01*
X14397857Y-17319476D01*
X14531190Y-17119476D02*
X14550238Y-17119476D01*
X14569286Y-17129000D01*
X14578809Y-17138524D01*
X14588333Y-17157571D01*
X14597857Y-17195667D01*
X14597857Y-17243286D01*
X14588333Y-17281381D01*
X14578809Y-17300429D01*
X14569286Y-17309952D01*
X14550238Y-17319476D01*
X14531190Y-17319476D01*
X14512143Y-17309952D01*
X14502619Y-17300429D01*
X14493095Y-17281381D01*
X14483571Y-17243286D01*
X14483571Y-17195667D01*
X14493095Y-17157571D01*
X14502619Y-17138524D01*
X14512143Y-17129000D01*
X14531190Y-17119476D01*
X14769286Y-17186143D02*
X14769286Y-17319476D01*
X14721667Y-17109952D02*
X14674048Y-17252810D01*
X14797857Y-17252810D01*
X14855000Y-17119476D02*
X14978809Y-17119476D01*
X14912143Y-17195667D01*
X14940714Y-17195667D01*
X14959762Y-17205190D01*
X14969286Y-17214714D01*
X14978809Y-17233762D01*
X14978809Y-17281381D01*
X14969286Y-17300429D01*
X14959762Y-17309952D01*
X14940714Y-17319476D01*
X14883571Y-17319476D01*
X14864524Y-17309952D01*
X14855000Y-17300429D01*
X15102619Y-17119476D02*
X15121667Y-17119476D01*
X15140714Y-17129000D01*
X15150238Y-17138524D01*
X15159762Y-17157571D01*
X15169286Y-17195667D01*
X15169286Y-17243286D01*
X15159762Y-17281381D01*
X15150238Y-17300429D01*
X15140714Y-17309952D01*
X15121667Y-17319476D01*
X15102619Y-17319476D01*
X15083571Y-17309952D01*
X15074048Y-17300429D01*
X15064524Y-17281381D01*
X15055000Y-17243286D01*
X15055000Y-17195667D01*
X15064524Y-17157571D01*
X15074048Y-17138524D01*
X15083571Y-17129000D01*
X15102619Y-17119476D01*
X15245476Y-17119476D02*
X15245476Y-17157571D01*
X15321667Y-17119476D02*
X15321667Y-17157571D01*
X15616905Y-17395667D02*
X15607381Y-17386143D01*
X15588333Y-17357571D01*
X15578809Y-17338524D01*
X15569286Y-17309952D01*
X15559762Y-17262333D01*
X15559762Y-17224238D01*
X15569286Y-17176619D01*
X15578809Y-17148048D01*
X15588333Y-17129000D01*
X15607381Y-17100429D01*
X15616905Y-17090905D01*
X15797857Y-17319476D02*
X15683571Y-17319476D01*
X15740714Y-17319476D02*
X15740714Y-17119476D01*
X15721667Y-17148048D01*
X15702619Y-17167095D01*
X15683571Y-17176619D01*
X15912143Y-17205190D02*
X15893095Y-17195667D01*
X15883571Y-17186143D01*
X15874048Y-17167095D01*
X15874048Y-17157571D01*
X15883571Y-17138524D01*
X15893095Y-17129000D01*
X15912143Y-17119476D01*
X15950238Y-17119476D01*
X15969286Y-17129000D01*
X15978809Y-17138524D01*
X15988333Y-17157571D01*
X15988333Y-17167095D01*
X15978809Y-17186143D01*
X15969286Y-17195667D01*
X15950238Y-17205190D01*
X15912143Y-17205190D01*
X15893095Y-17214714D01*
X15883571Y-17224238D01*
X15874048Y-17243286D01*
X15874048Y-17281381D01*
X15883571Y-17300429D01*
X15893095Y-17309952D01*
X15912143Y-17319476D01*
X15950238Y-17319476D01*
X15969286Y-17309952D01*
X15978809Y-17300429D01*
X15988333Y-17281381D01*
X15988333Y-17243286D01*
X15978809Y-17224238D01*
X15969286Y-17214714D01*
X15950238Y-17205190D01*
X16226428Y-17319476D02*
X16226428Y-17119476D01*
X16312143Y-17319476D02*
X16312143Y-17214714D01*
X16302619Y-17195667D01*
X16283571Y-17186143D01*
X16255000Y-17186143D01*
X16235952Y-17195667D01*
X16226428Y-17205190D01*
X16435952Y-17319476D02*
X16416905Y-17309952D01*
X16407381Y-17300429D01*
X16397857Y-17281381D01*
X16397857Y-17224238D01*
X16407381Y-17205190D01*
X16416905Y-17195667D01*
X16435952Y-17186143D01*
X16464524Y-17186143D01*
X16483571Y-17195667D01*
X16493095Y-17205190D01*
X16502619Y-17224238D01*
X16502619Y-17281381D01*
X16493095Y-17300429D01*
X16483571Y-17309952D01*
X16464524Y-17319476D01*
X16435952Y-17319476D01*
X16616905Y-17319476D02*
X16597857Y-17309952D01*
X16588333Y-17290905D01*
X16588333Y-17119476D01*
X16769286Y-17309952D02*
X16750238Y-17319476D01*
X16712143Y-17319476D01*
X16693095Y-17309952D01*
X16683571Y-17290905D01*
X16683571Y-17214714D01*
X16693095Y-17195667D01*
X16712143Y-17186143D01*
X16750238Y-17186143D01*
X16769286Y-17195667D01*
X16778810Y-17214714D01*
X16778810Y-17233762D01*
X16683571Y-17252810D01*
X16855000Y-17309952D02*
X16874048Y-17319476D01*
X16912143Y-17319476D01*
X16931190Y-17309952D01*
X16940714Y-17290905D01*
X16940714Y-17281381D01*
X16931190Y-17262333D01*
X16912143Y-17252810D01*
X16883571Y-17252810D01*
X16864524Y-17243286D01*
X16855000Y-17224238D01*
X16855000Y-17214714D01*
X16864524Y-17195667D01*
X16883571Y-17186143D01*
X16912143Y-17186143D01*
X16931190Y-17195667D01*
X17007381Y-17395667D02*
X17016905Y-17386143D01*
X17035952Y-17357571D01*
X17045476Y-17338524D01*
X17055000Y-17309952D01*
X17064524Y-17262333D01*
X17064524Y-17224238D01*
X17055000Y-17176619D01*
X17045476Y-17148048D01*
X17035952Y-17129000D01*
X17016905Y-17100429D01*
X17007381Y-17090905D01*
D19*
X11935000Y-17438000D02*
X12045000Y-17548000D01*
X12045000Y-17438000D02*
X11935000Y-17548000D01*
X12028891Y-17531891D02*
X12028891Y-17454109D01*
X11951109Y-17454109D01*
X11951109Y-17531891D01*
X12028891Y-17531891D01*
D11*
X12407381Y-17583476D02*
X12293095Y-17583476D01*
X12350238Y-17583476D02*
X12350238Y-17383476D01*
X12331190Y-17412048D01*
X12312143Y-17431095D01*
X12293095Y-17440619D01*
X12493095Y-17564429D02*
X12502619Y-17573952D01*
X12493095Y-17583476D01*
X12483571Y-17573952D01*
X12493095Y-17564429D01*
X12493095Y-17583476D01*
X12693095Y-17583476D02*
X12578809Y-17583476D01*
X12635952Y-17583476D02*
X12635952Y-17383476D01*
X12616905Y-17412048D01*
X12597857Y-17431095D01*
X12578809Y-17440619D01*
X12816905Y-17383476D02*
X12835952Y-17383476D01*
X12855000Y-17393000D01*
X12864524Y-17402524D01*
X12874048Y-17421571D01*
X12883571Y-17459667D01*
X12883571Y-17507286D01*
X12874048Y-17545381D01*
X12864524Y-17564429D01*
X12855000Y-17573952D01*
X12835952Y-17583476D01*
X12816905Y-17583476D01*
X12797857Y-17573952D01*
X12788333Y-17564429D01*
X12778809Y-17545381D01*
X12769286Y-17507286D01*
X12769286Y-17459667D01*
X12778809Y-17421571D01*
X12788333Y-17402524D01*
X12797857Y-17393000D01*
X12816905Y-17383476D01*
X13007381Y-17383476D02*
X13026428Y-17383476D01*
X13045476Y-17393000D01*
X13055000Y-17402524D01*
X13064524Y-17421571D01*
X13074048Y-17459667D01*
X13074048Y-17507286D01*
X13064524Y-17545381D01*
X13055000Y-17564429D01*
X13045476Y-17573952D01*
X13026428Y-17583476D01*
X13007381Y-17583476D01*
X12988333Y-17573952D01*
X12978809Y-17564429D01*
X12969286Y-17545381D01*
X12959762Y-17507286D01*
X12959762Y-17459667D01*
X12969286Y-17421571D01*
X12978809Y-17402524D01*
X12988333Y-17393000D01*
X13007381Y-17383476D01*
X13159762Y-17583476D02*
X13159762Y-17450143D01*
X13159762Y-17469190D02*
X13169286Y-17459667D01*
X13188333Y-17450143D01*
X13216905Y-17450143D01*
X13235952Y-17459667D01*
X13245476Y-17478714D01*
X13245476Y-17583476D01*
X13245476Y-17478714D02*
X13255000Y-17459667D01*
X13274048Y-17450143D01*
X13302619Y-17450143D01*
X13321667Y-17459667D01*
X13331190Y-17478714D01*
X13331190Y-17583476D01*
X13426428Y-17583476D02*
X13426428Y-17450143D01*
X13426428Y-17469190D02*
X13435952Y-17459667D01*
X13455000Y-17450143D01*
X13483571Y-17450143D01*
X13502619Y-17459667D01*
X13512143Y-17478714D01*
X13512143Y-17583476D01*
X13512143Y-17478714D02*
X13521667Y-17459667D01*
X13540714Y-17450143D01*
X13569286Y-17450143D01*
X13588333Y-17459667D01*
X13597857Y-17478714D01*
X13597857Y-17583476D01*
X13988333Y-17373952D02*
X13816905Y-17631095D01*
X14245476Y-17383476D02*
X14264524Y-17383476D01*
X14283571Y-17393000D01*
X14293095Y-17402524D01*
X14302619Y-17421571D01*
X14312143Y-17459667D01*
X14312143Y-17507286D01*
X14302619Y-17545381D01*
X14293095Y-17564429D01*
X14283571Y-17573952D01*
X14264524Y-17583476D01*
X14245476Y-17583476D01*
X14226428Y-17573952D01*
X14216905Y-17564429D01*
X14207381Y-17545381D01*
X14197857Y-17507286D01*
X14197857Y-17459667D01*
X14207381Y-17421571D01*
X14216905Y-17402524D01*
X14226428Y-17393000D01*
X14245476Y-17383476D01*
X14397857Y-17564429D02*
X14407381Y-17573952D01*
X14397857Y-17583476D01*
X14388333Y-17573952D01*
X14397857Y-17564429D01*
X14397857Y-17583476D01*
X14531190Y-17383476D02*
X14550238Y-17383476D01*
X14569286Y-17393000D01*
X14578809Y-17402524D01*
X14588333Y-17421571D01*
X14597857Y-17459667D01*
X14597857Y-17507286D01*
X14588333Y-17545381D01*
X14578809Y-17564429D01*
X14569286Y-17573952D01*
X14550238Y-17583476D01*
X14531190Y-17583476D01*
X14512143Y-17573952D01*
X14502619Y-17564429D01*
X14493095Y-17545381D01*
X14483571Y-17507286D01*
X14483571Y-17459667D01*
X14493095Y-17421571D01*
X14502619Y-17402524D01*
X14512143Y-17393000D01*
X14531190Y-17383476D01*
X14769286Y-17450143D02*
X14769286Y-17583476D01*
X14721667Y-17373952D02*
X14674048Y-17516810D01*
X14797857Y-17516810D01*
X14855000Y-17383476D02*
X14978809Y-17383476D01*
X14912143Y-17459667D01*
X14940714Y-17459667D01*
X14959762Y-17469190D01*
X14969286Y-17478714D01*
X14978809Y-17497762D01*
X14978809Y-17545381D01*
X14969286Y-17564429D01*
X14959762Y-17573952D01*
X14940714Y-17583476D01*
X14883571Y-17583476D01*
X14864524Y-17573952D01*
X14855000Y-17564429D01*
X15045476Y-17383476D02*
X15169286Y-17383476D01*
X15102619Y-17459667D01*
X15131190Y-17459667D01*
X15150238Y-17469190D01*
X15159762Y-17478714D01*
X15169286Y-17497762D01*
X15169286Y-17545381D01*
X15159762Y-17564429D01*
X15150238Y-17573952D01*
X15131190Y-17583476D01*
X15074048Y-17583476D01*
X15055000Y-17573952D01*
X15045476Y-17564429D01*
X15245476Y-17383476D02*
X15245476Y-17421571D01*
X15321667Y-17383476D02*
X15321667Y-17421571D01*
X15616905Y-17659667D02*
X15607381Y-17650143D01*
X15588333Y-17621571D01*
X15578809Y-17602524D01*
X15569286Y-17573952D01*
X15559762Y-17526333D01*
X15559762Y-17488238D01*
X15569286Y-17440619D01*
X15578809Y-17412048D01*
X15588333Y-17393000D01*
X15607381Y-17364429D01*
X15616905Y-17354905D01*
X15778809Y-17383476D02*
X15740714Y-17383476D01*
X15721667Y-17393000D01*
X15712143Y-17402524D01*
X15693095Y-17431095D01*
X15683571Y-17469190D01*
X15683571Y-17545381D01*
X15693095Y-17564429D01*
X15702619Y-17573952D01*
X15721667Y-17583476D01*
X15759762Y-17583476D01*
X15778809Y-17573952D01*
X15788333Y-17564429D01*
X15797857Y-17545381D01*
X15797857Y-17497762D01*
X15788333Y-17478714D01*
X15778809Y-17469190D01*
X15759762Y-17459667D01*
X15721667Y-17459667D01*
X15702619Y-17469190D01*
X15693095Y-17478714D01*
X15683571Y-17497762D01*
X15893095Y-17583476D02*
X15931190Y-17583476D01*
X15950238Y-17573952D01*
X15959762Y-17564429D01*
X15978809Y-17535857D01*
X15988333Y-17497762D01*
X15988333Y-17421571D01*
X15978809Y-17402524D01*
X15969286Y-17393000D01*
X15950238Y-17383476D01*
X15912143Y-17383476D01*
X15893095Y-17393000D01*
X15883571Y-17402524D01*
X15874048Y-17421571D01*
X15874048Y-17469190D01*
X15883571Y-17488238D01*
X15893095Y-17497762D01*
X15912143Y-17507286D01*
X15950238Y-17507286D01*
X15969286Y-17497762D01*
X15978809Y-17488238D01*
X15988333Y-17469190D01*
X16226428Y-17583476D02*
X16226428Y-17383476D01*
X16312143Y-17583476D02*
X16312143Y-17478714D01*
X16302619Y-17459667D01*
X16283571Y-17450143D01*
X16255000Y-17450143D01*
X16235952Y-17459667D01*
X16226428Y-17469190D01*
X16435952Y-17583476D02*
X16416905Y-17573952D01*
X16407381Y-17564429D01*
X16397857Y-17545381D01*
X16397857Y-17488238D01*
X16407381Y-17469190D01*
X16416905Y-17459667D01*
X16435952Y-17450143D01*
X16464524Y-17450143D01*
X16483571Y-17459667D01*
X16493095Y-17469190D01*
X16502619Y-17488238D01*
X16502619Y-17545381D01*
X16493095Y-17564429D01*
X16483571Y-17573952D01*
X16464524Y-17583476D01*
X16435952Y-17583476D01*
X16616905Y-17583476D02*
X16597857Y-17573952D01*
X16588333Y-17554905D01*
X16588333Y-17383476D01*
X16769286Y-17573952D02*
X16750238Y-17583476D01*
X16712143Y-17583476D01*
X16693095Y-17573952D01*
X16683571Y-17554905D01*
X16683571Y-17478714D01*
X16693095Y-17459667D01*
X16712143Y-17450143D01*
X16750238Y-17450143D01*
X16769286Y-17459667D01*
X16778810Y-17478714D01*
X16778810Y-17497762D01*
X16683571Y-17516810D01*
X16855000Y-17573952D02*
X16874048Y-17583476D01*
X16912143Y-17583476D01*
X16931190Y-17573952D01*
X16940714Y-17554905D01*
X16940714Y-17545381D01*
X16931190Y-17526333D01*
X16912143Y-17516810D01*
X16883571Y-17516810D01*
X16864524Y-17507286D01*
X16855000Y-17488238D01*
X16855000Y-17478714D01*
X16864524Y-17459667D01*
X16883571Y-17450143D01*
X16912143Y-17450143D01*
X16931190Y-17459667D01*
X17007381Y-17659667D02*
X17016905Y-17650143D01*
X17035952Y-17621571D01*
X17045476Y-17602524D01*
X17055000Y-17573952D01*
X17064524Y-17526333D01*
X17064524Y-17488238D01*
X17055000Y-17440619D01*
X17045476Y-17412048D01*
X17035952Y-17393000D01*
X17016905Y-17364429D01*
X17007381Y-17354905D01*
D20*
X11915460Y-17692230D02*
X12045000Y-17821770D01*
X12045000Y-17692230D02*
X11915460Y-17821770D01*
X11980230Y-17821770D02*
X12045000Y-17757000D01*
X11980230Y-17692230D01*
X11915460Y-17757000D01*
X11980230Y-17821770D01*
D11*
X12407381Y-17847476D02*
X12293095Y-17847476D01*
X12350238Y-17847476D02*
X12350238Y-17647476D01*
X12331190Y-17676048D01*
X12312143Y-17695095D01*
X12293095Y-17704619D01*
X12493095Y-17828429D02*
X12502619Y-17837952D01*
X12493095Y-17847476D01*
X12483571Y-17837952D01*
X12493095Y-17828429D01*
X12493095Y-17847476D01*
X12578809Y-17666524D02*
X12588333Y-17657000D01*
X12607381Y-17647476D01*
X12655000Y-17647476D01*
X12674048Y-17657000D01*
X12683571Y-17666524D01*
X12693095Y-17685571D01*
X12693095Y-17704619D01*
X12683571Y-17733190D01*
X12569286Y-17847476D01*
X12693095Y-17847476D01*
X12788333Y-17847476D02*
X12826428Y-17847476D01*
X12845476Y-17837952D01*
X12855000Y-17828429D01*
X12874048Y-17799857D01*
X12883571Y-17761762D01*
X12883571Y-17685571D01*
X12874048Y-17666524D01*
X12864524Y-17657000D01*
X12845476Y-17647476D01*
X12807381Y-17647476D01*
X12788333Y-17657000D01*
X12778809Y-17666524D01*
X12769286Y-17685571D01*
X12769286Y-17733190D01*
X12778809Y-17752238D01*
X12788333Y-17761762D01*
X12807381Y-17771286D01*
X12845476Y-17771286D01*
X12864524Y-17761762D01*
X12874048Y-17752238D01*
X12883571Y-17733190D01*
X13064524Y-17647476D02*
X12969286Y-17647476D01*
X12959762Y-17742714D01*
X12969286Y-17733190D01*
X12988333Y-17723667D01*
X13035952Y-17723667D01*
X13055000Y-17733190D01*
X13064524Y-17742714D01*
X13074048Y-17761762D01*
X13074048Y-17809381D01*
X13064524Y-17828429D01*
X13055000Y-17837952D01*
X13035952Y-17847476D01*
X12988333Y-17847476D01*
X12969286Y-17837952D01*
X12959762Y-17828429D01*
X13159762Y-17847476D02*
X13159762Y-17714143D01*
X13159762Y-17733190D02*
X13169286Y-17723667D01*
X13188333Y-17714143D01*
X13216905Y-17714143D01*
X13235952Y-17723667D01*
X13245476Y-17742714D01*
X13245476Y-17847476D01*
X13245476Y-17742714D02*
X13255000Y-17723667D01*
X13274048Y-17714143D01*
X13302619Y-17714143D01*
X13321667Y-17723667D01*
X13331190Y-17742714D01*
X13331190Y-17847476D01*
X13426428Y-17847476D02*
X13426428Y-17714143D01*
X13426428Y-17733190D02*
X13435952Y-17723667D01*
X13455000Y-17714143D01*
X13483571Y-17714143D01*
X13502619Y-17723667D01*
X13512143Y-17742714D01*
X13512143Y-17847476D01*
X13512143Y-17742714D02*
X13521667Y-17723667D01*
X13540714Y-17714143D01*
X13569286Y-17714143D01*
X13588333Y-17723667D01*
X13597857Y-17742714D01*
X13597857Y-17847476D01*
X13988333Y-17637952D02*
X13816905Y-17895095D01*
X14245476Y-17647476D02*
X14264524Y-17647476D01*
X14283571Y-17657000D01*
X14293095Y-17666524D01*
X14302619Y-17685571D01*
X14312143Y-17723667D01*
X14312143Y-17771286D01*
X14302619Y-17809381D01*
X14293095Y-17828429D01*
X14283571Y-17837952D01*
X14264524Y-17847476D01*
X14245476Y-17847476D01*
X14226428Y-17837952D01*
X14216905Y-17828429D01*
X14207381Y-17809381D01*
X14197857Y-17771286D01*
X14197857Y-17723667D01*
X14207381Y-17685571D01*
X14216905Y-17666524D01*
X14226428Y-17657000D01*
X14245476Y-17647476D01*
X14397857Y-17828429D02*
X14407381Y-17837952D01*
X14397857Y-17847476D01*
X14388333Y-17837952D01*
X14397857Y-17828429D01*
X14397857Y-17847476D01*
X14531190Y-17647476D02*
X14550238Y-17647476D01*
X14569286Y-17657000D01*
X14578809Y-17666524D01*
X14588333Y-17685571D01*
X14597857Y-17723667D01*
X14597857Y-17771286D01*
X14588333Y-17809381D01*
X14578809Y-17828429D01*
X14569286Y-17837952D01*
X14550238Y-17847476D01*
X14531190Y-17847476D01*
X14512143Y-17837952D01*
X14502619Y-17828429D01*
X14493095Y-17809381D01*
X14483571Y-17771286D01*
X14483571Y-17723667D01*
X14493095Y-17685571D01*
X14502619Y-17666524D01*
X14512143Y-17657000D01*
X14531190Y-17647476D01*
X14778809Y-17647476D02*
X14683571Y-17647476D01*
X14674048Y-17742714D01*
X14683571Y-17733190D01*
X14702619Y-17723667D01*
X14750238Y-17723667D01*
X14769286Y-17733190D01*
X14778809Y-17742714D01*
X14788333Y-17761762D01*
X14788333Y-17809381D01*
X14778809Y-17828429D01*
X14769286Y-17837952D01*
X14750238Y-17847476D01*
X14702619Y-17847476D01*
X14683571Y-17837952D01*
X14674048Y-17828429D01*
X14978809Y-17847476D02*
X14864524Y-17847476D01*
X14921667Y-17847476D02*
X14921667Y-17647476D01*
X14902619Y-17676048D01*
X14883571Y-17695095D01*
X14864524Y-17704619D01*
X15102619Y-17647476D02*
X15121667Y-17647476D01*
X15140714Y-17657000D01*
X15150238Y-17666524D01*
X15159762Y-17685571D01*
X15169286Y-17723667D01*
X15169286Y-17771286D01*
X15159762Y-17809381D01*
X15150238Y-17828429D01*
X15140714Y-17837952D01*
X15121667Y-17847476D01*
X15102619Y-17847476D01*
X15083571Y-17837952D01*
X15074048Y-17828429D01*
X15064524Y-17809381D01*
X15055000Y-17771286D01*
X15055000Y-17723667D01*
X15064524Y-17685571D01*
X15074048Y-17666524D01*
X15083571Y-17657000D01*
X15102619Y-17647476D01*
X15245476Y-17647476D02*
X15245476Y-17685571D01*
X15321667Y-17647476D02*
X15321667Y-17685571D01*
X15616905Y-17923667D02*
X15607381Y-17914143D01*
X15588333Y-17885571D01*
X15578809Y-17866524D01*
X15569286Y-17837952D01*
X15559762Y-17790333D01*
X15559762Y-17752238D01*
X15569286Y-17704619D01*
X15578809Y-17676048D01*
X15588333Y-17657000D01*
X15607381Y-17628429D01*
X15616905Y-17618905D01*
X15778809Y-17647476D02*
X15740714Y-17647476D01*
X15721667Y-17657000D01*
X15712143Y-17666524D01*
X15693095Y-17695095D01*
X15683571Y-17733190D01*
X15683571Y-17809381D01*
X15693095Y-17828429D01*
X15702619Y-17837952D01*
X15721667Y-17847476D01*
X15759762Y-17847476D01*
X15778809Y-17837952D01*
X15788333Y-17828429D01*
X15797857Y-17809381D01*
X15797857Y-17761762D01*
X15788333Y-17742714D01*
X15778809Y-17733190D01*
X15759762Y-17723667D01*
X15721667Y-17723667D01*
X15702619Y-17733190D01*
X15693095Y-17742714D01*
X15683571Y-17761762D01*
X16035952Y-17847476D02*
X16035952Y-17647476D01*
X16121667Y-17847476D02*
X16121667Y-17742714D01*
X16112143Y-17723667D01*
X16093095Y-17714143D01*
X16064524Y-17714143D01*
X16045476Y-17723667D01*
X16035952Y-17733190D01*
X16245476Y-17847476D02*
X16226428Y-17837952D01*
X16216905Y-17828429D01*
X16207381Y-17809381D01*
X16207381Y-17752238D01*
X16216905Y-17733190D01*
X16226428Y-17723667D01*
X16245476Y-17714143D01*
X16274048Y-17714143D01*
X16293095Y-17723667D01*
X16302619Y-17733190D01*
X16312143Y-17752238D01*
X16312143Y-17809381D01*
X16302619Y-17828429D01*
X16293095Y-17837952D01*
X16274048Y-17847476D01*
X16245476Y-17847476D01*
X16426428Y-17847476D02*
X16407381Y-17837952D01*
X16397857Y-17818905D01*
X16397857Y-17647476D01*
X16578809Y-17837952D02*
X16559762Y-17847476D01*
X16521667Y-17847476D01*
X16502619Y-17837952D01*
X16493095Y-17818905D01*
X16493095Y-17742714D01*
X16502619Y-17723667D01*
X16521667Y-17714143D01*
X16559762Y-17714143D01*
X16578809Y-17723667D01*
X16588333Y-17742714D01*
X16588333Y-17761762D01*
X16493095Y-17780810D01*
X16664524Y-17837952D02*
X16683571Y-17847476D01*
X16721667Y-17847476D01*
X16740714Y-17837952D01*
X16750238Y-17818905D01*
X16750238Y-17809381D01*
X16740714Y-17790333D01*
X16721667Y-17780810D01*
X16693095Y-17780810D01*
X16674048Y-17771286D01*
X16664524Y-17752238D01*
X16664524Y-17742714D01*
X16674048Y-17723667D01*
X16693095Y-17714143D01*
X16721667Y-17714143D01*
X16740714Y-17723667D01*
X16816905Y-17923667D02*
X16826429Y-17914143D01*
X16845476Y-17885571D01*
X16855000Y-17866524D01*
X16864524Y-17837952D01*
X16874048Y-17790333D01*
X16874048Y-17752238D01*
X16864524Y-17704619D01*
X16855000Y-17676048D01*
X16845476Y-17657000D01*
X16826429Y-17628429D01*
X16816905Y-17618905D01*
X11945000Y-17921000D02*
X11945000Y-18121000D01*
X11845000Y-18021000D02*
X12045000Y-18021000D01*
X12045000Y-18021000D02*
G75*
G03*
X12045000Y-18021000I-100000J0D01*
G01*
X12283571Y-17911476D02*
X12407381Y-17911476D01*
X12340714Y-17987667D01*
X12369286Y-17987667D01*
X12388333Y-17997190D01*
X12397857Y-18006714D01*
X12407381Y-18025762D01*
X12407381Y-18073381D01*
X12397857Y-18092429D01*
X12388333Y-18101952D01*
X12369286Y-18111476D01*
X12312143Y-18111476D01*
X12293095Y-18101952D01*
X12283571Y-18092429D01*
X12493095Y-18092429D02*
X12502619Y-18101952D01*
X12493095Y-18111476D01*
X12483571Y-18101952D01*
X12493095Y-18092429D01*
X12493095Y-18111476D01*
X12578809Y-17930524D02*
X12588333Y-17921000D01*
X12607381Y-17911476D01*
X12655000Y-17911476D01*
X12674048Y-17921000D01*
X12683571Y-17930524D01*
X12693095Y-17949571D01*
X12693095Y-17968619D01*
X12683571Y-17997190D01*
X12569286Y-18111476D01*
X12693095Y-18111476D01*
X12816905Y-17911476D02*
X12835952Y-17911476D01*
X12855000Y-17921000D01*
X12864524Y-17930524D01*
X12874048Y-17949571D01*
X12883571Y-17987667D01*
X12883571Y-18035286D01*
X12874048Y-18073381D01*
X12864524Y-18092429D01*
X12855000Y-18101952D01*
X12835952Y-18111476D01*
X12816905Y-18111476D01*
X12797857Y-18101952D01*
X12788333Y-18092429D01*
X12778809Y-18073381D01*
X12769286Y-18035286D01*
X12769286Y-17987667D01*
X12778809Y-17949571D01*
X12788333Y-17930524D01*
X12797857Y-17921000D01*
X12816905Y-17911476D01*
X13007381Y-17911476D02*
X13026428Y-17911476D01*
X13045476Y-17921000D01*
X13055000Y-17930524D01*
X13064524Y-17949571D01*
X13074048Y-17987667D01*
X13074048Y-18035286D01*
X13064524Y-18073381D01*
X13055000Y-18092429D01*
X13045476Y-18101952D01*
X13026428Y-18111476D01*
X13007381Y-18111476D01*
X12988333Y-18101952D01*
X12978809Y-18092429D01*
X12969286Y-18073381D01*
X12959762Y-18035286D01*
X12959762Y-17987667D01*
X12969286Y-17949571D01*
X12978809Y-17930524D01*
X12988333Y-17921000D01*
X13007381Y-17911476D01*
X13159762Y-18111476D02*
X13159762Y-17978143D01*
X13159762Y-17997190D02*
X13169286Y-17987667D01*
X13188333Y-17978143D01*
X13216905Y-17978143D01*
X13235952Y-17987667D01*
X13245476Y-18006714D01*
X13245476Y-18111476D01*
X13245476Y-18006714D02*
X13255000Y-17987667D01*
X13274048Y-17978143D01*
X13302619Y-17978143D01*
X13321667Y-17987667D01*
X13331190Y-18006714D01*
X13331190Y-18111476D01*
X13426428Y-18111476D02*
X13426428Y-17978143D01*
X13426428Y-17997190D02*
X13435952Y-17987667D01*
X13455000Y-17978143D01*
X13483571Y-17978143D01*
X13502619Y-17987667D01*
X13512143Y-18006714D01*
X13512143Y-18111476D01*
X13512143Y-18006714D02*
X13521667Y-17987667D01*
X13540714Y-17978143D01*
X13569286Y-17978143D01*
X13588333Y-17987667D01*
X13597857Y-18006714D01*
X13597857Y-18111476D01*
X13988333Y-17901952D02*
X13816905Y-18159095D01*
X14245476Y-17911476D02*
X14264524Y-17911476D01*
X14283571Y-17921000D01*
X14293095Y-17930524D01*
X14302619Y-17949571D01*
X14312143Y-17987667D01*
X14312143Y-18035286D01*
X14302619Y-18073381D01*
X14293095Y-18092429D01*
X14283571Y-18101952D01*
X14264524Y-18111476D01*
X14245476Y-18111476D01*
X14226428Y-18101952D01*
X14216905Y-18092429D01*
X14207381Y-18073381D01*
X14197857Y-18035286D01*
X14197857Y-17987667D01*
X14207381Y-17949571D01*
X14216905Y-17930524D01*
X14226428Y-17921000D01*
X14245476Y-17911476D01*
X14397857Y-18092429D02*
X14407381Y-18101952D01*
X14397857Y-18111476D01*
X14388333Y-18101952D01*
X14397857Y-18092429D01*
X14397857Y-18111476D01*
X14597857Y-18111476D02*
X14483571Y-18111476D01*
X14540714Y-18111476D02*
X14540714Y-17911476D01*
X14521667Y-17940048D01*
X14502619Y-17959095D01*
X14483571Y-17968619D01*
X14674048Y-17930524D02*
X14683571Y-17921000D01*
X14702619Y-17911476D01*
X14750238Y-17911476D01*
X14769286Y-17921000D01*
X14778809Y-17930524D01*
X14788333Y-17949571D01*
X14788333Y-17968619D01*
X14778809Y-17997190D01*
X14664524Y-18111476D01*
X14788333Y-18111476D01*
X14959762Y-17911476D02*
X14921667Y-17911476D01*
X14902619Y-17921000D01*
X14893095Y-17930524D01*
X14874048Y-17959095D01*
X14864524Y-17997190D01*
X14864524Y-18073381D01*
X14874048Y-18092429D01*
X14883571Y-18101952D01*
X14902619Y-18111476D01*
X14940714Y-18111476D01*
X14959762Y-18101952D01*
X14969286Y-18092429D01*
X14978809Y-18073381D01*
X14978809Y-18025762D01*
X14969286Y-18006714D01*
X14959762Y-17997190D01*
X14940714Y-17987667D01*
X14902619Y-17987667D01*
X14883571Y-17997190D01*
X14874048Y-18006714D01*
X14864524Y-18025762D01*
X15102619Y-17911476D02*
X15121667Y-17911476D01*
X15140714Y-17921000D01*
X15150238Y-17930524D01*
X15159762Y-17949571D01*
X15169286Y-17987667D01*
X15169286Y-18035286D01*
X15159762Y-18073381D01*
X15150238Y-18092429D01*
X15140714Y-18101952D01*
X15121667Y-18111476D01*
X15102619Y-18111476D01*
X15083571Y-18101952D01*
X15074048Y-18092429D01*
X15064524Y-18073381D01*
X15055000Y-18035286D01*
X15055000Y-17987667D01*
X15064524Y-17949571D01*
X15074048Y-17930524D01*
X15083571Y-17921000D01*
X15102619Y-17911476D01*
X15245476Y-17911476D02*
X15245476Y-17949571D01*
X15321667Y-17911476D02*
X15321667Y-17949571D01*
X15616905Y-18187667D02*
X15607381Y-18178143D01*
X15588333Y-18149571D01*
X15578809Y-18130524D01*
X15569286Y-18101952D01*
X15559762Y-18054333D01*
X15559762Y-18016238D01*
X15569286Y-17968619D01*
X15578809Y-17940048D01*
X15588333Y-17921000D01*
X15607381Y-17892429D01*
X15616905Y-17882905D01*
X15778809Y-17978143D02*
X15778809Y-18111476D01*
X15731190Y-17901952D02*
X15683571Y-18044810D01*
X15807381Y-18044810D01*
X16035952Y-18111476D02*
X16035952Y-17911476D01*
X16121667Y-18111476D02*
X16121667Y-18006714D01*
X16112143Y-17987667D01*
X16093095Y-17978143D01*
X16064524Y-17978143D01*
X16045476Y-17987667D01*
X16035952Y-17997190D01*
X16245476Y-18111476D02*
X16226428Y-18101952D01*
X16216905Y-18092429D01*
X16207381Y-18073381D01*
X16207381Y-18016238D01*
X16216905Y-17997190D01*
X16226428Y-17987667D01*
X16245476Y-17978143D01*
X16274048Y-17978143D01*
X16293095Y-17987667D01*
X16302619Y-17997190D01*
X16312143Y-18016238D01*
X16312143Y-18073381D01*
X16302619Y-18092429D01*
X16293095Y-18101952D01*
X16274048Y-18111476D01*
X16245476Y-18111476D01*
X16426428Y-18111476D02*
X16407381Y-18101952D01*
X16397857Y-18082905D01*
X16397857Y-17911476D01*
X16578809Y-18101952D02*
X16559762Y-18111476D01*
X16521667Y-18111476D01*
X16502619Y-18101952D01*
X16493095Y-18082905D01*
X16493095Y-18006714D01*
X16502619Y-17987667D01*
X16521667Y-17978143D01*
X16559762Y-17978143D01*
X16578809Y-17987667D01*
X16588333Y-18006714D01*
X16588333Y-18025762D01*
X16493095Y-18044810D01*
X16664524Y-18101952D02*
X16683571Y-18111476D01*
X16721667Y-18111476D01*
X16740714Y-18101952D01*
X16750238Y-18082905D01*
X16750238Y-18073381D01*
X16740714Y-18054333D01*
X16721667Y-18044810D01*
X16693095Y-18044810D01*
X16674048Y-18035286D01*
X16664524Y-18016238D01*
X16664524Y-18006714D01*
X16674048Y-17987667D01*
X16693095Y-17978143D01*
X16721667Y-17978143D01*
X16740714Y-17987667D01*
X16816905Y-18187667D02*
X16826429Y-18178143D01*
X16845476Y-18149571D01*
X16855000Y-18130524D01*
X16864524Y-18101952D01*
X16874048Y-18054333D01*
X16874048Y-18016238D01*
X16864524Y-17968619D01*
X16855000Y-17940048D01*
X16845476Y-17921000D01*
X16826429Y-17892429D01*
X16816905Y-17882905D01*
M02*
