M48
; DRILL file {KiCad 6.0.5-a6ca702e91~116~ubuntu20.04.1} date Tue 31 May 2022 08:03:49 AM MDT
; FORMAT={-:-/ absolute / metric / decimal}
; #@! TF.CreationDate,2022-05-31T08:03:49-06:00
; #@! TF.GenerationSoftware,Kicad,Pcbnew,6.0.5-a6ca702e91~116~ubuntu20.04.1
; #@! TF.FileFunction,Plated,1,2,PTH
FMAT,2
METRIC
; #@! TA.AperFunction,Plated,PTH,ViaDrill
T1C0.508
; #@! TA.AperFunction,Plated,PTH,ComponentDrill
T2C0.700
; #@! TA.AperFunction,Plated,PTH,ComponentDrill
T3C0.800
; #@! TA.AperFunction,Plated,PTH,ComponentDrill
T4C0.900
; #@! TA.AperFunction,Plated,PTH,ComponentDrill
T5C0.950
; #@! TA.AperFunction,Plated,PTH,ComponentDrill
T6C1.000
; #@! TA.AperFunction,Plated,PTH,ComponentDrill
T7C1.092
; #@! TA.AperFunction,Plated,PTH,ComponentDrill
T8C1.100
; #@! TA.AperFunction,Plated,PTH,ComponentDrill
T9C1.295
; #@! TA.AperFunction,Plated,PTH,ComponentDrill
T10C3.200
%
G90
G05
T1
X138.2Y-97.1
X153.0Y-128.9
X153.6Y-73.2
X159.4Y-135.3
X164.6Y-105.3
X173.2Y-73.2
X178.2Y-78.2
X178.2Y-90.0
X204.4Y-107.7
T2
X124.75Y-70.18
X124.75Y-72.72
X198.28Y-52.75
X200.82Y-52.75
X206.93Y-65.75
X209.47Y-65.75
X217.78Y-97.5
X220.32Y-97.5
T3
X133.826Y-107.4
X136.326Y-107.4
X153.3Y-79.0
X158.3Y-79.0
X164.904Y-79.0
X167.404Y-79.0
X186.615Y-58.433
X186.615Y-60.933
X186.615Y-66.0
X186.615Y-71.0
X196.856Y-43.318
X196.856Y-45.818
X204.1Y-42.1
X204.1Y-47.1
X229.5Y-95.0
X230.804Y-82.196
X230.804Y-88.25
X233.304Y-82.196
X233.304Y-88.25
X234.5Y-95.0
T4
X124.75Y-65.475
X124.75Y-68.015
X203.485Y-52.75
X206.025Y-52.75
X206.985Y-62.0
X209.525Y-62.0
X222.735Y-97.5
X225.275Y-97.5
T5
X123.75Y-106.5
X123.75Y-109.0
X123.75Y-111.5
X196.0Y-123.658
X196.0Y-134.817
X196.0Y-145.975
X198.5Y-123.658
X198.5Y-134.817
X198.5Y-145.975
X201.0Y-123.658
X201.0Y-134.817
X201.0Y-145.975
X204.0Y-113.55
X206.5Y-113.55
X209.0Y-113.55
X209.0Y-123.658
X209.0Y-134.817
X209.0Y-145.975
X211.5Y-113.55
X211.5Y-123.658
X211.5Y-134.817
X211.5Y-145.975
X214.0Y-113.55
X214.0Y-123.658
X214.0Y-134.817
X214.0Y-145.975
X222.0Y-112.5
X222.0Y-123.658
X222.0Y-134.817
X222.0Y-145.975
X224.5Y-112.5
X224.5Y-123.658
X224.5Y-134.817
X224.5Y-145.975
X227.0Y-112.5
X227.0Y-123.658
X227.0Y-134.817
X227.0Y-145.975
T6
X125.46Y-78.069
X125.46Y-80.608
X125.46Y-83.148
X125.46Y-85.688
X125.46Y-88.228
X125.46Y-90.768
X125.46Y-93.308
X125.46Y-95.849
X125.46Y-98.388
X128.0Y-78.069
X128.0Y-80.608
X128.0Y-83.148
X128.0Y-85.688
X128.0Y-88.228
X128.0Y-90.768
X128.0Y-93.308
X128.0Y-95.849
X128.0Y-98.388
X131.75Y-118.88
X131.75Y-134.12
X133.538Y-43.0
X133.538Y-59.194
X134.29Y-118.88
X134.29Y-134.12
X136.038Y-43.0
X136.038Y-59.194
X136.83Y-118.88
X136.83Y-134.12
X139.37Y-118.88
X139.37Y-134.12
X141.23Y-78.069
X141.23Y-80.608
X141.23Y-83.148
X141.23Y-85.688
X141.23Y-88.228
X141.23Y-90.768
X141.23Y-93.308
X141.23Y-95.849
X141.23Y-98.388
X141.91Y-118.88
X141.91Y-134.12
X143.77Y-78.069
X143.77Y-80.608
X143.77Y-83.148
X143.77Y-85.688
X143.77Y-88.228
X143.77Y-90.768
X143.77Y-93.308
X143.77Y-95.849
X143.77Y-98.388
X144.45Y-118.88
X144.45Y-134.12
X146.99Y-118.88
X146.99Y-134.12
X149.53Y-118.88
X149.53Y-134.12
X150.144Y-43.0
X150.144Y-59.194
X152.644Y-43.0
X152.644Y-59.194
X153.5Y-101.45
X156.0Y-101.45
X158.5Y-101.45
X166.75Y-43.0
X166.75Y-59.194
X169.25Y-43.0
X169.25Y-59.194
X217.75Y-43.93
X217.75Y-46.43
X217.75Y-54.34
X217.75Y-56.84
X217.75Y-64.75
X217.75Y-67.25
X227.025Y-43.95
X227.025Y-46.45
X227.025Y-54.36
X227.025Y-56.86
X227.025Y-64.77
X227.025Y-67.27
T7
X133.485Y-50.806
X133.485Y-67.0
X135.771Y-50.806
X135.771Y-67.0
X138.057Y-50.806
X138.057Y-67.0
X150.091Y-50.806
X150.091Y-67.0
X152.377Y-50.806
X152.377Y-67.0
X154.663Y-50.806
X154.663Y-67.0
X166.698Y-50.806
X166.698Y-67.0
X168.984Y-50.806
X168.984Y-67.0
X171.27Y-50.806
X171.27Y-67.0
T8
X143.038Y-42.84
X143.038Y-53.0
X143.038Y-59.034
X143.038Y-69.194
X157.96Y-85.051
X159.644Y-42.84
X159.644Y-53.0
X159.644Y-59.034
X159.644Y-69.194
X160.5Y-85.051
X163.04Y-85.051
X172.38Y-88.79
X172.38Y-91.33
X172.38Y-93.87
X172.38Y-96.41
X172.38Y-98.95
X172.38Y-101.49
X172.38Y-104.03
X172.38Y-106.57
X172.38Y-109.11
X172.38Y-111.65
X172.38Y-114.19
X172.38Y-116.73
X172.38Y-119.27
X172.38Y-121.81
X172.38Y-124.35
X172.38Y-126.89
X172.38Y-129.43
X172.38Y-131.97
X172.38Y-134.51
X172.38Y-137.05
X172.38Y-139.59
X172.38Y-142.13
X172.38Y-144.67
X172.38Y-147.21
X176.25Y-42.84
X176.25Y-53.0
X176.25Y-59.034
X176.25Y-69.194
X187.62Y-88.79
X187.62Y-91.33
X187.62Y-93.87
X187.62Y-96.41
X187.62Y-98.95
X187.62Y-101.49
X187.62Y-104.03
X187.62Y-106.57
X187.62Y-109.11
X187.62Y-111.65
X187.62Y-114.19
X187.62Y-116.73
X187.62Y-119.27
X187.62Y-121.81
X187.62Y-124.35
X187.62Y-126.89
X187.62Y-129.43
X187.62Y-131.97
X187.62Y-134.51
X187.62Y-137.05
X187.62Y-139.59
X187.62Y-142.13
X187.62Y-144.67
X187.62Y-147.21
X192.305Y-60.963
X192.305Y-63.503
X192.305Y-66.043
X226.445Y-83.21
X226.445Y-85.75
X226.445Y-88.29
T9
X133.5Y-145.5
X138.5Y-145.5
X146.5Y-145.5
X151.5Y-145.5
X183.563Y-44.5
X188.563Y-44.5
T10
X124.0Y-43.5
X124.0Y-146.5
X234.0Y-43.5
X234.0Y-146.5
T0
M30
